<svg width="200" height="200" viewBox="0 0 200 200" fill="none" xmlns="http://www.w3.org/2000/svg">
<g clip-path="url(#clip0)">
<path d="M200 0H0V200H200V0Z" fill="url(#paint0_radial)"/>
<path d="M24.9106 20.925L17.6106 39H14.5731L7.27314 20.925H9.97314C10.2648 20.925 10.5023 20.9958 10.6856 21.1375C10.869 21.2792 11.0065 21.4625 11.0981 21.6875L15.3606 32.7125C15.5023 33.0708 15.6356 33.4667 15.7606 33.9C15.894 34.325 16.019 34.7708 16.1356 35.2375C16.2356 34.7708 16.344 34.325 16.4606 33.9C16.5773 33.4667 16.7065 33.0708 16.8481 32.7125L21.0856 21.6875C21.1523 21.4958 21.2815 21.3208 21.4731 21.1625C21.6731 21.0042 21.9148 20.925 22.1981 20.925H24.9106ZM29.494 26.175V39H26.394V26.175H29.494ZM29.919 22.4375C29.919 22.7042 29.8649 22.9542 29.7565 23.1875C29.6482 23.4208 29.5024 23.625 29.319 23.8C29.144 23.975 28.9357 24.1167 28.694 24.225C28.4524 24.325 28.194 24.375 27.919 24.375C27.6524 24.375 27.3982 24.325 27.1565 24.225C26.9232 24.1167 26.719 23.975 26.544 23.8C26.369 23.625 26.2274 23.4208 26.119 23.1875C26.019 22.9542 25.969 22.7042 25.969 22.4375C25.969 22.1625 26.019 21.9042 26.119 21.6625C26.2274 21.4208 26.369 21.2125 26.544 21.0375C26.719 20.8625 26.9232 20.725 27.1565 20.625C27.3982 20.5167 27.6524 20.4625 27.919 20.4625C28.194 20.4625 28.4524 20.5167 28.694 20.625C28.9357 20.725 29.144 20.8625 29.319 21.0375C29.5024 21.2125 29.6482 21.4208 29.7565 21.6625C29.8649 21.9042 29.919 22.1625 29.919 22.4375ZM40.6917 29.45C40.3417 29.025 39.9584 28.725 39.5417 28.55C39.1334 28.375 38.6917 28.2875 38.2167 28.2875C37.75 28.2875 37.3292 28.375 36.9542 28.55C36.5792 28.725 36.2584 28.9917 35.9917 29.35C35.725 29.7 35.5209 30.15 35.3792 30.7C35.2375 31.2417 35.1667 31.8833 35.1667 32.625C35.1667 33.375 35.225 34.0125 35.3417 34.5375C35.4667 35.0542 35.6417 35.4792 35.8667 35.8125C36.0917 36.1375 36.3667 36.375 36.6917 36.525C37.0167 36.6667 37.3792 36.7375 37.7792 36.7375C38.4209 36.7375 38.9667 36.6042 39.4167 36.3375C39.8667 36.0708 40.2917 35.6917 40.6917 35.2V29.45ZM43.7792 20.425V39H41.8917C41.4834 39 41.225 38.8125 41.1167 38.4375L40.8542 37.2C40.3375 37.7917 39.7417 38.2708 39.0667 38.6375C38.4 39.0042 37.6209 39.1875 36.7292 39.1875C36.0292 39.1875 35.3875 39.0417 34.8042 38.75C34.2209 38.4583 33.7167 38.0375 33.2917 37.4875C32.875 36.9292 32.55 36.2417 32.3167 35.425C32.0917 34.6083 31.9792 33.675 31.9792 32.625C31.9792 31.675 32.1084 30.7917 32.3667 29.975C32.625 29.1583 32.9959 28.45 33.4792 27.85C33.9625 27.25 34.5417 26.7833 35.2167 26.45C35.8917 26.1083 36.65 25.9375 37.4917 25.9375C38.2084 25.9375 38.8209 26.05 39.3292 26.275C39.8375 26.5 40.2917 26.8042 40.6917 27.1875V20.425H43.7792ZM55.0888 31.1125C55.0888 30.7125 55.0304 30.3375 54.9138 29.9875C54.8054 29.6292 54.6388 29.3167 54.4138 29.05C54.1888 28.7833 53.9013 28.575 53.5513 28.425C53.2096 28.2667 52.8096 28.1875 52.3513 28.1875C51.4596 28.1875 50.7554 28.4417 50.2388 28.95C49.7304 29.4583 49.4054 30.1792 49.2638 31.1125H55.0888ZM49.2013 32.975C49.2513 33.6333 49.3679 34.2042 49.5513 34.6875C49.7346 35.1625 49.9763 35.5583 50.2763 35.875C50.5763 36.1833 50.9304 36.4167 51.3388 36.575C51.7554 36.725 52.2138 36.8 52.7138 36.8C53.2138 36.8 53.6429 36.7417 54.0013 36.625C54.3679 36.5083 54.6846 36.3792 54.9513 36.2375C55.2263 36.0958 55.4638 35.9667 55.6638 35.85C55.8721 35.7333 56.0721 35.675 56.2638 35.675C56.5221 35.675 56.7138 35.7708 56.8388 35.9625L57.7263 37.0875C57.3846 37.4875 57.0013 37.825 56.5763 38.1C56.1513 38.3667 55.7054 38.5833 55.2388 38.75C54.7804 38.9083 54.3096 39.0208 53.8263 39.0875C53.3513 39.1542 52.8888 39.1875 52.4388 39.1875C51.5471 39.1875 50.7179 39.0417 49.9513 38.75C49.1846 38.45 48.5179 38.0125 47.9513 37.4375C47.3846 36.8542 46.9388 36.1375 46.6138 35.2875C46.2888 34.4292 46.1263 33.4375 46.1263 32.3125C46.1263 31.4375 46.2679 30.6167 46.5513 29.85C46.8346 29.075 47.2388 28.4042 47.7638 27.8375C48.2971 27.2625 48.9429 26.8083 49.7013 26.475C50.4679 26.1417 51.3304 25.975 52.2888 25.975C53.0971 25.975 53.8429 26.1042 54.5263 26.3625C55.2096 26.6208 55.7971 27 56.2888 27.5C56.7804 27.9917 57.1638 28.6 57.4388 29.325C57.7221 30.0417 57.8638 30.8625 57.8638 31.7875C57.8638 32.2542 57.8138 32.5708 57.7138 32.7375C57.6138 32.8958 57.4221 32.975 57.1388 32.975H49.2013ZM65.8558 25.975C66.8058 25.975 67.6683 26.1292 68.4433 26.4375C69.2266 26.7458 69.8933 27.1833 70.4433 27.75C71.0016 28.3167 71.4308 29.0083 71.7308 29.825C72.0308 30.6417 72.1808 31.5542 72.1808 32.5625C72.1808 33.5792 72.0308 34.4958 71.7308 35.3125C71.4308 36.1292 71.0016 36.825 70.4433 37.4C69.8933 37.975 69.2266 38.4167 68.4433 38.725C67.6683 39.0333 66.8058 39.1875 65.8558 39.1875C64.8974 39.1875 64.0266 39.0333 63.2433 38.725C62.4599 38.4167 61.7891 37.975 61.2308 37.4C60.6808 36.825 60.2516 36.1292 59.9433 35.3125C59.6433 34.4958 59.4933 33.5792 59.4933 32.5625C59.4933 31.5542 59.6433 30.6417 59.9433 29.825C60.2516 29.0083 60.6808 28.3167 61.2308 27.75C61.7891 27.1833 62.4599 26.7458 63.2433 26.4375C64.0266 26.1292 64.8974 25.975 65.8558 25.975ZM65.8558 36.8125C66.9224 36.8125 67.7099 36.4542 68.2183 35.7375C68.7349 35.0208 68.9933 33.9708 68.9933 32.5875C68.9933 31.2042 68.7349 30.15 68.2183 29.425C67.7099 28.7 66.9224 28.3375 65.8558 28.3375C64.7724 28.3375 63.9683 28.7042 63.4433 29.4375C62.9266 30.1625 62.6683 31.2125 62.6683 32.5875C62.6683 33.9625 62.9266 35.0125 63.4433 35.7375C63.9683 36.4542 64.7724 36.8125 65.8558 36.8125ZM90.7278 24.2125C90.6278 24.3875 90.5195 24.5167 90.4028 24.6C90.2945 24.675 90.157 24.7125 89.9903 24.7125C89.8153 24.7125 89.6237 24.65 89.4153 24.525C89.2153 24.3917 88.9737 24.2458 88.6903 24.0875C88.407 23.9292 88.0737 23.7875 87.6903 23.6625C87.3153 23.5292 86.8695 23.4625 86.3528 23.4625C85.8862 23.4625 85.4778 23.5208 85.1278 23.6375C84.7778 23.7458 84.482 23.9 84.2403 24.1C84.007 24.3 83.832 24.5417 83.7153 24.825C83.5987 25.1 83.5403 25.4042 83.5403 25.7375C83.5403 26.1625 83.657 26.5167 83.8903 26.8C84.132 27.0833 84.4487 27.325 84.8403 27.525C85.232 27.725 85.6778 27.9042 86.1778 28.0625C86.6778 28.2208 87.1903 28.3917 87.7153 28.575C88.2403 28.75 88.7528 28.9583 89.2528 29.2C89.7528 29.4333 90.1987 29.7333 90.5903 30.1C90.982 30.4583 91.2945 30.9 91.5278 31.425C91.7695 31.95 91.8903 32.5875 91.8903 33.3375C91.8903 34.1542 91.7487 34.9208 91.4653 35.6375C91.1903 36.3458 90.782 36.9667 90.2403 37.5C89.707 38.025 89.0528 38.4417 88.2778 38.75C87.5028 39.05 86.6153 39.2 85.6153 39.2C85.0403 39.2 84.4737 39.1417 83.9153 39.025C83.357 38.9167 82.8195 38.7583 82.3028 38.55C81.7945 38.3417 81.3153 38.0917 80.8653 37.8C80.4153 37.5083 80.0153 37.1833 79.6653 36.825L80.6528 35.2125C80.7362 35.0958 80.8445 35 80.9778 34.925C81.1112 34.8417 81.2528 34.8 81.4028 34.8C81.6112 34.8 81.8362 34.8875 82.0778 35.0625C82.3195 35.2292 82.607 35.4167 82.9403 35.625C83.2737 35.8333 83.6612 36.025 84.1028 36.2C84.5528 36.3667 85.0903 36.45 85.7153 36.45C86.6737 36.45 87.4153 36.225 87.9403 35.775C88.4653 35.3167 88.7278 34.6625 88.7278 33.8125C88.7278 33.3375 88.607 32.95 88.3653 32.65C88.132 32.35 87.8195 32.1 87.4278 31.9C87.0362 31.6917 86.5903 31.5167 86.0903 31.375C85.5903 31.2333 85.082 31.0792 84.5653 30.9125C84.0487 30.7458 83.5403 30.5458 83.0403 30.3125C82.5403 30.0792 82.0945 29.775 81.7028 29.4C81.3112 29.025 80.9945 28.5583 80.7528 28C80.5195 27.4333 80.4028 26.7375 80.4028 25.9125C80.4028 25.2542 80.532 24.6125 80.7903 23.9875C81.057 23.3625 81.4403 22.8083 81.9403 22.325C82.4403 21.8417 83.057 21.4542 83.7903 21.1625C84.5237 20.8708 85.3653 20.725 86.3153 20.725C87.382 20.725 88.3653 20.8917 89.2653 21.225C90.1653 21.5583 90.932 22.025 91.5653 22.625L90.7278 24.2125ZM97.4872 26.175V39H94.3872V26.175H97.4872ZM97.9122 22.4375C97.9122 22.7042 97.858 22.9542 97.7497 23.1875C97.6414 23.4208 97.4955 23.625 97.3122 23.8C97.1372 23.975 96.9289 24.1167 96.6872 24.225C96.4455 24.325 96.1872 24.375 95.9122 24.375C95.6455 24.375 95.3914 24.325 95.1497 24.225C94.9164 24.1167 94.7122 23.975 94.5372 23.8C94.3622 23.625 94.2205 23.4208 94.1122 23.1875C94.0122 22.9542 93.9622 22.7042 93.9622 22.4375C93.9622 22.1625 94.0122 21.9042 94.1122 21.6625C94.2205 21.4208 94.3622 21.2125 94.5372 21.0375C94.7122 20.8625 94.9164 20.725 95.1497 20.625C95.3914 20.5167 95.6455 20.4625 95.9122 20.4625C96.1872 20.4625 96.4455 20.5167 96.6872 20.625C96.9289 20.725 97.1372 20.8625 97.3122 21.0375C97.4955 21.2125 97.6414 21.4208 97.7497 21.6625C97.858 21.9042 97.9122 22.1625 97.9122 22.4375ZM104.91 39.2C103.793 39.2 102.935 38.8875 102.335 38.2625C101.743 37.6292 101.447 36.7583 101.447 35.65V28.4875H100.135C99.9682 28.4875 99.8265 28.4333 99.7099 28.325C99.5932 28.2167 99.5349 28.0542 99.5349 27.8375V26.6125L101.597 26.275L102.247 22.775C102.289 22.6083 102.368 22.4792 102.485 22.3875C102.602 22.2958 102.752 22.25 102.935 22.25H104.535V26.2875H107.96V28.4875H104.535V35.4375C104.535 35.8375 104.631 36.15 104.822 36.375C105.022 36.6 105.293 36.7125 105.635 36.7125C105.827 36.7125 105.985 36.6917 106.11 36.65C106.243 36.6 106.356 36.55 106.447 36.5C106.547 36.45 106.635 36.4042 106.71 36.3625C106.785 36.3125 106.86 36.2875 106.935 36.2875C107.027 36.2875 107.102 36.3125 107.16 36.3625C107.218 36.4042 107.281 36.4708 107.347 36.5625L108.272 38.0625C107.822 38.4375 107.306 38.7208 106.722 38.9125C106.139 39.1042 105.535 39.2 104.91 39.2ZM120.987 26.175V39H119.099C118.691 39 118.432 38.8125 118.324 38.4375L118.112 37.4125C117.587 37.9458 117.007 38.3792 116.374 38.7125C115.741 39.0375 114.995 39.2 114.137 39.2C113.437 39.2 112.816 39.0833 112.274 38.85C111.741 38.6083 111.291 38.2708 110.924 37.8375C110.557 37.4042 110.278 36.8917 110.087 36.3C109.903 35.7 109.812 35.0417 109.812 34.325V26.175H112.899V34.325C112.899 35.1083 113.078 35.7167 113.437 36.15C113.803 36.575 114.349 36.7875 115.074 36.7875C115.607 36.7875 116.107 36.6708 116.574 36.4375C117.041 36.1958 117.482 35.8667 117.899 35.45V26.175H120.987ZM130.823 33.525C129.931 33.5667 129.181 33.6458 128.573 33.7625C127.965 33.8708 127.477 34.0125 127.11 34.1875C126.744 34.3625 126.481 34.5667 126.323 34.8C126.165 35.0333 126.085 35.2875 126.085 35.5625C126.085 36.1042 126.244 36.4917 126.56 36.725C126.885 36.9583 127.306 37.075 127.823 37.075C128.456 37.075 129.002 36.9625 129.46 36.7375C129.927 36.5042 130.381 36.1542 130.823 35.6875V33.525ZM123.748 27.9625C125.223 26.6125 126.998 25.9375 129.073 25.9375C129.823 25.9375 130.494 26.0625 131.085 26.3125C131.677 26.5542 132.177 26.8958 132.585 27.3375C132.994 27.7708 133.302 28.2917 133.51 28.9C133.727 29.5083 133.835 30.175 133.835 30.9V39H132.435C132.144 39 131.919 38.9583 131.76 38.875C131.602 38.7833 131.477 38.6042 131.385 38.3375L131.11 37.4125C130.785 37.7042 130.469 37.9625 130.16 38.1875C129.852 38.4042 129.531 38.5875 129.198 38.7375C128.865 38.8875 128.506 39 128.123 39.075C127.748 39.1583 127.331 39.2 126.873 39.2C126.331 39.2 125.831 39.1292 125.373 38.9875C124.915 38.8375 124.519 38.6167 124.185 38.325C123.852 38.0333 123.594 37.6708 123.41 37.2375C123.227 36.8042 123.135 36.3 123.135 35.725C123.135 35.4 123.19 35.0792 123.298 34.7625C123.406 34.4375 123.581 34.1292 123.823 33.8375C124.073 33.5458 124.394 33.2708 124.785 33.0125C125.177 32.7542 125.656 32.5292 126.223 32.3375C126.798 32.1458 127.465 31.9917 128.223 31.875C128.981 31.75 129.848 31.675 130.823 31.65V30.9C130.823 30.0417 130.64 29.4083 130.273 29C129.906 28.5833 129.377 28.375 128.685 28.375C128.185 28.375 127.769 28.4333 127.435 28.55C127.11 28.6667 126.823 28.8 126.573 28.95C126.323 29.0917 126.094 29.2208 125.885 29.3375C125.685 29.4542 125.46 29.5125 125.21 29.5125C124.994 29.5125 124.81 29.4583 124.66 29.35C124.51 29.2333 124.39 29.1 124.298 28.95L123.748 27.9625ZM149.51 39H146.422V28.4875H140.472V35.4375C140.472 35.8375 140.568 36.15 140.76 36.375C140.96 36.6 141.231 36.7125 141.572 36.7125C141.764 36.7125 141.922 36.6917 142.047 36.65C142.181 36.6 142.293 36.55 142.385 36.5C142.485 36.45 142.572 36.4042 142.647 36.3625C142.722 36.3125 142.797 36.2875 142.872 36.2875C142.964 36.2875 143.039 36.3125 143.097 36.3625C143.156 36.4042 143.218 36.4708 143.285 36.5625L144.21 38.0625C143.76 38.4375 143.243 38.7208 142.66 38.9125C142.077 39.1042 141.472 39.2 140.847 39.2C139.731 39.2 138.872 38.8875 138.272 38.2625C137.681 37.6292 137.385 36.7583 137.385 35.65V28.4875H136.072C135.906 28.4875 135.764 28.4333 135.647 28.325C135.531 28.2167 135.472 28.0542 135.472 27.8375V26.6125L137.535 26.2625L138.185 22.775C138.227 22.6083 138.306 22.4792 138.422 22.3875C138.539 22.2958 138.689 22.25 138.872 22.25H140.472V26.2875H149.51V39ZM150.047 22.3875C150.047 22.6542 149.993 22.9083 149.885 23.15C149.777 23.3833 149.631 23.5875 149.447 23.7625C149.272 23.9375 149.06 24.0792 148.81 24.1875C148.568 24.2875 148.31 24.3375 148.035 24.3375C147.768 24.3375 147.518 24.2875 147.285 24.1875C147.052 24.0792 146.847 23.9375 146.672 23.7625C146.497 23.5875 146.356 23.3833 146.247 23.15C146.147 22.9083 146.097 22.6542 146.097 22.3875C146.097 22.1125 146.147 21.8583 146.247 21.625C146.356 21.3833 146.497 21.175 146.672 21C146.847 20.8167 147.052 20.675 147.285 20.575C147.518 20.4667 147.768 20.4125 148.035 20.4125C148.31 20.4125 148.568 20.4667 148.81 20.575C149.06 20.675 149.272 20.8167 149.447 21C149.631 21.175 149.777 21.3833 149.885 21.625C149.993 21.8583 150.047 22.1125 150.047 22.3875ZM158.336 25.975C159.286 25.975 160.149 26.1292 160.924 26.4375C161.707 26.7458 162.374 27.1833 162.924 27.75C163.482 28.3167 163.911 29.0083 164.211 29.825C164.511 30.6417 164.661 31.5542 164.661 32.5625C164.661 33.5792 164.511 34.4958 164.211 35.3125C163.911 36.1292 163.482 36.825 162.924 37.4C162.374 37.975 161.707 38.4167 160.924 38.725C160.149 39.0333 159.286 39.1875 158.336 39.1875C157.378 39.1875 156.507 39.0333 155.724 38.725C154.94 38.4167 154.27 37.975 153.711 37.4C153.161 36.825 152.732 36.1292 152.424 35.3125C152.124 34.4958 151.974 33.5792 151.974 32.5625C151.974 31.5542 152.124 30.6417 152.424 29.825C152.732 29.0083 153.161 28.3167 153.711 27.75C154.27 27.1833 154.94 26.7458 155.724 26.4375C156.507 26.1292 157.378 25.975 158.336 25.975ZM158.336 36.8125C159.403 36.8125 160.19 36.4542 160.699 35.7375C161.215 35.0208 161.474 33.9708 161.474 32.5875C161.474 31.2042 161.215 30.15 160.699 29.425C160.19 28.7 159.403 28.3375 158.336 28.3375C157.253 28.3375 156.449 28.7042 155.924 29.4375C155.407 30.1625 155.149 31.2125 155.149 32.5875C155.149 33.9625 155.407 35.0125 155.924 35.7375C156.449 36.4542 157.253 36.8125 158.336 36.8125ZM169.904 27.75C170.163 27.4917 170.433 27.2542 170.717 27.0375C171.008 26.8125 171.313 26.625 171.629 26.475C171.954 26.3167 172.3 26.1958 172.667 26.1125C173.033 26.0208 173.433 25.975 173.867 25.975C174.567 25.975 175.188 26.0958 175.729 26.3375C176.271 26.5708 176.721 26.9042 177.079 27.3375C177.446 27.7625 177.721 28.275 177.904 28.875C178.096 29.4667 178.192 30.1208 178.192 30.8375V39H175.104V30.8375C175.104 30.0542 174.925 29.45 174.567 29.025C174.208 28.5917 173.663 28.375 172.929 28.375C172.396 28.375 171.896 28.4958 171.429 28.7375C170.963 28.9792 170.521 29.3083 170.104 29.725V39H167.017V26.175H168.904C169.304 26.175 169.567 26.3625 169.692 26.7375L169.904 27.75ZM188.953 28.675C188.87 28.8083 188.782 28.9042 188.691 28.9625C188.599 29.0125 188.482 29.0375 188.341 29.0375C188.191 29.0375 188.028 28.9958 187.853 28.9125C187.686 28.8292 187.491 28.7375 187.266 28.6375C187.041 28.5292 186.782 28.4333 186.491 28.35C186.207 28.2667 185.87 28.225 185.478 28.225C184.87 28.225 184.391 28.3542 184.041 28.6125C183.699 28.8708 183.528 29.2083 183.528 29.625C183.528 29.9 183.616 30.1333 183.791 30.325C183.974 30.5083 184.211 30.6708 184.503 30.8125C184.803 30.9542 185.141 31.0833 185.516 31.2C185.891 31.3083 186.27 31.4292 186.653 31.5625C187.045 31.6958 187.428 31.85 187.803 32.025C188.178 32.1917 188.511 32.4083 188.803 32.675C189.103 32.9333 189.341 33.2458 189.516 33.6125C189.699 33.9792 189.791 34.4208 189.791 34.9375C189.791 35.5542 189.678 36.125 189.453 36.65C189.236 37.1667 188.911 37.6167 188.478 38C188.045 38.375 187.507 38.6708 186.866 38.8875C186.232 39.0958 185.499 39.2 184.666 39.2C184.224 39.2 183.791 39.1583 183.366 39.075C182.949 39 182.545 38.8917 182.153 38.75C181.77 38.6083 181.411 38.4417 181.078 38.25C180.753 38.0583 180.466 37.85 180.216 37.625L180.928 36.45C181.02 36.3083 181.128 36.2 181.253 36.125C181.378 36.05 181.536 36.0125 181.728 36.0125C181.92 36.0125 182.099 36.0667 182.266 36.175C182.441 36.2833 182.641 36.4 182.866 36.525C183.091 36.65 183.353 36.7667 183.653 36.875C183.961 36.9833 184.349 37.0375 184.816 37.0375C185.182 37.0375 185.495 36.9958 185.753 36.9125C186.02 36.8208 186.236 36.7042 186.403 36.5625C186.578 36.4208 186.703 36.2583 186.778 36.075C186.861 35.8833 186.903 35.6875 186.903 35.4875C186.903 35.1875 186.811 34.9417 186.628 34.75C186.453 34.5583 186.216 34.3917 185.916 34.25C185.624 34.1083 185.286 33.9833 184.903 33.875C184.528 33.7583 184.141 33.6333 183.741 33.5C183.349 33.3667 182.961 33.2125 182.578 33.0375C182.203 32.8542 181.866 32.625 181.566 32.35C181.274 32.075 181.036 31.7375 180.853 31.3375C180.678 30.9375 180.591 30.4542 180.591 29.8875C180.591 29.3625 180.695 28.8625 180.903 28.3875C181.111 27.9125 181.416 27.5 181.816 27.15C182.224 26.7917 182.728 26.5083 183.328 26.3C183.936 26.0833 184.636 25.975 185.428 25.975C186.311 25.975 187.116 26.1208 187.841 26.4125C188.566 26.7042 189.17 27.0875 189.653 27.5625L188.953 28.675Z" fill="#1B4596"/>
<rect x="-20" y="82" width="228" height="79" fill="#E0F9FF"/>
<path d="M257.132 56.1201H236.181H215.23H194.279H173.328H152.377H131.426H110.475H89.5245H68.5736H47.6227H26.6717H5.72083H-15.2301H-36.181H-57.1319C-60.2745 56.1201 -62.3696 58.2208 -62.3696 61.3718V82.3785V161.153V182.16C-62.3696 185.311 -60.2745 187.412 -57.1319 187.412H-36.181H-15.2301H5.72083H26.6717H47.6227H68.5736H89.5245H110.475H131.426H152.377H173.328H194.279H215.23H236.181H257.132C260.274 187.412 262.369 185.311 262.369 182.16V161.153V82.3785V61.3718C262.369 58.2208 260.274 56.1201 257.132 56.1201ZM10.9586 66.6235H21.434V77.1268H10.9586V66.6235ZM-9.99235 66.6235H0.483101V77.1268H-9.99235V66.6235ZM-30.9433 66.6235H-20.4678V77.1268H-30.9433V66.6235ZM-51.8942 66.6235H-41.4187V77.1268H-51.8942V66.6235ZM-41.4187 176.908H-51.8942V166.405H-41.4187V176.908ZM-20.4678 176.908H-30.9433V166.405H-20.4678V176.908ZM0.483101 176.908H-9.99235V166.405H0.483101V176.908ZM21.434 176.908H10.9586V166.405H21.434V176.908ZM42.3849 176.908H31.9095V166.405H42.3849V176.908ZM42.3849 155.902H26.6717H5.72083H-15.2301H-36.181H-51.8942V87.6301H-36.181H-15.2301H5.72083H26.6717H42.3849V155.902ZM42.3849 77.1268H31.9095V66.6235H42.3849V77.1268ZM115.713 66.6235H126.189V77.1268H115.713V66.6235ZM94.7622 66.6235H105.238V77.1268H94.7622V66.6235ZM73.8113 66.6235H84.2867V77.1268H73.8113V66.6235ZM52.8604 66.6235H63.3358V77.1268H52.8604V66.6235ZM63.3358 176.908H52.8604V166.405H63.3358V176.908ZM84.2867 176.908H73.8113V166.405H84.2867V176.908ZM105.238 176.908H94.7622V166.405H105.238V176.908ZM126.189 176.908H115.713V166.405H126.189V176.908ZM147.139 176.908H136.664V166.405H147.139V176.908ZM147.139 155.902H131.426H110.475H89.5245H68.5736H52.8604V87.6301H68.5736H89.5245H110.475H131.426H147.139V155.902ZM147.139 77.1268H136.664V66.6235H147.139V77.1268ZM220.468 66.6235H230.943V77.1268H220.468V66.6235ZM199.517 66.6235H209.992V77.1268H199.517V66.6235ZM178.566 66.6235H189.041V77.1268H178.566V66.6235ZM157.615 66.6235H168.09V77.1268H157.615V66.6235ZM168.09 176.908H157.615V166.405H168.09V176.908ZM189.041 176.908H178.566V166.405H189.041V176.908ZM209.992 176.908H199.517V166.405H209.992V176.908ZM230.943 176.908H220.468V166.405H230.943V176.908ZM251.894 176.908H241.419V166.405H251.894V176.908ZM251.894 155.902H236.181H215.23H194.279H173.328H157.615V87.6301H173.328H194.279H215.23H236.181H251.894V155.902ZM251.894 77.1268H241.419V66.6235H251.894V77.1268Z" fill="#1D3D7E"/>
<path d="M67.7065 106.17C67.6265 106.31 67.5398 106.413 67.4465 106.48C67.3598 106.54 67.2498 106.57 67.1165 106.57C66.9765 106.57 66.8232 106.52 66.6565 106.42C66.4965 106.313 66.3032 106.197 66.0765 106.07C65.8498 105.943 65.5832 105.83 65.2765 105.73C64.9765 105.623 64.6198 105.57 64.2065 105.57C63.8332 105.57 63.5065 105.617 63.2265 105.71C62.9465 105.797 62.7098 105.92 62.5165 106.08C62.3298 106.24 62.1898 106.433 62.0965 106.66C62.0032 106.88 61.9565 107.123 61.9565 107.39C61.9565 107.73 62.0498 108.013 62.2365 108.24C62.4298 108.467 62.6832 108.66 62.9965 108.82C63.3098 108.98 63.6665 109.123 64.0665 109.25C64.4665 109.377 64.8765 109.513 65.2965 109.66C65.7165 109.8 66.1265 109.967 66.5265 110.16C66.9265 110.347 67.2832 110.587 67.5965 110.88C67.9098 111.167 68.1598 111.52 68.3465 111.94C68.5398 112.36 68.6365 112.87 68.6365 113.47C68.6365 114.123 68.5232 114.737 68.2965 115.31C68.0765 115.877 67.7498 116.373 67.3165 116.8C66.8898 117.22 66.3665 117.553 65.7465 117.8C65.1265 118.04 64.4165 118.16 63.6165 118.16C63.1565 118.16 62.7032 118.113 62.2565 118.02C61.8098 117.933 61.3798 117.807 60.9665 117.64C60.5598 117.473 60.1765 117.273 59.8165 117.04C59.4565 116.807 59.1365 116.547 58.8565 116.26L59.6465 114.97C59.7132 114.877 59.7998 114.8 59.9065 114.74C60.0132 114.673 60.1265 114.64 60.2465 114.64C60.4132 114.64 60.5932 114.71 60.7865 114.85C60.9798 114.983 61.2098 115.133 61.4765 115.3C61.7432 115.467 62.0532 115.62 62.4065 115.76C62.7665 115.893 63.1965 115.96 63.6965 115.96C64.4632 115.96 65.0565 115.78 65.4765 115.42C65.8965 115.053 66.1065 114.53 66.1065 113.85C66.1065 113.47 66.0098 113.16 65.8165 112.92C65.6298 112.68 65.3798 112.48 65.0665 112.32C64.7532 112.153 64.3965 112.013 63.9965 111.9C63.5965 111.787 63.1898 111.663 62.7765 111.53C62.3632 111.397 61.9565 111.237 61.5565 111.05C61.1565 110.863 60.7998 110.62 60.4865 110.32C60.1732 110.02 59.9198 109.647 59.7265 109.2C59.5398 108.747 59.4465 108.19 59.4465 107.53C59.4465 107.003 59.5498 106.49 59.7565 105.99C59.9698 105.49 60.2765 105.047 60.6765 104.66C61.0765 104.273 61.5698 103.963 62.1565 103.73C62.7432 103.497 63.4165 103.38 64.1765 103.38C65.0298 103.38 65.8165 103.513 66.5365 103.78C67.2565 104.047 67.8698 104.42 68.3765 104.9L67.7065 106.17ZM77.164 111.69C77.164 111.37 77.1173 111.07 77.024 110.79C76.9373 110.503 76.804 110.253 76.624 110.04C76.444 109.827 76.214 109.66 75.934 109.54C75.6607 109.413 75.3407 109.35 74.974 109.35C74.2607 109.35 73.6973 109.553 73.284 109.96C72.8773 110.367 72.6173 110.943 72.504 111.69H77.164ZM72.454 113.18C72.494 113.707 72.5873 114.163 72.734 114.55C72.8807 114.93 73.074 115.247 73.314 115.5C73.554 115.747 73.8373 115.933 74.164 116.06C74.4973 116.18 74.864 116.24 75.264 116.24C75.664 116.24 76.0073 116.193 76.294 116.1C76.5873 116.007 76.8407 115.903 77.054 115.79C77.274 115.677 77.464 115.573 77.624 115.48C77.7907 115.387 77.9507 115.34 78.104 115.34C78.3107 115.34 78.464 115.417 78.564 115.57L79.274 116.47C79.0007 116.79 78.694 117.06 78.354 117.28C78.014 117.493 77.6573 117.667 77.284 117.8C76.9173 117.927 76.5407 118.017 76.154 118.07C75.774 118.123 75.404 118.15 75.044 118.15C74.3307 118.15 73.6673 118.033 73.054 117.8C72.4407 117.56 71.9073 117.21 71.454 116.75C71.0007 116.283 70.644 115.71 70.384 115.03C70.124 114.343 69.994 113.55 69.994 112.65C69.994 111.95 70.1073 111.293 70.334 110.68C70.5607 110.06 70.884 109.523 71.304 109.07C71.7307 108.61 72.2473 108.247 72.854 107.98C73.4673 107.713 74.1573 107.58 74.924 107.58C75.5707 107.58 76.1673 107.683 76.714 107.89C77.2607 108.097 77.7307 108.4 78.124 108.8C78.5173 109.193 78.824 109.68 79.044 110.26C79.2707 110.833 79.384 111.49 79.384 112.23C79.384 112.603 79.344 112.857 79.264 112.99C79.184 113.117 79.0307 113.18 78.804 113.18H72.454ZM81.2376 118V107.74H82.7476C83.0676 107.74 83.2776 107.89 83.3776 108.19L83.5376 108.95C83.7176 108.75 83.9042 108.567 84.0976 108.4C84.2976 108.233 84.5076 108.09 84.7276 107.97C84.9542 107.85 85.1942 107.757 85.4476 107.69C85.7076 107.617 85.9909 107.58 86.2976 107.58C86.9442 107.58 87.4742 107.757 87.8876 108.11C88.3076 108.457 88.6209 108.92 88.8276 109.5C88.9876 109.16 89.1876 108.87 89.4276 108.63C89.6676 108.383 89.9309 108.183 90.2176 108.03C90.5042 107.877 90.8076 107.763 91.1276 107.69C91.4542 107.617 91.7809 107.58 92.1076 107.58C92.6742 107.58 93.1776 107.667 93.6176 107.84C94.0576 108.013 94.4276 108.267 94.7276 108.6C95.0276 108.933 95.2542 109.34 95.4076 109.82C95.5676 110.3 95.6476 110.85 95.6476 111.47V118H93.1776V111.47C93.1776 110.817 93.0342 110.327 92.7476 110C92.4609 109.667 92.0409 109.5 91.4876 109.5C91.2342 109.5 90.9976 109.543 90.7776 109.63C90.5642 109.717 90.3742 109.843 90.2076 110.01C90.0476 110.17 89.9209 110.373 89.8276 110.62C89.7342 110.867 89.6876 111.15 89.6876 111.47V118H87.2076V111.47C87.2076 110.783 87.0676 110.283 86.7876 109.97C86.5142 109.657 86.1109 109.5 85.5776 109.5C85.2176 109.5 84.8809 109.59 84.5676 109.77C84.2609 109.943 83.9742 110.183 83.7076 110.49V118H81.2376ZM103.415 113.62C102.702 113.653 102.102 113.717 101.615 113.81C101.129 113.897 100.739 114.01 100.445 114.15C100.152 114.29 99.9421 114.453 99.8154 114.64C99.6887 114.827 99.6254 115.03 99.6254 115.25C99.6254 115.683 99.7521 115.993 100.005 116.18C100.265 116.367 100.602 116.46 101.015 116.46C101.522 116.46 101.959 116.37 102.325 116.19C102.699 116.003 103.062 115.723 103.415 115.35V113.62ZM97.7554 109.17C98.9354 108.09 100.355 107.55 102.015 107.55C102.615 107.55 103.152 107.65 103.625 107.85C104.099 108.043 104.499 108.317 104.825 108.67C105.152 109.017 105.399 109.433 105.565 109.92C105.739 110.407 105.825 110.94 105.825 111.52V118H104.705C104.472 118 104.292 117.967 104.165 117.9C104.039 117.827 103.939 117.683 103.865 117.47L103.645 116.73C103.385 116.963 103.132 117.17 102.885 117.35C102.639 117.523 102.382 117.67 102.115 117.79C101.849 117.91 101.562 118 101.255 118.06C100.955 118.127 100.622 118.16 100.255 118.16C99.8221 118.16 99.4221 118.103 99.0554 117.99C98.6887 117.87 98.3721 117.693 98.1054 117.46C97.8387 117.227 97.6321 116.937 97.4854 116.59C97.3387 116.243 97.2654 115.84 97.2654 115.38C97.2654 115.12 97.3087 114.863 97.3954 114.61C97.4821 114.35 97.6221 114.103 97.8154 113.87C98.0154 113.637 98.2721 113.417 98.5854 113.21C98.8987 113.003 99.2821 112.823 99.7354 112.67C100.195 112.517 100.729 112.393 101.335 112.3C101.942 112.2 102.635 112.14 103.415 112.12V111.52C103.415 110.833 103.269 110.327 102.975 110C102.682 109.667 102.259 109.5 101.705 109.5C101.305 109.5 100.972 109.547 100.705 109.64C100.445 109.733 100.215 109.84 100.015 109.96C99.8154 110.073 99.6321 110.177 99.4654 110.27C99.3054 110.363 99.1254 110.41 98.9254 110.41C98.7521 110.41 98.6054 110.367 98.4854 110.28C98.3654 110.187 98.2687 110.08 98.1954 109.96L97.7554 109.17ZM110.462 109C110.668 108.793 110.885 108.603 111.112 108.43C111.345 108.25 111.588 108.1 111.842 107.98C112.102 107.853 112.378 107.757 112.672 107.69C112.965 107.617 113.285 107.58 113.632 107.58C114.192 107.58 114.688 107.677 115.122 107.87C115.555 108.057 115.915 108.323 116.202 108.67C116.495 109.01 116.715 109.42 116.862 109.9C117.015 110.373 117.092 110.897 117.092 111.47V118H114.622V111.47C114.622 110.843 114.478 110.36 114.192 110.02C113.905 109.673 113.468 109.5 112.882 109.5C112.455 109.5 112.055 109.597 111.682 109.79C111.308 109.983 110.955 110.247 110.622 110.58V118H108.152V107.74H109.662C109.982 107.74 110.192 107.89 110.292 108.19L110.462 109ZM129.654 118H127.184V109.59H122.424V115.15C122.424 115.47 122.501 115.72 122.654 115.9C122.814 116.08 123.031 116.17 123.304 116.17C123.457 116.17 123.584 116.153 123.684 116.12C123.791 116.08 123.881 116.04 123.954 116C124.034 115.96 124.104 115.923 124.164 115.89C124.224 115.85 124.284 115.83 124.344 115.83C124.417 115.83 124.477 115.85 124.524 115.89C124.571 115.923 124.621 115.977 124.674 116.05L125.414 117.25C125.054 117.55 124.641 117.777 124.174 117.93C123.707 118.083 123.224 118.16 122.724 118.16C121.831 118.16 121.144 117.91 120.664 117.41C120.191 116.903 119.954 116.207 119.954 115.32V109.59H118.904C118.771 109.59 118.657 109.547 118.564 109.46C118.471 109.373 118.424 109.243 118.424 109.07V108.09L120.074 107.81L120.594 105.02C120.627 104.887 120.691 104.783 120.784 104.71C120.877 104.637 120.997 104.6 121.144 104.6H122.424V107.83H129.654V118ZM130.084 104.71C130.084 104.923 130.041 105.127 129.954 105.32C129.867 105.507 129.751 105.67 129.604 105.81C129.464 105.95 129.294 106.063 129.094 106.15C128.901 106.23 128.694 106.27 128.474 106.27C128.261 106.27 128.061 106.23 127.874 106.15C127.687 106.063 127.524 105.95 127.384 105.81C127.244 105.67 127.131 105.507 127.044 105.32C126.964 105.127 126.924 104.923 126.924 104.71C126.924 104.49 126.964 104.287 127.044 104.1C127.131 103.907 127.244 103.74 127.384 103.6C127.524 103.453 127.687 103.34 127.874 103.26C128.061 103.173 128.261 103.13 128.474 103.13C128.694 103.13 128.901 103.173 129.094 103.26C129.294 103.34 129.464 103.453 129.604 103.6C129.751 103.74 129.867 103.907 129.954 104.1C130.041 104.287 130.084 104.49 130.084 104.71ZM139.525 109.91C139.452 110.003 139.378 110.077 139.305 110.13C139.238 110.183 139.138 110.21 139.005 110.21C138.878 110.21 138.755 110.173 138.635 110.1C138.515 110.02 138.372 109.933 138.205 109.84C138.038 109.74 137.838 109.653 137.605 109.58C137.378 109.5 137.095 109.46 136.755 109.46C136.322 109.46 135.942 109.54 135.615 109.7C135.288 109.853 135.015 110.077 134.795 110.37C134.582 110.663 134.422 111.02 134.315 111.44C134.208 111.853 134.155 112.323 134.155 112.85C134.155 113.397 134.212 113.883 134.325 114.31C134.445 114.737 134.615 115.097 134.835 115.39C135.055 115.677 135.322 115.897 135.635 116.05C135.948 116.197 136.302 116.27 136.695 116.27C137.088 116.27 137.405 116.223 137.645 116.13C137.892 116.03 138.098 115.923 138.265 115.81C138.432 115.69 138.575 115.583 138.695 115.49C138.822 115.39 138.962 115.34 139.115 115.34C139.315 115.34 139.465 115.417 139.565 115.57L140.275 116.47C140.002 116.79 139.705 117.06 139.385 117.28C139.065 117.493 138.732 117.667 138.385 117.8C138.045 117.927 137.692 118.017 137.325 118.07C136.965 118.123 136.605 118.15 136.245 118.15C135.612 118.15 135.015 118.033 134.455 117.8C133.895 117.56 133.405 117.213 132.985 116.76C132.565 116.307 132.232 115.753 131.985 115.1C131.745 114.44 131.625 113.69 131.625 112.85C131.625 112.097 131.732 111.4 131.945 110.76C132.165 110.113 132.485 109.557 132.905 109.09C133.325 108.617 133.845 108.247 134.465 107.98C135.085 107.713 135.798 107.58 136.605 107.58C137.372 107.58 138.042 107.703 138.615 107.95C139.195 108.197 139.715 108.55 140.175 109.01L139.525 109.91ZM81.4273 130.42C81.9339 130.42 82.3739 130.357 82.7473 130.23C83.1273 130.103 83.4373 129.93 83.6773 129.71C83.9239 129.483 84.1073 129.217 84.2273 128.91C84.3473 128.603 84.4073 128.267 84.4073 127.9C84.4073 127.167 84.1639 126.603 83.6773 126.21C83.1973 125.817 82.4606 125.62 81.4673 125.62H79.7473V130.42H81.4273ZM88.3473 138H85.9173C85.4573 138 85.1239 137.82 84.9173 137.46L81.8773 132.83C81.7639 132.657 81.6373 132.533 81.4973 132.46C81.3639 132.387 81.1639 132.35 80.8973 132.35H79.7473V138H77.0573V123.54H81.4673C82.4473 123.54 83.2873 123.643 83.9873 123.85C84.6939 124.05 85.2706 124.333 85.7173 124.7C86.1706 125.067 86.5039 125.507 86.7173 126.02C86.9306 126.527 87.0373 127.087 87.0373 127.7C87.0373 128.187 86.9639 128.647 86.8173 129.08C86.6773 129.513 86.4706 129.907 86.1973 130.26C85.9306 130.613 85.5973 130.923 85.1973 131.19C84.8039 131.457 84.3539 131.667 83.8473 131.82C84.0206 131.92 84.1806 132.04 84.3273 132.18C84.4739 132.313 84.6073 132.473 84.7273 132.66L88.3473 138ZM93.3948 127.58C94.1548 127.58 94.8448 127.703 95.4648 127.95C96.0914 128.197 96.6248 128.547 97.0648 129C97.5114 129.453 97.8548 130.007 98.0948 130.66C98.3348 131.313 98.4548 132.043 98.4548 132.85C98.4548 133.663 98.3348 134.397 98.0948 135.05C97.8548 135.703 97.5114 136.26 97.0648 136.72C96.6248 137.18 96.0914 137.533 95.4648 137.78C94.8448 138.027 94.1548 138.15 93.3948 138.15C92.6281 138.15 91.9314 138.027 91.3048 137.78C90.6781 137.533 90.1414 137.18 89.6948 136.72C89.2548 136.26 88.9114 135.703 88.6648 135.05C88.4248 134.397 88.3048 133.663 88.3048 132.85C88.3048 132.043 88.4248 131.313 88.6648 130.66C88.9114 130.007 89.2548 129.453 89.6948 129C90.1414 128.547 90.6781 128.197 91.3048 127.95C91.9314 127.703 92.6281 127.58 93.3948 127.58ZM93.3948 136.25C94.2481 136.25 94.8781 135.963 95.2848 135.39C95.6981 134.817 95.9048 133.977 95.9048 132.87C95.9048 131.763 95.6981 130.92 95.2848 130.34C94.8781 129.76 94.2481 129.47 93.3948 129.47C92.5281 129.47 91.8848 129.763 91.4648 130.35C91.0514 130.93 90.8448 131.77 90.8448 132.87C90.8448 133.97 91.0514 134.81 91.4648 135.39C91.8848 135.963 92.5281 136.25 93.3948 136.25ZM102.839 123.14V138H100.369V123.14H102.839ZM111.91 131.69C111.91 131.37 111.863 131.07 111.77 130.79C111.683 130.503 111.55 130.253 111.37 130.04C111.19 129.827 110.96 129.66 110.68 129.54C110.407 129.413 110.087 129.35 109.72 129.35C109.007 129.35 108.443 129.553 108.03 129.96C107.623 130.367 107.363 130.943 107.25 131.69H111.91ZM107.2 133.18C107.24 133.707 107.333 134.163 107.48 134.55C107.627 134.93 107.82 135.247 108.06 135.5C108.3 135.747 108.583 135.933 108.91 136.06C109.243 136.18 109.61 136.24 110.01 136.24C110.41 136.24 110.753 136.193 111.04 136.1C111.333 136.007 111.587 135.903 111.8 135.79C112.02 135.677 112.21 135.573 112.37 135.48C112.537 135.387 112.697 135.34 112.85 135.34C113.057 135.34 113.21 135.417 113.31 135.57L114.02 136.47C113.747 136.79 113.44 137.06 113.1 137.28C112.76 137.493 112.403 137.667 112.03 137.8C111.663 137.927 111.287 138.017 110.9 138.07C110.52 138.123 110.15 138.15 109.79 138.15C109.077 138.15 108.413 138.033 107.8 137.8C107.187 137.56 106.653 137.21 106.2 136.75C105.747 136.283 105.39 135.71 105.13 135.03C104.87 134.343 104.74 133.55 104.74 132.65C104.74 131.95 104.853 131.293 105.08 130.68C105.307 130.06 105.63 129.523 106.05 129.07C106.477 128.61 106.993 128.247 107.6 127.98C108.213 127.713 108.903 127.58 109.67 127.58C110.317 127.58 110.913 127.683 111.46 127.89C112.007 128.097 112.477 128.4 112.87 128.8C113.263 129.193 113.57 129.68 113.79 130.26C114.017 130.833 114.13 131.49 114.13 132.23C114.13 132.603 114.09 132.857 114.01 132.99C113.93 133.117 113.777 133.18 113.55 133.18H107.2ZM122.244 129.74C122.177 129.847 122.107 129.923 122.034 129.97C121.96 130.01 121.867 130.03 121.754 130.03C121.634 130.03 121.504 129.997 121.364 129.93C121.23 129.863 121.074 129.79 120.894 129.71C120.714 129.623 120.507 129.547 120.274 129.48C120.047 129.413 119.777 129.38 119.464 129.38C118.977 129.38 118.594 129.483 118.314 129.69C118.04 129.897 117.904 130.167 117.904 130.5C117.904 130.72 117.974 130.907 118.114 131.06C118.26 131.207 118.45 131.337 118.684 131.45C118.924 131.563 119.194 131.667 119.494 131.76C119.794 131.847 120.097 131.943 120.404 132.05C120.717 132.157 121.024 132.28 121.324 132.42C121.624 132.553 121.89 132.727 122.124 132.94C122.364 133.147 122.554 133.397 122.694 133.69C122.84 133.983 122.914 134.337 122.914 134.75C122.914 135.243 122.824 135.7 122.644 136.12C122.47 136.533 122.21 136.893 121.864 137.2C121.517 137.5 121.087 137.737 120.574 137.91C120.067 138.077 119.48 138.16 118.814 138.16C118.46 138.16 118.114 138.127 117.774 138.06C117.44 138 117.117 137.913 116.804 137.8C116.497 137.687 116.21 137.553 115.944 137.4C115.684 137.247 115.454 137.08 115.254 136.9L115.824 135.96C115.897 135.847 115.984 135.76 116.084 135.7C116.184 135.64 116.31 135.61 116.464 135.61C116.617 135.61 116.76 135.653 116.894 135.74C117.034 135.827 117.194 135.92 117.374 136.02C117.554 136.12 117.764 136.213 118.004 136.3C118.25 136.387 118.56 136.43 118.934 136.43C119.227 136.43 119.477 136.397 119.684 136.33C119.897 136.257 120.07 136.163 120.204 136.05C120.344 135.937 120.444 135.807 120.504 135.66C120.57 135.507 120.604 135.35 120.604 135.19C120.604 134.95 120.53 134.753 120.384 134.6C120.244 134.447 120.054 134.313 119.814 134.2C119.58 134.087 119.31 133.987 119.004 133.9C118.704 133.807 118.394 133.707 118.074 133.6C117.76 133.493 117.45 133.37 117.144 133.23C116.844 133.083 116.574 132.9 116.334 132.68C116.1 132.46 115.91 132.19 115.764 131.87C115.624 131.55 115.554 131.163 115.554 130.71C115.554 130.29 115.637 129.89 115.804 129.51C115.97 129.13 116.214 128.8 116.534 128.52C116.86 128.233 117.264 128.007 117.744 127.84C118.23 127.667 118.79 127.58 119.424 127.58C120.13 127.58 120.774 127.697 121.354 127.93C121.934 128.163 122.417 128.47 122.804 128.85L122.244 129.74Z" fill="#1B4596"/>
</g>
<defs>
<radialGradient id="paint0_radial" cx="0" cy="0" r="1" gradientUnits="userSpaceOnUse" gradientTransform="translate(180.5 215.5) rotate(-124.885) scale(285.871 263.797)">
<stop stop-color="#078E9E"/>
<stop offset="0.992686" stop-color="#6EDCE3"/>
</radialGradient>
<clipPath id="clip0">
<rect width="200" height="200" fill="white"/>
</clipPath>
</defs>
</svg>
