<svg width="200" height="200" viewBox="0 0 200 200" fill="none" xmlns="http://www.w3.org/2000/svg">
<g clip-path="url(#clip0)">
<path d="M200 0H0V200H200V0Z" fill="url(#paint0_radial)"/>
<path d="M24.9106 20.925L17.6106 39H14.5731L7.27314 20.925H9.97314C10.2648 20.925 10.5023 20.9958 10.6856 21.1375C10.869 21.2792 11.0065 21.4625 11.0981 21.6875L15.3606 32.7125C15.5023 33.0708 15.6356 33.4667 15.7606 33.9C15.894 34.325 16.019 34.7708 16.1356 35.2375C16.2356 34.7708 16.344 34.325 16.4606 33.9C16.5773 33.4667 16.7065 33.0708 16.8481 32.7125L21.0856 21.6875C21.1523 21.4958 21.2815 21.3208 21.4731 21.1625C21.6731 21.0042 21.9148 20.925 22.1981 20.925H24.9106ZM29.494 26.175V39H26.394V26.175H29.494ZM29.919 22.4375C29.919 22.7042 29.8649 22.9542 29.7565 23.1875C29.6482 23.4208 29.5024 23.625 29.319 23.8C29.144 23.975 28.9357 24.1167 28.694 24.225C28.4524 24.325 28.194 24.375 27.919 24.375C27.6524 24.375 27.3982 24.325 27.1565 24.225C26.9232 24.1167 26.719 23.975 26.544 23.8C26.369 23.625 26.2274 23.4208 26.119 23.1875C26.019 22.9542 25.969 22.7042 25.969 22.4375C25.969 22.1625 26.019 21.9042 26.119 21.6625C26.2274 21.4208 26.369 21.2125 26.544 21.0375C26.719 20.8625 26.9232 20.725 27.1565 20.625C27.3982 20.5167 27.6524 20.4625 27.919 20.4625C28.194 20.4625 28.4524 20.5167 28.694 20.625C28.9357 20.725 29.144 20.8625 29.319 21.0375C29.5024 21.2125 29.6482 21.4208 29.7565 21.6625C29.8649 21.9042 29.919 22.1625 29.919 22.4375ZM40.6917 29.45C40.3417 29.025 39.9584 28.725 39.5417 28.55C39.1334 28.375 38.6917 28.2875 38.2167 28.2875C37.75 28.2875 37.3292 28.375 36.9542 28.55C36.5792 28.725 36.2584 28.9917 35.9917 29.35C35.725 29.7 35.5209 30.15 35.3792 30.7C35.2375 31.2417 35.1667 31.8833 35.1667 32.625C35.1667 33.375 35.225 34.0125 35.3417 34.5375C35.4667 35.0542 35.6417 35.4792 35.8667 35.8125C36.0917 36.1375 36.3667 36.375 36.6917 36.525C37.0167 36.6667 37.3792 36.7375 37.7792 36.7375C38.4209 36.7375 38.9667 36.6042 39.4167 36.3375C39.8667 36.0708 40.2917 35.6917 40.6917 35.2V29.45ZM43.7792 20.425V39H41.8917C41.4834 39 41.225 38.8125 41.1167 38.4375L40.8542 37.2C40.3375 37.7917 39.7417 38.2708 39.0667 38.6375C38.4 39.0042 37.6209 39.1875 36.7292 39.1875C36.0292 39.1875 35.3875 39.0417 34.8042 38.75C34.2209 38.4583 33.7167 38.0375 33.2917 37.4875C32.875 36.9292 32.55 36.2417 32.3167 35.425C32.0917 34.6083 31.9792 33.675 31.9792 32.625C31.9792 31.675 32.1084 30.7917 32.3667 29.975C32.625 29.1583 32.9959 28.45 33.4792 27.85C33.9625 27.25 34.5417 26.7833 35.2167 26.45C35.8917 26.1083 36.65 25.9375 37.4917 25.9375C38.2084 25.9375 38.8209 26.05 39.3292 26.275C39.8375 26.5 40.2917 26.8042 40.6917 27.1875V20.425H43.7792ZM55.0888 31.1125C55.0888 30.7125 55.0304 30.3375 54.9138 29.9875C54.8054 29.6292 54.6388 29.3167 54.4138 29.05C54.1888 28.7833 53.9013 28.575 53.5513 28.425C53.2096 28.2667 52.8096 28.1875 52.3513 28.1875C51.4596 28.1875 50.7554 28.4417 50.2388 28.95C49.7304 29.4583 49.4054 30.1792 49.2638 31.1125H55.0888ZM49.2013 32.975C49.2513 33.6333 49.3679 34.2042 49.5513 34.6875C49.7346 35.1625 49.9763 35.5583 50.2763 35.875C50.5763 36.1833 50.9304 36.4167 51.3388 36.575C51.7554 36.725 52.2138 36.8 52.7138 36.8C53.2138 36.8 53.6429 36.7417 54.0013 36.625C54.3679 36.5083 54.6846 36.3792 54.9513 36.2375C55.2263 36.0958 55.4638 35.9667 55.6638 35.85C55.8721 35.7333 56.0721 35.675 56.2638 35.675C56.5221 35.675 56.7138 35.7708 56.8388 35.9625L57.7263 37.0875C57.3846 37.4875 57.0013 37.825 56.5763 38.1C56.1513 38.3667 55.7054 38.5833 55.2388 38.75C54.7804 38.9083 54.3096 39.0208 53.8263 39.0875C53.3513 39.1542 52.8888 39.1875 52.4388 39.1875C51.5471 39.1875 50.7179 39.0417 49.9513 38.75C49.1846 38.45 48.5179 38.0125 47.9513 37.4375C47.3846 36.8542 46.9388 36.1375 46.6138 35.2875C46.2888 34.4292 46.1263 33.4375 46.1263 32.3125C46.1263 31.4375 46.2679 30.6167 46.5513 29.85C46.8346 29.075 47.2388 28.4042 47.7638 27.8375C48.2971 27.2625 48.9429 26.8083 49.7013 26.475C50.4679 26.1417 51.3304 25.975 52.2888 25.975C53.0971 25.975 53.8429 26.1042 54.5263 26.3625C55.2096 26.6208 55.7971 27 56.2888 27.5C56.7804 27.9917 57.1638 28.6 57.4388 29.325C57.7221 30.0417 57.8638 30.8625 57.8638 31.7875C57.8638 32.2542 57.8138 32.5708 57.7138 32.7375C57.6138 32.8958 57.4221 32.975 57.1388 32.975H49.2013ZM65.8558 25.975C66.8058 25.975 67.6683 26.1292 68.4433 26.4375C69.2266 26.7458 69.8933 27.1833 70.4433 27.75C71.0016 28.3167 71.4308 29.0083 71.7308 29.825C72.0308 30.6417 72.1808 31.5542 72.1808 32.5625C72.1808 33.5792 72.0308 34.4958 71.7308 35.3125C71.4308 36.1292 71.0016 36.825 70.4433 37.4C69.8933 37.975 69.2266 38.4167 68.4433 38.725C67.6683 39.0333 66.8058 39.1875 65.8558 39.1875C64.8974 39.1875 64.0266 39.0333 63.2433 38.725C62.4599 38.4167 61.7891 37.975 61.2308 37.4C60.6808 36.825 60.2516 36.1292 59.9433 35.3125C59.6433 34.4958 59.4933 33.5792 59.4933 32.5625C59.4933 31.5542 59.6433 30.6417 59.9433 29.825C60.2516 29.0083 60.6808 28.3167 61.2308 27.75C61.7891 27.1833 62.4599 26.7458 63.2433 26.4375C64.0266 26.1292 64.8974 25.975 65.8558 25.975ZM65.8558 36.8125C66.9224 36.8125 67.7099 36.4542 68.2183 35.7375C68.7349 35.0208 68.9933 33.9708 68.9933 32.5875C68.9933 31.2042 68.7349 30.15 68.2183 29.425C67.7099 28.7 66.9224 28.3375 65.8558 28.3375C64.7724 28.3375 63.9683 28.7042 63.4433 29.4375C62.9266 30.1625 62.6683 31.2125 62.6683 32.5875C62.6683 33.9625 62.9266 35.0125 63.4433 35.7375C63.9683 36.4542 64.7724 36.8125 65.8558 36.8125ZM90.7278 24.2125C90.6278 24.3875 90.5195 24.5167 90.4028 24.6C90.2945 24.675 90.157 24.7125 89.9903 24.7125C89.8153 24.7125 89.6237 24.65 89.4153 24.525C89.2153 24.3917 88.9737 24.2458 88.6903 24.0875C88.407 23.9292 88.0737 23.7875 87.6903 23.6625C87.3153 23.5292 86.8695 23.4625 86.3528 23.4625C85.8862 23.4625 85.4778 23.5208 85.1278 23.6375C84.7778 23.7458 84.482 23.9 84.2403 24.1C84.007 24.3 83.832 24.5417 83.7153 24.825C83.5987 25.1 83.5403 25.4042 83.5403 25.7375C83.5403 26.1625 83.657 26.5167 83.8903 26.8C84.132 27.0833 84.4487 27.325 84.8403 27.525C85.232 27.725 85.6778 27.9042 86.1778 28.0625C86.6778 28.2208 87.1903 28.3917 87.7153 28.575C88.2403 28.75 88.7528 28.9583 89.2528 29.2C89.7528 29.4333 90.1987 29.7333 90.5903 30.1C90.982 30.4583 91.2945 30.9 91.5278 31.425C91.7695 31.95 91.8903 32.5875 91.8903 33.3375C91.8903 34.1542 91.7487 34.9208 91.4653 35.6375C91.1903 36.3458 90.782 36.9667 90.2403 37.5C89.707 38.025 89.0528 38.4417 88.2778 38.75C87.5028 39.05 86.6153 39.2 85.6153 39.2C85.0403 39.2 84.4737 39.1417 83.9153 39.025C83.357 38.9167 82.8195 38.7583 82.3028 38.55C81.7945 38.3417 81.3153 38.0917 80.8653 37.8C80.4153 37.5083 80.0153 37.1833 79.6653 36.825L80.6528 35.2125C80.7362 35.0958 80.8445 35 80.9778 34.925C81.1112 34.8417 81.2528 34.8 81.4028 34.8C81.6112 34.8 81.8362 34.8875 82.0778 35.0625C82.3195 35.2292 82.607 35.4167 82.9403 35.625C83.2737 35.8333 83.6612 36.025 84.1028 36.2C84.5528 36.3667 85.0903 36.45 85.7153 36.45C86.6737 36.45 87.4153 36.225 87.9403 35.775C88.4653 35.3167 88.7278 34.6625 88.7278 33.8125C88.7278 33.3375 88.607 32.95 88.3653 32.65C88.132 32.35 87.8195 32.1 87.4278 31.9C87.0362 31.6917 86.5903 31.5167 86.0903 31.375C85.5903 31.2333 85.082 31.0792 84.5653 30.9125C84.0487 30.7458 83.5403 30.5458 83.0403 30.3125C82.5403 30.0792 82.0945 29.775 81.7028 29.4C81.3112 29.025 80.9945 28.5583 80.7528 28C80.5195 27.4333 80.4028 26.7375 80.4028 25.9125C80.4028 25.2542 80.532 24.6125 80.7903 23.9875C81.057 23.3625 81.4403 22.8083 81.9403 22.325C82.4403 21.8417 83.057 21.4542 83.7903 21.1625C84.5237 20.8708 85.3653 20.725 86.3153 20.725C87.382 20.725 88.3653 20.8917 89.2653 21.225C90.1653 21.5583 90.932 22.025 91.5653 22.625L90.7278 24.2125ZM97.4872 26.175V39H94.3872V26.175H97.4872ZM97.9122 22.4375C97.9122 22.7042 97.858 22.9542 97.7497 23.1875C97.6414 23.4208 97.4955 23.625 97.3122 23.8C97.1372 23.975 96.9289 24.1167 96.6872 24.225C96.4455 24.325 96.1872 24.375 95.9122 24.375C95.6455 24.375 95.3914 24.325 95.1497 24.225C94.9164 24.1167 94.7122 23.975 94.5372 23.8C94.3622 23.625 94.2205 23.4208 94.1122 23.1875C94.0122 22.9542 93.9622 22.7042 93.9622 22.4375C93.9622 22.1625 94.0122 21.9042 94.1122 21.6625C94.2205 21.4208 94.3622 21.2125 94.5372 21.0375C94.7122 20.8625 94.9164 20.725 95.1497 20.625C95.3914 20.5167 95.6455 20.4625 95.9122 20.4625C96.1872 20.4625 96.4455 20.5167 96.6872 20.625C96.9289 20.725 97.1372 20.8625 97.3122 21.0375C97.4955 21.2125 97.6414 21.4208 97.7497 21.6625C97.858 21.9042 97.9122 22.1625 97.9122 22.4375ZM104.91 39.2C103.793 39.2 102.935 38.8875 102.335 38.2625C101.743 37.6292 101.447 36.7583 101.447 35.65V28.4875H100.135C99.9682 28.4875 99.8265 28.4333 99.7099 28.325C99.5932 28.2167 99.5349 28.0542 99.5349 27.8375V26.6125L101.597 26.275L102.247 22.775C102.289 22.6083 102.368 22.4792 102.485 22.3875C102.602 22.2958 102.752 22.25 102.935 22.25H104.535V26.2875H107.96V28.4875H104.535V35.4375C104.535 35.8375 104.631 36.15 104.822 36.375C105.022 36.6 105.293 36.7125 105.635 36.7125C105.827 36.7125 105.985 36.6917 106.11 36.65C106.243 36.6 106.356 36.55 106.447 36.5C106.547 36.45 106.635 36.4042 106.71 36.3625C106.785 36.3125 106.86 36.2875 106.935 36.2875C107.027 36.2875 107.102 36.3125 107.16 36.3625C107.218 36.4042 107.281 36.4708 107.347 36.5625L108.272 38.0625C107.822 38.4375 107.306 38.7208 106.722 38.9125C106.139 39.1042 105.535 39.2 104.91 39.2ZM120.987 26.175V39H119.099C118.691 39 118.432 38.8125 118.324 38.4375L118.112 37.4125C117.587 37.9458 117.007 38.3792 116.374 38.7125C115.741 39.0375 114.995 39.2 114.137 39.2C113.437 39.2 112.816 39.0833 112.274 38.85C111.741 38.6083 111.291 38.2708 110.924 37.8375C110.557 37.4042 110.278 36.8917 110.087 36.3C109.903 35.7 109.812 35.0417 109.812 34.325V26.175H112.899V34.325C112.899 35.1083 113.078 35.7167 113.437 36.15C113.803 36.575 114.349 36.7875 115.074 36.7875C115.607 36.7875 116.107 36.6708 116.574 36.4375C117.041 36.1958 117.482 35.8667 117.899 35.45V26.175H120.987ZM130.823 33.525C129.931 33.5667 129.181 33.6458 128.573 33.7625C127.965 33.8708 127.477 34.0125 127.11 34.1875C126.744 34.3625 126.481 34.5667 126.323 34.8C126.165 35.0333 126.085 35.2875 126.085 35.5625C126.085 36.1042 126.244 36.4917 126.56 36.725C126.885 36.9583 127.306 37.075 127.823 37.075C128.456 37.075 129.002 36.9625 129.46 36.7375C129.927 36.5042 130.381 36.1542 130.823 35.6875V33.525ZM123.748 27.9625C125.223 26.6125 126.998 25.9375 129.073 25.9375C129.823 25.9375 130.494 26.0625 131.085 26.3125C131.677 26.5542 132.177 26.8958 132.585 27.3375C132.994 27.7708 133.302 28.2917 133.51 28.9C133.727 29.5083 133.835 30.175 133.835 30.9V39H132.435C132.144 39 131.919 38.9583 131.76 38.875C131.602 38.7833 131.477 38.6042 131.385 38.3375L131.11 37.4125C130.785 37.7042 130.469 37.9625 130.16 38.1875C129.852 38.4042 129.531 38.5875 129.198 38.7375C128.865 38.8875 128.506 39 128.123 39.075C127.748 39.1583 127.331 39.2 126.873 39.2C126.331 39.2 125.831 39.1292 125.373 38.9875C124.915 38.8375 124.519 38.6167 124.185 38.325C123.852 38.0333 123.594 37.6708 123.41 37.2375C123.227 36.8042 123.135 36.3 123.135 35.725C123.135 35.4 123.19 35.0792 123.298 34.7625C123.406 34.4375 123.581 34.1292 123.823 33.8375C124.073 33.5458 124.394 33.2708 124.785 33.0125C125.177 32.7542 125.656 32.5292 126.223 32.3375C126.798 32.1458 127.465 31.9917 128.223 31.875C128.981 31.75 129.848 31.675 130.823 31.65V30.9C130.823 30.0417 130.64 29.4083 130.273 29C129.906 28.5833 129.377 28.375 128.685 28.375C128.185 28.375 127.769 28.4333 127.435 28.55C127.11 28.6667 126.823 28.8 126.573 28.95C126.323 29.0917 126.094 29.2208 125.885 29.3375C125.685 29.4542 125.46 29.5125 125.21 29.5125C124.994 29.5125 124.81 29.4583 124.66 29.35C124.51 29.2333 124.39 29.1 124.298 28.95L123.748 27.9625ZM149.51 39H146.422V28.4875H140.472V35.4375C140.472 35.8375 140.568 36.15 140.76 36.375C140.96 36.6 141.231 36.7125 141.572 36.7125C141.764 36.7125 141.922 36.6917 142.047 36.65C142.181 36.6 142.293 36.55 142.385 36.5C142.485 36.45 142.572 36.4042 142.647 36.3625C142.722 36.3125 142.797 36.2875 142.872 36.2875C142.964 36.2875 143.039 36.3125 143.097 36.3625C143.156 36.4042 143.218 36.4708 143.285 36.5625L144.21 38.0625C143.76 38.4375 143.243 38.7208 142.66 38.9125C142.077 39.1042 141.472 39.2 140.847 39.2C139.731 39.2 138.872 38.8875 138.272 38.2625C137.681 37.6292 137.385 36.7583 137.385 35.65V28.4875H136.072C135.906 28.4875 135.764 28.4333 135.647 28.325C135.531 28.2167 135.472 28.0542 135.472 27.8375V26.6125L137.535 26.2625L138.185 22.775C138.227 22.6083 138.306 22.4792 138.422 22.3875C138.539 22.2958 138.689 22.25 138.872 22.25H140.472V26.2875H149.51V39ZM150.047 22.3875C150.047 22.6542 149.993 22.9083 149.885 23.15C149.777 23.3833 149.631 23.5875 149.447 23.7625C149.272 23.9375 149.06 24.0792 148.81 24.1875C148.568 24.2875 148.31 24.3375 148.035 24.3375C147.768 24.3375 147.518 24.2875 147.285 24.1875C147.052 24.0792 146.847 23.9375 146.672 23.7625C146.497 23.5875 146.356 23.3833 146.247 23.15C146.147 22.9083 146.097 22.6542 146.097 22.3875C146.097 22.1125 146.147 21.8583 146.247 21.625C146.356 21.3833 146.497 21.175 146.672 21C146.847 20.8167 147.052 20.675 147.285 20.575C147.518 20.4667 147.768 20.4125 148.035 20.4125C148.31 20.4125 148.568 20.4667 148.81 20.575C149.06 20.675 149.272 20.8167 149.447 21C149.631 21.175 149.777 21.3833 149.885 21.625C149.993 21.8583 150.047 22.1125 150.047 22.3875ZM158.336 25.975C159.286 25.975 160.149 26.1292 160.924 26.4375C161.707 26.7458 162.374 27.1833 162.924 27.75C163.482 28.3167 163.911 29.0083 164.211 29.825C164.511 30.6417 164.661 31.5542 164.661 32.5625C164.661 33.5792 164.511 34.4958 164.211 35.3125C163.911 36.1292 163.482 36.825 162.924 37.4C162.374 37.975 161.707 38.4167 160.924 38.725C160.149 39.0333 159.286 39.1875 158.336 39.1875C157.378 39.1875 156.507 39.0333 155.724 38.725C154.94 38.4167 154.27 37.975 153.711 37.4C153.161 36.825 152.732 36.1292 152.424 35.3125C152.124 34.4958 151.974 33.5792 151.974 32.5625C151.974 31.5542 152.124 30.6417 152.424 29.825C152.732 29.0083 153.161 28.3167 153.711 27.75C154.27 27.1833 154.94 26.7458 155.724 26.4375C156.507 26.1292 157.378 25.975 158.336 25.975ZM158.336 36.8125C159.403 36.8125 160.19 36.4542 160.699 35.7375C161.215 35.0208 161.474 33.9708 161.474 32.5875C161.474 31.2042 161.215 30.15 160.699 29.425C160.19 28.7 159.403 28.3375 158.336 28.3375C157.253 28.3375 156.449 28.7042 155.924 29.4375C155.407 30.1625 155.149 31.2125 155.149 32.5875C155.149 33.9625 155.407 35.0125 155.924 35.7375C156.449 36.4542 157.253 36.8125 158.336 36.8125ZM169.904 27.75C170.163 27.4917 170.433 27.2542 170.717 27.0375C171.008 26.8125 171.313 26.625 171.629 26.475C171.954 26.3167 172.3 26.1958 172.667 26.1125C173.033 26.0208 173.433 25.975 173.867 25.975C174.567 25.975 175.188 26.0958 175.729 26.3375C176.271 26.5708 176.721 26.9042 177.079 27.3375C177.446 27.7625 177.721 28.275 177.904 28.875C178.096 29.4667 178.192 30.1208 178.192 30.8375V39H175.104V30.8375C175.104 30.0542 174.925 29.45 174.567 29.025C174.208 28.5917 173.663 28.375 172.929 28.375C172.396 28.375 171.896 28.4958 171.429 28.7375C170.963 28.9792 170.521 29.3083 170.104 29.725V39H167.017V26.175H168.904C169.304 26.175 169.567 26.3625 169.692 26.7375L169.904 27.75ZM188.953 28.675C188.87 28.8083 188.782 28.9042 188.691 28.9625C188.599 29.0125 188.482 29.0375 188.341 29.0375C188.191 29.0375 188.028 28.9958 187.853 28.9125C187.686 28.8292 187.491 28.7375 187.266 28.6375C187.041 28.5292 186.782 28.4333 186.491 28.35C186.207 28.2667 185.87 28.225 185.478 28.225C184.87 28.225 184.391 28.3542 184.041 28.6125C183.699 28.8708 183.528 29.2083 183.528 29.625C183.528 29.9 183.616 30.1333 183.791 30.325C183.974 30.5083 184.211 30.6708 184.503 30.8125C184.803 30.9542 185.141 31.0833 185.516 31.2C185.891 31.3083 186.27 31.4292 186.653 31.5625C187.045 31.6958 187.428 31.85 187.803 32.025C188.178 32.1917 188.511 32.4083 188.803 32.675C189.103 32.9333 189.341 33.2458 189.516 33.6125C189.699 33.9792 189.791 34.4208 189.791 34.9375C189.791 35.5542 189.678 36.125 189.453 36.65C189.236 37.1667 188.911 37.6167 188.478 38C188.045 38.375 187.507 38.6708 186.866 38.8875C186.232 39.0958 185.499 39.2 184.666 39.2C184.224 39.2 183.791 39.1583 183.366 39.075C182.949 39 182.545 38.8917 182.153 38.75C181.77 38.6083 181.411 38.4417 181.078 38.25C180.753 38.0583 180.466 37.85 180.216 37.625L180.928 36.45C181.02 36.3083 181.128 36.2 181.253 36.125C181.378 36.05 181.536 36.0125 181.728 36.0125C181.92 36.0125 182.099 36.0667 182.266 36.175C182.441 36.2833 182.641 36.4 182.866 36.525C183.091 36.65 183.353 36.7667 183.653 36.875C183.961 36.9833 184.349 37.0375 184.816 37.0375C185.182 37.0375 185.495 36.9958 185.753 36.9125C186.02 36.8208 186.236 36.7042 186.403 36.5625C186.578 36.4208 186.703 36.2583 186.778 36.075C186.861 35.8833 186.903 35.6875 186.903 35.4875C186.903 35.1875 186.811 34.9417 186.628 34.75C186.453 34.5583 186.216 34.3917 185.916 34.25C185.624 34.1083 185.286 33.9833 184.903 33.875C184.528 33.7583 184.141 33.6333 183.741 33.5C183.349 33.3667 182.961 33.2125 182.578 33.0375C182.203 32.8542 181.866 32.625 181.566 32.35C181.274 32.075 181.036 31.7375 180.853 31.3375C180.678 30.9375 180.591 30.4542 180.591 29.8875C180.591 29.3625 180.695 28.8625 180.903 28.3875C181.111 27.9125 181.416 27.5 181.816 27.15C182.224 26.7917 182.728 26.5083 183.328 26.3C183.936 26.0833 184.636 25.975 185.428 25.975C186.311 25.975 187.116 26.1208 187.841 26.4125C188.566 26.7042 189.17 27.0875 189.653 27.5625L188.953 28.675Z" fill="#1B4596"/>
<rect x="-20" y="82" width="228" height="79" fill="#E0F9FF"/>
<path d="M257.132 56.1201H236.181H215.23H194.279H173.328H152.377H131.426H110.475H89.5245H68.5736H47.6227H26.6717H5.72083H-15.2301H-36.181H-57.1319C-60.2745 56.1201 -62.3696 58.2208 -62.3696 61.3718V82.3785V161.153V182.16C-62.3696 185.311 -60.2745 187.412 -57.1319 187.412H-36.181H-15.2301H5.72083H26.6717H47.6227H68.5736H89.5245H110.475H131.426H152.377H173.328H194.279H215.23H236.181H257.132C260.274 187.412 262.369 185.311 262.369 182.16V161.153V82.3785V61.3718C262.369 58.2208 260.274 56.1201 257.132 56.1201ZM10.9586 66.6235H21.434V77.1268H10.9586V66.6235ZM-9.99235 66.6235H0.483101V77.1268H-9.99235V66.6235ZM-30.9433 66.6235H-20.4678V77.1268H-30.9433V66.6235ZM-51.8942 66.6235H-41.4187V77.1268H-51.8942V66.6235ZM-41.4187 176.908H-51.8942V166.405H-41.4187V176.908ZM-20.4678 176.908H-30.9433V166.405H-20.4678V176.908ZM0.483101 176.908H-9.99235V166.405H0.483101V176.908ZM21.434 176.908H10.9586V166.405H21.434V176.908ZM42.3849 176.908H31.9095V166.405H42.3849V176.908ZM42.3849 155.902H26.6717H5.72083H-15.2301H-36.181H-51.8942V87.6301H-36.181H-15.2301H5.72083H26.6717H42.3849V155.902ZM42.3849 77.1268H31.9095V66.6235H42.3849V77.1268ZM115.713 66.6235H126.189V77.1268H115.713V66.6235ZM94.7622 66.6235H105.238V77.1268H94.7622V66.6235ZM73.8113 66.6235H84.2867V77.1268H73.8113V66.6235ZM52.8604 66.6235H63.3358V77.1268H52.8604V66.6235ZM63.3358 176.908H52.8604V166.405H63.3358V176.908ZM84.2867 176.908H73.8113V166.405H84.2867V176.908ZM105.238 176.908H94.7622V166.405H105.238V176.908ZM126.189 176.908H115.713V166.405H126.189V176.908ZM147.139 176.908H136.664V166.405H147.139V176.908ZM147.139 155.902H131.426H110.475H89.5245H68.5736H52.8604V87.6301H68.5736H89.5245H110.475H131.426H147.139V155.902ZM147.139 77.1268H136.664V66.6235H147.139V77.1268ZM220.468 66.6235H230.943V77.1268H220.468V66.6235ZM199.517 66.6235H209.992V77.1268H199.517V66.6235ZM178.566 66.6235H189.041V77.1268H178.566V66.6235ZM157.615 66.6235H168.09V77.1268H157.615V66.6235ZM168.09 176.908H157.615V166.405H168.09V176.908ZM189.041 176.908H178.566V166.405H189.041V176.908ZM209.992 176.908H199.517V166.405H209.992V176.908ZM230.943 176.908H220.468V166.405H230.943V176.908ZM251.894 176.908H241.419V166.405H251.894V176.908ZM251.894 155.902H236.181H215.23H194.279H173.328H157.615V87.6301H173.328H194.279H215.23H236.181H251.894V155.902ZM251.894 77.1268H241.419V66.6235H251.894V77.1268Z" fill="#1D3D7E"/>
<path d="M88.207 114.54L82.367 129H79.937L74.097 114.54H76.257C76.4904 114.54 76.6804 114.597 76.827 114.71C76.9737 114.823 77.0837 114.97 77.157 115.15L80.567 123.97C80.6804 124.257 80.787 124.573 80.887 124.92C80.9937 125.26 81.0937 125.617 81.187 125.99C81.267 125.617 81.3537 125.26 81.447 124.92C81.5404 124.573 81.6437 124.257 81.757 123.97L85.147 115.15C85.2004 114.997 85.3037 114.857 85.457 114.73C85.617 114.603 85.8104 114.54 86.037 114.54H88.207ZM94.3417 122.69C94.3417 122.37 94.2951 122.07 94.2017 121.79C94.1151 121.503 93.9817 121.253 93.8017 121.04C93.6217 120.827 93.3917 120.66 93.1117 120.54C92.8384 120.413 92.5184 120.35 92.1517 120.35C91.4384 120.35 90.8751 120.553 90.4617 120.96C90.0551 121.367 89.7951 121.943 89.6817 122.69H94.3417ZM89.6317 124.18C89.6717 124.707 89.7651 125.163 89.9117 125.55C90.0584 125.93 90.2517 126.247 90.4917 126.5C90.7317 126.747 91.0151 126.933 91.3417 127.06C91.6751 127.18 92.0417 127.24 92.4417 127.24C92.8417 127.24 93.1851 127.193 93.4717 127.1C93.7651 127.007 94.0184 126.903 94.2317 126.79C94.4517 126.677 94.6417 126.573 94.8017 126.48C94.9684 126.387 95.1284 126.34 95.2817 126.34C95.4884 126.34 95.6417 126.417 95.7417 126.57L96.4517 127.47C96.1784 127.79 95.8717 128.06 95.5317 128.28C95.1917 128.493 94.8351 128.667 94.4617 128.8C94.0951 128.927 93.7184 129.017 93.3317 129.07C92.9517 129.123 92.5817 129.15 92.2217 129.15C91.5084 129.15 90.8451 129.033 90.2317 128.8C89.6184 128.56 89.0851 128.21 88.6317 127.75C88.1784 127.283 87.8217 126.71 87.5617 126.03C87.3017 125.343 87.1717 124.55 87.1717 123.65C87.1717 122.95 87.2851 122.293 87.5117 121.68C87.7384 121.06 88.0617 120.523 88.4817 120.07C88.9084 119.61 89.4251 119.247 90.0317 118.98C90.6451 118.713 91.3351 118.58 92.1017 118.58C92.7484 118.58 93.3451 118.683 93.8917 118.89C94.4384 119.097 94.9084 119.4 95.3017 119.8C95.6951 120.193 96.0017 120.68 96.2217 121.26C96.4484 121.833 96.5617 122.49 96.5617 123.23C96.5617 123.603 96.5217 123.857 96.4417 123.99C96.3617 124.117 96.2084 124.18 95.9817 124.18H89.6317ZM100.745 120.52C101.065 119.907 101.445 119.427 101.885 119.08C102.325 118.727 102.845 118.55 103.445 118.55C103.919 118.55 104.299 118.653 104.585 118.86L104.425 120.71C104.392 120.83 104.342 120.917 104.275 120.97C104.215 121.017 104.132 121.04 104.025 121.04C103.925 121.04 103.775 121.023 103.575 120.99C103.382 120.957 103.192 120.94 103.005 120.94C102.732 120.94 102.489 120.98 102.275 121.06C102.062 121.14 101.869 121.257 101.695 121.41C101.529 121.557 101.379 121.737 101.245 121.95C101.119 122.163 100.999 122.407 100.885 122.68V129H98.4153V118.74H99.8653C100.119 118.74 100.295 118.787 100.395 118.88C100.495 118.967 100.562 119.127 100.595 119.36L100.745 120.52ZM108.346 126.34C108.626 126.68 108.93 126.92 109.256 127.06C109.59 127.2 109.94 127.27 110.306 127.27C110.686 127.27 111.026 127.203 111.326 127.07C111.633 126.93 111.893 126.717 112.106 126.43C112.32 126.137 112.483 125.767 112.596 125.32C112.71 124.867 112.766 124.327 112.766 123.7C112.766 122.573 112.58 121.76 112.206 121.26C111.833 120.753 111.296 120.5 110.596 120.5C110.123 120.5 109.71 120.61 109.356 120.83C109.003 121.043 108.666 121.347 108.346 121.74V126.34ZM108.346 120C108.76 119.567 109.216 119.223 109.716 118.97C110.223 118.71 110.8 118.58 111.446 118.58C112.04 118.58 112.573 118.697 113.046 118.93C113.526 119.163 113.933 119.5 114.266 119.94C114.606 120.373 114.866 120.9 115.046 121.52C115.226 122.14 115.316 122.837 115.316 123.61C115.316 124.443 115.213 125.2 115.006 125.88C114.8 126.56 114.503 127.143 114.116 127.63C113.736 128.11 113.276 128.483 112.736 128.75C112.196 129.017 111.596 129.15 110.936 129.15C110.616 129.15 110.326 129.117 110.066 129.05C109.806 128.99 109.566 128.903 109.346 128.79C109.126 128.677 108.923 128.54 108.736 128.38C108.556 128.213 108.383 128.03 108.216 127.83L108.106 128.52C108.066 128.693 107.996 128.817 107.896 128.89C107.803 128.963 107.673 129 107.506 129H105.876V114.14H108.346V120ZM123.484 120.74C123.417 120.847 123.347 120.923 123.274 120.97C123.201 121.01 123.107 121.03 122.994 121.03C122.874 121.03 122.744 120.997 122.604 120.93C122.471 120.863 122.314 120.79 122.134 120.71C121.954 120.623 121.747 120.547 121.514 120.48C121.287 120.413 121.017 120.38 120.704 120.38C120.217 120.38 119.834 120.483 119.554 120.69C119.281 120.897 119.144 121.167 119.144 121.5C119.144 121.72 119.214 121.907 119.354 122.06C119.501 122.207 119.691 122.337 119.924 122.45C120.164 122.563 120.434 122.667 120.734 122.76C121.034 122.847 121.337 122.943 121.644 123.05C121.957 123.157 122.264 123.28 122.564 123.42C122.864 123.553 123.131 123.727 123.364 123.94C123.604 124.147 123.794 124.397 123.934 124.69C124.081 124.983 124.154 125.337 124.154 125.75C124.154 126.243 124.064 126.7 123.884 127.12C123.711 127.533 123.451 127.893 123.104 128.2C122.757 128.5 122.327 128.737 121.814 128.91C121.307 129.077 120.721 129.16 120.054 129.16C119.701 129.16 119.354 129.127 119.014 129.06C118.681 129 118.357 128.913 118.044 128.8C117.737 128.687 117.451 128.553 117.184 128.4C116.924 128.247 116.694 128.08 116.494 127.9L117.064 126.96C117.137 126.847 117.224 126.76 117.324 126.7C117.424 126.64 117.551 126.61 117.704 126.61C117.857 126.61 118.001 126.653 118.134 126.74C118.274 126.827 118.434 126.92 118.614 127.02C118.794 127.12 119.004 127.213 119.244 127.3C119.491 127.387 119.801 127.43 120.174 127.43C120.467 127.43 120.717 127.397 120.924 127.33C121.137 127.257 121.311 127.163 121.444 127.05C121.584 126.937 121.684 126.807 121.744 126.66C121.811 126.507 121.844 126.35 121.844 126.19C121.844 125.95 121.771 125.753 121.624 125.6C121.484 125.447 121.294 125.313 121.054 125.2C120.821 125.087 120.551 124.987 120.244 124.9C119.944 124.807 119.634 124.707 119.314 124.6C119.001 124.493 118.691 124.37 118.384 124.23C118.084 124.083 117.814 123.9 117.574 123.68C117.341 123.46 117.151 123.19 117.004 122.87C116.864 122.55 116.794 122.163 116.794 121.71C116.794 121.29 116.877 120.89 117.044 120.51C117.211 120.13 117.454 119.8 117.774 119.52C118.101 119.233 118.504 119.007 118.984 118.84C119.471 118.667 120.031 118.58 120.664 118.58C121.371 118.58 122.014 118.697 122.594 118.93C123.174 119.163 123.657 119.47 124.044 119.85L123.484 120.74Z" fill="#1B4596"/>
</g>
<defs>
<radialGradient id="paint0_radial" cx="0" cy="0" r="1" gradientUnits="userSpaceOnUse" gradientTransform="translate(180.5 215.5) rotate(-124.885) scale(285.871 263.797)">
<stop stop-color="#078E9E"/>
<stop offset="0.992686" stop-color="#6EDCE3"/>
</radialGradient>
<clipPath id="clip0">
<rect width="200" height="200" fill="white"/>
</clipPath>
</defs>
</svg>
