<svg width="200" height="200" viewBox="0 0 200 200" fill="none" xmlns="http://www.w3.org/2000/svg">
<g clip-path="url(#clip0)">
<path d="M200 0H0V200H200V0Z" fill="url(#paint0_radial)"/>
<path d="M24.9106 20.925L17.6106 39H14.5731L7.27314 20.925H9.97314C10.2648 20.925 10.5023 20.9958 10.6856 21.1375C10.869 21.2792 11.0065 21.4625 11.0981 21.6875L15.3606 32.7125C15.5023 33.0708 15.6356 33.4667 15.7606 33.9C15.894 34.325 16.019 34.7708 16.1356 35.2375C16.2356 34.7708 16.344 34.325 16.4606 33.9C16.5773 33.4667 16.7065 33.0708 16.8481 32.7125L21.0856 21.6875C21.1523 21.4958 21.2815 21.3208 21.4731 21.1625C21.6731 21.0042 21.9148 20.925 22.1981 20.925H24.9106ZM29.494 26.175V39H26.394V26.175H29.494ZM29.919 22.4375C29.919 22.7042 29.8649 22.9542 29.7565 23.1875C29.6482 23.4208 29.5024 23.625 29.319 23.8C29.144 23.975 28.9357 24.1167 28.694 24.225C28.4524 24.325 28.194 24.375 27.919 24.375C27.6524 24.375 27.3982 24.325 27.1565 24.225C26.9232 24.1167 26.719 23.975 26.544 23.8C26.369 23.625 26.2274 23.4208 26.119 23.1875C26.019 22.9542 25.969 22.7042 25.969 22.4375C25.969 22.1625 26.019 21.9042 26.119 21.6625C26.2274 21.4208 26.369 21.2125 26.544 21.0375C26.719 20.8625 26.9232 20.725 27.1565 20.625C27.3982 20.5167 27.6524 20.4625 27.919 20.4625C28.194 20.4625 28.4524 20.5167 28.694 20.625C28.9357 20.725 29.144 20.8625 29.319 21.0375C29.5024 21.2125 29.6482 21.4208 29.7565 21.6625C29.8649 21.9042 29.919 22.1625 29.919 22.4375ZM40.6917 29.45C40.3417 29.025 39.9584 28.725 39.5417 28.55C39.1334 28.375 38.6917 28.2875 38.2167 28.2875C37.75 28.2875 37.3292 28.375 36.9542 28.55C36.5792 28.725 36.2584 28.9917 35.9917 29.35C35.725 29.7 35.5209 30.15 35.3792 30.7C35.2375 31.2417 35.1667 31.8833 35.1667 32.625C35.1667 33.375 35.225 34.0125 35.3417 34.5375C35.4667 35.0542 35.6417 35.4792 35.8667 35.8125C36.0917 36.1375 36.3667 36.375 36.6917 36.525C37.0167 36.6667 37.3792 36.7375 37.7792 36.7375C38.4209 36.7375 38.9667 36.6042 39.4167 36.3375C39.8667 36.0708 40.2917 35.6917 40.6917 35.2V29.45ZM43.7792 20.425V39H41.8917C41.4834 39 41.225 38.8125 41.1167 38.4375L40.8542 37.2C40.3375 37.7917 39.7417 38.2708 39.0667 38.6375C38.4 39.0042 37.6209 39.1875 36.7292 39.1875C36.0292 39.1875 35.3875 39.0417 34.8042 38.75C34.2209 38.4583 33.7167 38.0375 33.2917 37.4875C32.875 36.9292 32.55 36.2417 32.3167 35.425C32.0917 34.6083 31.9792 33.675 31.9792 32.625C31.9792 31.675 32.1084 30.7917 32.3667 29.975C32.625 29.1583 32.9959 28.45 33.4792 27.85C33.9625 27.25 34.5417 26.7833 35.2167 26.45C35.8917 26.1083 36.65 25.9375 37.4917 25.9375C38.2084 25.9375 38.8209 26.05 39.3292 26.275C39.8375 26.5 40.2917 26.8042 40.6917 27.1875V20.425H43.7792ZM55.0888 31.1125C55.0888 30.7125 55.0304 30.3375 54.9138 29.9875C54.8054 29.6292 54.6388 29.3167 54.4138 29.05C54.1888 28.7833 53.9013 28.575 53.5513 28.425C53.2096 28.2667 52.8096 28.1875 52.3513 28.1875C51.4596 28.1875 50.7554 28.4417 50.2388 28.95C49.7304 29.4583 49.4054 30.1792 49.2638 31.1125H55.0888ZM49.2013 32.975C49.2513 33.6333 49.3679 34.2042 49.5513 34.6875C49.7346 35.1625 49.9763 35.5583 50.2763 35.875C50.5763 36.1833 50.9304 36.4167 51.3388 36.575C51.7554 36.725 52.2138 36.8 52.7138 36.8C53.2138 36.8 53.6429 36.7417 54.0013 36.625C54.3679 36.5083 54.6846 36.3792 54.9513 36.2375C55.2263 36.0958 55.4638 35.9667 55.6638 35.85C55.8721 35.7333 56.0721 35.675 56.2638 35.675C56.5221 35.675 56.7138 35.7708 56.8388 35.9625L57.7263 37.0875C57.3846 37.4875 57.0013 37.825 56.5763 38.1C56.1513 38.3667 55.7054 38.5833 55.2388 38.75C54.7804 38.9083 54.3096 39.0208 53.8263 39.0875C53.3513 39.1542 52.8888 39.1875 52.4388 39.1875C51.5471 39.1875 50.7179 39.0417 49.9513 38.75C49.1846 38.45 48.5179 38.0125 47.9513 37.4375C47.3846 36.8542 46.9388 36.1375 46.6138 35.2875C46.2888 34.4292 46.1263 33.4375 46.1263 32.3125C46.1263 31.4375 46.2679 30.6167 46.5513 29.85C46.8346 29.075 47.2388 28.4042 47.7638 27.8375C48.2971 27.2625 48.9429 26.8083 49.7013 26.475C50.4679 26.1417 51.3304 25.975 52.2888 25.975C53.0971 25.975 53.8429 26.1042 54.5263 26.3625C55.2096 26.6208 55.7971 27 56.2888 27.5C56.7804 27.9917 57.1638 28.6 57.4388 29.325C57.7221 30.0417 57.8638 30.8625 57.8638 31.7875C57.8638 32.2542 57.8138 32.5708 57.7138 32.7375C57.6138 32.8958 57.4221 32.975 57.1388 32.975H49.2013ZM65.8558 25.975C66.8058 25.975 67.6683 26.1292 68.4433 26.4375C69.2266 26.7458 69.8933 27.1833 70.4433 27.75C71.0016 28.3167 71.4308 29.0083 71.7308 29.825C72.0308 30.6417 72.1808 31.5542 72.1808 32.5625C72.1808 33.5792 72.0308 34.4958 71.7308 35.3125C71.4308 36.1292 71.0016 36.825 70.4433 37.4C69.8933 37.975 69.2266 38.4167 68.4433 38.725C67.6683 39.0333 66.8058 39.1875 65.8558 39.1875C64.8974 39.1875 64.0266 39.0333 63.2433 38.725C62.4599 38.4167 61.7891 37.975 61.2308 37.4C60.6808 36.825 60.2516 36.1292 59.9433 35.3125C59.6433 34.4958 59.4933 33.5792 59.4933 32.5625C59.4933 31.5542 59.6433 30.6417 59.9433 29.825C60.2516 29.0083 60.6808 28.3167 61.2308 27.75C61.7891 27.1833 62.4599 26.7458 63.2433 26.4375C64.0266 26.1292 64.8974 25.975 65.8558 25.975ZM65.8558 36.8125C66.9224 36.8125 67.7099 36.4542 68.2183 35.7375C68.7349 35.0208 68.9933 33.9708 68.9933 32.5875C68.9933 31.2042 68.7349 30.15 68.2183 29.425C67.7099 28.7 66.9224 28.3375 65.8558 28.3375C64.7724 28.3375 63.9683 28.7042 63.4433 29.4375C62.9266 30.1625 62.6683 31.2125 62.6683 32.5875C62.6683 33.9625 62.9266 35.0125 63.4433 35.7375C63.9683 36.4542 64.7724 36.8125 65.8558 36.8125ZM90.7278 24.2125C90.6278 24.3875 90.5195 24.5167 90.4028 24.6C90.2945 24.675 90.157 24.7125 89.9903 24.7125C89.8153 24.7125 89.6237 24.65 89.4153 24.525C89.2153 24.3917 88.9737 24.2458 88.6903 24.0875C88.407 23.9292 88.0737 23.7875 87.6903 23.6625C87.3153 23.5292 86.8695 23.4625 86.3528 23.4625C85.8862 23.4625 85.4778 23.5208 85.1278 23.6375C84.7778 23.7458 84.482 23.9 84.2403 24.1C84.007 24.3 83.832 24.5417 83.7153 24.825C83.5987 25.1 83.5403 25.4042 83.5403 25.7375C83.5403 26.1625 83.657 26.5167 83.8903 26.8C84.132 27.0833 84.4487 27.325 84.8403 27.525C85.232 27.725 85.6778 27.9042 86.1778 28.0625C86.6778 28.2208 87.1903 28.3917 87.7153 28.575C88.2403 28.75 88.7528 28.9583 89.2528 29.2C89.7528 29.4333 90.1987 29.7333 90.5903 30.1C90.982 30.4583 91.2945 30.9 91.5278 31.425C91.7695 31.95 91.8903 32.5875 91.8903 33.3375C91.8903 34.1542 91.7487 34.9208 91.4653 35.6375C91.1903 36.3458 90.782 36.9667 90.2403 37.5C89.707 38.025 89.0528 38.4417 88.2778 38.75C87.5028 39.05 86.6153 39.2 85.6153 39.2C85.0403 39.2 84.4737 39.1417 83.9153 39.025C83.357 38.9167 82.8195 38.7583 82.3028 38.55C81.7945 38.3417 81.3153 38.0917 80.8653 37.8C80.4153 37.5083 80.0153 37.1833 79.6653 36.825L80.6528 35.2125C80.7362 35.0958 80.8445 35 80.9778 34.925C81.1112 34.8417 81.2528 34.8 81.4028 34.8C81.6112 34.8 81.8362 34.8875 82.0778 35.0625C82.3195 35.2292 82.607 35.4167 82.9403 35.625C83.2737 35.8333 83.6612 36.025 84.1028 36.2C84.5528 36.3667 85.0903 36.45 85.7153 36.45C86.6737 36.45 87.4153 36.225 87.9403 35.775C88.4653 35.3167 88.7278 34.6625 88.7278 33.8125C88.7278 33.3375 88.607 32.95 88.3653 32.65C88.132 32.35 87.8195 32.1 87.4278 31.9C87.0362 31.6917 86.5903 31.5167 86.0903 31.375C85.5903 31.2333 85.082 31.0792 84.5653 30.9125C84.0487 30.7458 83.5403 30.5458 83.0403 30.3125C82.5403 30.0792 82.0945 29.775 81.7028 29.4C81.3112 29.025 80.9945 28.5583 80.7528 28C80.5195 27.4333 80.4028 26.7375 80.4028 25.9125C80.4028 25.2542 80.532 24.6125 80.7903 23.9875C81.057 23.3625 81.4403 22.8083 81.9403 22.325C82.4403 21.8417 83.057 21.4542 83.7903 21.1625C84.5237 20.8708 85.3653 20.725 86.3153 20.725C87.382 20.725 88.3653 20.8917 89.2653 21.225C90.1653 21.5583 90.932 22.025 91.5653 22.625L90.7278 24.2125ZM97.4872 26.175V39H94.3872V26.175H97.4872ZM97.9122 22.4375C97.9122 22.7042 97.858 22.9542 97.7497 23.1875C97.6414 23.4208 97.4955 23.625 97.3122 23.8C97.1372 23.975 96.9289 24.1167 96.6872 24.225C96.4455 24.325 96.1872 24.375 95.9122 24.375C95.6455 24.375 95.3914 24.325 95.1497 24.225C94.9164 24.1167 94.7122 23.975 94.5372 23.8C94.3622 23.625 94.2205 23.4208 94.1122 23.1875C94.0122 22.9542 93.9622 22.7042 93.9622 22.4375C93.9622 22.1625 94.0122 21.9042 94.1122 21.6625C94.2205 21.4208 94.3622 21.2125 94.5372 21.0375C94.7122 20.8625 94.9164 20.725 95.1497 20.625C95.3914 20.5167 95.6455 20.4625 95.9122 20.4625C96.1872 20.4625 96.4455 20.5167 96.6872 20.625C96.9289 20.725 97.1372 20.8625 97.3122 21.0375C97.4955 21.2125 97.6414 21.4208 97.7497 21.6625C97.858 21.9042 97.9122 22.1625 97.9122 22.4375ZM104.91 39.2C103.793 39.2 102.935 38.8875 102.335 38.2625C101.743 37.6292 101.447 36.7583 101.447 35.65V28.4875H100.135C99.9682 28.4875 99.8265 28.4333 99.7099 28.325C99.5932 28.2167 99.5349 28.0542 99.5349 27.8375V26.6125L101.597 26.275L102.247 22.775C102.289 22.6083 102.368 22.4792 102.485 22.3875C102.602 22.2958 102.752 22.25 102.935 22.25H104.535V26.2875H107.96V28.4875H104.535V35.4375C104.535 35.8375 104.631 36.15 104.822 36.375C105.022 36.6 105.293 36.7125 105.635 36.7125C105.827 36.7125 105.985 36.6917 106.11 36.65C106.243 36.6 106.356 36.55 106.447 36.5C106.547 36.45 106.635 36.4042 106.71 36.3625C106.785 36.3125 106.86 36.2875 106.935 36.2875C107.027 36.2875 107.102 36.3125 107.16 36.3625C107.218 36.4042 107.281 36.4708 107.347 36.5625L108.272 38.0625C107.822 38.4375 107.306 38.7208 106.722 38.9125C106.139 39.1042 105.535 39.2 104.91 39.2ZM120.987 26.175V39H119.099C118.691 39 118.432 38.8125 118.324 38.4375L118.112 37.4125C117.587 37.9458 117.007 38.3792 116.374 38.7125C115.741 39.0375 114.995 39.2 114.137 39.2C113.437 39.2 112.816 39.0833 112.274 38.85C111.741 38.6083 111.291 38.2708 110.924 37.8375C110.557 37.4042 110.278 36.8917 110.087 36.3C109.903 35.7 109.812 35.0417 109.812 34.325V26.175H112.899V34.325C112.899 35.1083 113.078 35.7167 113.437 36.15C113.803 36.575 114.349 36.7875 115.074 36.7875C115.607 36.7875 116.107 36.6708 116.574 36.4375C117.041 36.1958 117.482 35.8667 117.899 35.45V26.175H120.987ZM130.823 33.525C129.931 33.5667 129.181 33.6458 128.573 33.7625C127.965 33.8708 127.477 34.0125 127.11 34.1875C126.744 34.3625 126.481 34.5667 126.323 34.8C126.165 35.0333 126.085 35.2875 126.085 35.5625C126.085 36.1042 126.244 36.4917 126.56 36.725C126.885 36.9583 127.306 37.075 127.823 37.075C128.456 37.075 129.002 36.9625 129.46 36.7375C129.927 36.5042 130.381 36.1542 130.823 35.6875V33.525ZM123.748 27.9625C125.223 26.6125 126.998 25.9375 129.073 25.9375C129.823 25.9375 130.494 26.0625 131.085 26.3125C131.677 26.5542 132.177 26.8958 132.585 27.3375C132.994 27.7708 133.302 28.2917 133.51 28.9C133.727 29.5083 133.835 30.175 133.835 30.9V39H132.435C132.144 39 131.919 38.9583 131.76 38.875C131.602 38.7833 131.477 38.6042 131.385 38.3375L131.11 37.4125C130.785 37.7042 130.469 37.9625 130.16 38.1875C129.852 38.4042 129.531 38.5875 129.198 38.7375C128.865 38.8875 128.506 39 128.123 39.075C127.748 39.1583 127.331 39.2 126.873 39.2C126.331 39.2 125.831 39.1292 125.373 38.9875C124.915 38.8375 124.519 38.6167 124.185 38.325C123.852 38.0333 123.594 37.6708 123.41 37.2375C123.227 36.8042 123.135 36.3 123.135 35.725C123.135 35.4 123.19 35.0792 123.298 34.7625C123.406 34.4375 123.581 34.1292 123.823 33.8375C124.073 33.5458 124.394 33.2708 124.785 33.0125C125.177 32.7542 125.656 32.5292 126.223 32.3375C126.798 32.1458 127.465 31.9917 128.223 31.875C128.981 31.75 129.848 31.675 130.823 31.65V30.9C130.823 30.0417 130.64 29.4083 130.273 29C129.906 28.5833 129.377 28.375 128.685 28.375C128.185 28.375 127.769 28.4333 127.435 28.55C127.11 28.6667 126.823 28.8 126.573 28.95C126.323 29.0917 126.094 29.2208 125.885 29.3375C125.685 29.4542 125.46 29.5125 125.21 29.5125C124.994 29.5125 124.81 29.4583 124.66 29.35C124.51 29.2333 124.39 29.1 124.298 28.95L123.748 27.9625ZM149.51 39H146.422V28.4875H140.472V35.4375C140.472 35.8375 140.568 36.15 140.76 36.375C140.96 36.6 141.231 36.7125 141.572 36.7125C141.764 36.7125 141.922 36.6917 142.047 36.65C142.181 36.6 142.293 36.55 142.385 36.5C142.485 36.45 142.572 36.4042 142.647 36.3625C142.722 36.3125 142.797 36.2875 142.872 36.2875C142.964 36.2875 143.039 36.3125 143.097 36.3625C143.156 36.4042 143.218 36.4708 143.285 36.5625L144.21 38.0625C143.76 38.4375 143.243 38.7208 142.66 38.9125C142.077 39.1042 141.472 39.2 140.847 39.2C139.731 39.2 138.872 38.8875 138.272 38.2625C137.681 37.6292 137.385 36.7583 137.385 35.65V28.4875H136.072C135.906 28.4875 135.764 28.4333 135.647 28.325C135.531 28.2167 135.472 28.0542 135.472 27.8375V26.6125L137.535 26.2625L138.185 22.775C138.227 22.6083 138.306 22.4792 138.422 22.3875C138.539 22.2958 138.689 22.25 138.872 22.25H140.472V26.2875H149.51V39ZM150.047 22.3875C150.047 22.6542 149.993 22.9083 149.885 23.15C149.777 23.3833 149.631 23.5875 149.447 23.7625C149.272 23.9375 149.06 24.0792 148.81 24.1875C148.568 24.2875 148.31 24.3375 148.035 24.3375C147.768 24.3375 147.518 24.2875 147.285 24.1875C147.052 24.0792 146.847 23.9375 146.672 23.7625C146.497 23.5875 146.356 23.3833 146.247 23.15C146.147 22.9083 146.097 22.6542 146.097 22.3875C146.097 22.1125 146.147 21.8583 146.247 21.625C146.356 21.3833 146.497 21.175 146.672 21C146.847 20.8167 147.052 20.675 147.285 20.575C147.518 20.4667 147.768 20.4125 148.035 20.4125C148.31 20.4125 148.568 20.4667 148.81 20.575C149.06 20.675 149.272 20.8167 149.447 21C149.631 21.175 149.777 21.3833 149.885 21.625C149.993 21.8583 150.047 22.1125 150.047 22.3875ZM158.336 25.975C159.286 25.975 160.149 26.1292 160.924 26.4375C161.707 26.7458 162.374 27.1833 162.924 27.75C163.482 28.3167 163.911 29.0083 164.211 29.825C164.511 30.6417 164.661 31.5542 164.661 32.5625C164.661 33.5792 164.511 34.4958 164.211 35.3125C163.911 36.1292 163.482 36.825 162.924 37.4C162.374 37.975 161.707 38.4167 160.924 38.725C160.149 39.0333 159.286 39.1875 158.336 39.1875C157.378 39.1875 156.507 39.0333 155.724 38.725C154.94 38.4167 154.27 37.975 153.711 37.4C153.161 36.825 152.732 36.1292 152.424 35.3125C152.124 34.4958 151.974 33.5792 151.974 32.5625C151.974 31.5542 152.124 30.6417 152.424 29.825C152.732 29.0083 153.161 28.3167 153.711 27.75C154.27 27.1833 154.94 26.7458 155.724 26.4375C156.507 26.1292 157.378 25.975 158.336 25.975ZM158.336 36.8125C159.403 36.8125 160.19 36.4542 160.699 35.7375C161.215 35.0208 161.474 33.9708 161.474 32.5875C161.474 31.2042 161.215 30.15 160.699 29.425C160.19 28.7 159.403 28.3375 158.336 28.3375C157.253 28.3375 156.449 28.7042 155.924 29.4375C155.407 30.1625 155.149 31.2125 155.149 32.5875C155.149 33.9625 155.407 35.0125 155.924 35.7375C156.449 36.4542 157.253 36.8125 158.336 36.8125ZM169.904 27.75C170.163 27.4917 170.433 27.2542 170.717 27.0375C171.008 26.8125 171.313 26.625 171.629 26.475C171.954 26.3167 172.3 26.1958 172.667 26.1125C173.033 26.0208 173.433 25.975 173.867 25.975C174.567 25.975 175.188 26.0958 175.729 26.3375C176.271 26.5708 176.721 26.9042 177.079 27.3375C177.446 27.7625 177.721 28.275 177.904 28.875C178.096 29.4667 178.192 30.1208 178.192 30.8375V39H175.104V30.8375C175.104 30.0542 174.925 29.45 174.567 29.025C174.208 28.5917 173.663 28.375 172.929 28.375C172.396 28.375 171.896 28.4958 171.429 28.7375C170.963 28.9792 170.521 29.3083 170.104 29.725V39H167.017V26.175H168.904C169.304 26.175 169.567 26.3625 169.692 26.7375L169.904 27.75ZM188.953 28.675C188.87 28.8083 188.782 28.9042 188.691 28.9625C188.599 29.0125 188.482 29.0375 188.341 29.0375C188.191 29.0375 188.028 28.9958 187.853 28.9125C187.686 28.8292 187.491 28.7375 187.266 28.6375C187.041 28.5292 186.782 28.4333 186.491 28.35C186.207 28.2667 185.87 28.225 185.478 28.225C184.87 28.225 184.391 28.3542 184.041 28.6125C183.699 28.8708 183.528 29.2083 183.528 29.625C183.528 29.9 183.616 30.1333 183.791 30.325C183.974 30.5083 184.211 30.6708 184.503 30.8125C184.803 30.9542 185.141 31.0833 185.516 31.2C185.891 31.3083 186.27 31.4292 186.653 31.5625C187.045 31.6958 187.428 31.85 187.803 32.025C188.178 32.1917 188.511 32.4083 188.803 32.675C189.103 32.9333 189.341 33.2458 189.516 33.6125C189.699 33.9792 189.791 34.4208 189.791 34.9375C189.791 35.5542 189.678 36.125 189.453 36.65C189.236 37.1667 188.911 37.6167 188.478 38C188.045 38.375 187.507 38.6708 186.866 38.8875C186.232 39.0958 185.499 39.2 184.666 39.2C184.224 39.2 183.791 39.1583 183.366 39.075C182.949 39 182.545 38.8917 182.153 38.75C181.77 38.6083 181.411 38.4417 181.078 38.25C180.753 38.0583 180.466 37.85 180.216 37.625L180.928 36.45C181.02 36.3083 181.128 36.2 181.253 36.125C181.378 36.05 181.536 36.0125 181.728 36.0125C181.92 36.0125 182.099 36.0667 182.266 36.175C182.441 36.2833 182.641 36.4 182.866 36.525C183.091 36.65 183.353 36.7667 183.653 36.875C183.961 36.9833 184.349 37.0375 184.816 37.0375C185.182 37.0375 185.495 36.9958 185.753 36.9125C186.02 36.8208 186.236 36.7042 186.403 36.5625C186.578 36.4208 186.703 36.2583 186.778 36.075C186.861 35.8833 186.903 35.6875 186.903 35.4875C186.903 35.1875 186.811 34.9417 186.628 34.75C186.453 34.5583 186.216 34.3917 185.916 34.25C185.624 34.1083 185.286 33.9833 184.903 33.875C184.528 33.7583 184.141 33.6333 183.741 33.5C183.349 33.3667 182.961 33.2125 182.578 33.0375C182.203 32.8542 181.866 32.625 181.566 32.35C181.274 32.075 181.036 31.7375 180.853 31.3375C180.678 30.9375 180.591 30.4542 180.591 29.8875C180.591 29.3625 180.695 28.8625 180.903 28.3875C181.111 27.9125 181.416 27.5 181.816 27.15C182.224 26.7917 182.728 26.5083 183.328 26.3C183.936 26.0833 184.636 25.975 185.428 25.975C186.311 25.975 187.116 26.1208 187.841 26.4125C188.566 26.7042 189.17 27.0875 189.653 27.5625L188.953 28.675Z" fill="#1B4596"/>
<rect x="-20" y="82" width="228" height="79" fill="#E0F9FF"/>
<path d="M257.132 56.1201H236.181H215.23H194.279H173.328H152.377H131.426H110.475H89.5245H68.5736H47.6227H26.6717H5.72083H-15.2301H-36.181H-57.1319C-60.2745 56.1201 -62.3696 58.2208 -62.3696 61.3718V82.3785V161.153V182.16C-62.3696 185.311 -60.2745 187.412 -57.1319 187.412H-36.181H-15.2301H5.72083H26.6717H47.6227H68.5736H89.5245H110.475H131.426H152.377H173.328H194.279H215.23H236.181H257.132C260.274 187.412 262.369 185.311 262.369 182.16V161.153V82.3785V61.3718C262.369 58.2208 260.274 56.1201 257.132 56.1201ZM10.9586 66.6235H21.434V77.1268H10.9586V66.6235ZM-9.99235 66.6235H0.483101V77.1268H-9.99235V66.6235ZM-30.9433 66.6235H-20.4678V77.1268H-30.9433V66.6235ZM-51.8942 66.6235H-41.4187V77.1268H-51.8942V66.6235ZM-41.4187 176.908H-51.8942V166.405H-41.4187V176.908ZM-20.4678 176.908H-30.9433V166.405H-20.4678V176.908ZM0.483101 176.908H-9.99235V166.405H0.483101V176.908ZM21.434 176.908H10.9586V166.405H21.434V176.908ZM42.3849 176.908H31.9095V166.405H42.3849V176.908ZM42.3849 155.902H26.6717H5.72083H-15.2301H-36.181H-51.8942V87.6301H-36.181H-15.2301H5.72083H26.6717H42.3849V155.902ZM42.3849 77.1268H31.9095V66.6235H42.3849V77.1268ZM115.713 66.6235H126.189V77.1268H115.713V66.6235ZM94.7622 66.6235H105.238V77.1268H94.7622V66.6235ZM73.8113 66.6235H84.2867V77.1268H73.8113V66.6235ZM52.8604 66.6235H63.3358V77.1268H52.8604V66.6235ZM63.3358 176.908H52.8604V166.405H63.3358V176.908ZM84.2867 176.908H73.8113V166.405H84.2867V176.908ZM105.238 176.908H94.7622V166.405H105.238V176.908ZM126.189 176.908H115.713V166.405H126.189V176.908ZM147.139 176.908H136.664V166.405H147.139V176.908ZM147.139 155.902H131.426H110.475H89.5245H68.5736H52.8604V87.6301H68.5736H89.5245H110.475H131.426H147.139V155.902ZM147.139 77.1268H136.664V66.6235H147.139V77.1268ZM220.468 66.6235H230.943V77.1268H220.468V66.6235ZM199.517 66.6235H209.992V77.1268H199.517V66.6235ZM178.566 66.6235H189.041V77.1268H178.566V66.6235ZM157.615 66.6235H168.09V77.1268H157.615V66.6235ZM168.09 176.908H157.615V166.405H168.09V176.908ZM189.041 176.908H178.566V166.405H189.041V176.908ZM209.992 176.908H199.517V166.405H209.992V176.908ZM230.943 176.908H220.468V166.405H230.943V176.908ZM251.894 176.908H241.419V166.405H251.894V176.908ZM251.894 155.902H236.181H215.23H194.279H173.328H157.615V87.6301H173.328H194.279H215.23H236.181H251.894V155.902ZM251.894 77.1268H241.419V66.6235H251.894V77.1268Z" fill="#1D3D7E"/>
<path d="M78.4682 105.68V109.69H83.5282V111.76H78.4682V115.85H84.8882V118H75.7682V103.54H84.8882V105.68H78.4682ZM95.7805 107.74L91.7105 118H89.4705L85.4005 107.74H87.4405C87.6272 107.74 87.7805 107.783 87.9005 107.87C88.0272 107.957 88.1105 108.067 88.1505 108.2L90.1305 113.68C90.2372 114 90.3305 114.313 90.4105 114.62C90.4905 114.927 90.5605 115.233 90.6205 115.54C90.6872 115.233 90.7605 114.927 90.8405 114.62C90.9205 114.313 91.0172 114 91.1305 113.68L93.1505 108.2C93.1972 108.067 93.2805 107.957 93.4005 107.87C93.5205 107.783 93.6639 107.74 93.8305 107.74H95.7805ZM103.394 111.69C103.394 111.37 103.348 111.07 103.254 110.79C103.168 110.503 103.034 110.253 102.854 110.04C102.674 109.827 102.444 109.66 102.164 109.54C101.891 109.413 101.571 109.35 101.204 109.35C100.491 109.35 99.9278 109.553 99.5145 109.96C99.1078 110.367 98.8478 110.943 98.7345 111.69H103.394ZM98.6845 113.18C98.7245 113.707 98.8178 114.163 98.9645 114.55C99.1111 114.93 99.3045 115.247 99.5445 115.5C99.7845 115.747 100.068 115.933 100.394 116.06C100.728 116.18 101.094 116.24 101.494 116.24C101.894 116.24 102.238 116.193 102.524 116.1C102.818 116.007 103.071 115.903 103.284 115.79C103.504 115.677 103.694 115.573 103.854 115.48C104.021 115.387 104.181 115.34 104.334 115.34C104.541 115.34 104.694 115.417 104.794 115.57L105.504 116.47C105.231 116.79 104.924 117.06 104.584 117.28C104.244 117.493 103.888 117.667 103.514 117.8C103.148 117.927 102.771 118.017 102.384 118.07C102.004 118.123 101.634 118.15 101.274 118.15C100.561 118.15 99.8978 118.033 99.2845 117.8C98.6711 117.56 98.1378 117.21 97.6845 116.75C97.2311 116.283 96.8745 115.71 96.6145 115.03C96.3545 114.343 96.2245 113.55 96.2245 112.65C96.2245 111.95 96.3378 111.293 96.5645 110.68C96.7911 110.06 97.1145 109.523 97.5345 109.07C97.9611 108.61 98.4778 108.247 99.0845 107.98C99.6978 107.713 100.388 107.58 101.154 107.58C101.801 107.58 102.398 107.683 102.944 107.89C103.491 108.097 103.961 108.4 104.354 108.8C104.748 109.193 105.054 109.68 105.274 110.26C105.501 110.833 105.614 111.49 105.614 112.23C105.614 112.603 105.574 112.857 105.494 112.99C105.414 113.117 105.261 113.18 105.034 113.18H98.6845ZM109.778 109C109.985 108.793 110.201 108.603 110.428 108.43C110.661 108.25 110.905 108.1 111.158 107.98C111.418 107.853 111.695 107.757 111.988 107.69C112.281 107.617 112.601 107.58 112.948 107.58C113.508 107.58 114.005 107.677 114.438 107.87C114.871 108.057 115.231 108.323 115.518 108.67C115.811 109.01 116.031 109.42 116.178 109.9C116.331 110.373 116.408 110.897 116.408 111.47V118H113.938V111.47C113.938 110.843 113.795 110.36 113.508 110.02C113.221 109.673 112.785 109.5 112.198 109.5C111.771 109.5 111.371 109.597 110.998 109.79C110.625 109.983 110.271 110.247 109.938 110.58V118H107.468V107.74H108.978C109.298 107.74 109.508 107.89 109.608 108.19L109.778 109ZM122.04 118.16C121.147 118.16 120.46 117.91 119.98 117.41C119.507 116.903 119.27 116.207 119.27 115.32V109.59H118.22C118.087 109.59 117.974 109.547 117.88 109.46C117.787 109.373 117.74 109.243 117.74 109.07V108.09L119.39 107.82L119.91 105.02C119.944 104.887 120.007 104.783 120.1 104.71C120.194 104.637 120.314 104.6 120.46 104.6H121.74V107.83H124.48V109.59H121.74V115.15C121.74 115.47 121.817 115.72 121.97 115.9C122.13 116.08 122.347 116.17 122.62 116.17C122.774 116.17 122.9 116.153 123 116.12C123.107 116.08 123.197 116.04 123.27 116C123.35 115.96 123.42 115.923 123.48 115.89C123.54 115.85 123.6 115.83 123.66 115.83C123.734 115.83 123.794 115.85 123.84 115.89C123.887 115.923 123.937 115.977 123.99 116.05L124.73 117.25C124.37 117.55 123.957 117.777 123.49 117.93C123.024 118.083 122.54 118.16 122.04 118.16ZM64.3374 130.42C64.8441 130.42 65.2841 130.357 65.6574 130.23C66.0374 130.103 66.3474 129.93 66.5874 129.71C66.8341 129.483 67.0174 129.217 67.1374 128.91C67.2574 128.603 67.3174 128.267 67.3174 127.9C67.3174 127.167 67.0741 126.603 66.5874 126.21C66.1074 125.817 65.3708 125.62 64.3774 125.62H62.6574V130.42H64.3374ZM71.2574 138H68.8274C68.3674 138 68.0341 137.82 67.8274 137.46L64.7874 132.83C64.6741 132.657 64.5474 132.533 64.4074 132.46C64.2741 132.387 64.0741 132.35 63.8074 132.35H62.6574V138H59.9674V123.54H64.3774C65.3574 123.54 66.1974 123.643 66.8974 123.85C67.6041 124.05 68.1808 124.333 68.6274 124.7C69.0808 125.067 69.4141 125.507 69.6274 126.02C69.8408 126.527 69.9474 127.087 69.9474 127.7C69.9474 128.187 69.8741 128.647 69.7274 129.08C69.5874 129.513 69.3808 129.907 69.1074 130.26C68.8408 130.613 68.5074 130.923 68.1074 131.19C67.7141 131.457 67.2641 131.667 66.7574 131.82C66.9308 131.92 67.0908 132.04 67.2374 132.18C67.3841 132.313 67.5174 132.473 67.6374 132.66L71.2574 138ZM78.3749 131.69C78.3749 131.37 78.3283 131.07 78.2349 130.79C78.1483 130.503 78.0149 130.253 77.8349 130.04C77.6549 129.827 77.4249 129.66 77.1449 129.54C76.8716 129.413 76.5516 129.35 76.1849 129.35C75.4716 129.35 74.9083 129.553 74.4949 129.96C74.0883 130.367 73.8283 130.943 73.7149 131.69H78.3749ZM73.6649 133.18C73.7049 133.707 73.7983 134.163 73.9449 134.55C74.0916 134.93 74.2849 135.247 74.5249 135.5C74.7649 135.747 75.0483 135.933 75.3749 136.06C75.7083 136.18 76.0749 136.24 76.4749 136.24C76.8749 136.24 77.2183 136.193 77.5049 136.1C77.7983 136.007 78.0516 135.903 78.2649 135.79C78.4849 135.677 78.6749 135.573 78.8349 135.48C79.0016 135.387 79.1616 135.34 79.3149 135.34C79.5216 135.34 79.6749 135.417 79.7749 135.57L80.4849 136.47C80.2116 136.79 79.9049 137.06 79.5649 137.28C79.2249 137.493 78.8683 137.667 78.4949 137.8C78.1283 137.927 77.7516 138.017 77.3649 138.07C76.9849 138.123 76.6149 138.15 76.2549 138.15C75.5416 138.15 74.8783 138.033 74.2649 137.8C73.6516 137.56 73.1183 137.21 72.6649 136.75C72.2116 136.283 71.8549 135.71 71.5949 135.03C71.3349 134.343 71.2049 133.55 71.2049 132.65C71.2049 131.95 71.3183 131.293 71.5449 130.68C71.7716 130.06 72.0949 129.523 72.5149 129.07C72.9416 128.61 73.4583 128.247 74.0649 127.98C74.6783 127.713 75.3683 127.58 76.1349 127.58C76.7816 127.58 77.3783 127.683 77.9249 127.89C78.4716 128.097 78.9416 128.4 79.3349 128.8C79.7283 129.193 80.0349 129.68 80.2549 130.26C80.4816 130.833 80.5949 131.49 80.5949 132.23C80.5949 132.603 80.5549 132.857 80.4749 132.99C80.3949 133.117 80.2416 133.18 80.0149 133.18H73.6649ZM84.9485 123.14V138H82.4785V123.14H84.9485ZM92.8295 133.62C92.1161 133.653 91.5161 133.717 91.0295 133.81C90.5428 133.897 90.1528 134.01 89.8595 134.15C89.5661 134.29 89.3561 134.453 89.2295 134.64C89.1028 134.827 89.0395 135.03 89.0395 135.25C89.0395 135.683 89.1661 135.993 89.4195 136.18C89.6795 136.367 90.0161 136.46 90.4295 136.46C90.9361 136.46 91.3728 136.37 91.7395 136.19C92.1128 136.003 92.4761 135.723 92.8295 135.35V133.62ZM87.1695 129.17C88.3495 128.09 89.7695 127.55 91.4295 127.55C92.0295 127.55 92.5661 127.65 93.0395 127.85C93.5128 128.043 93.9128 128.317 94.2395 128.67C94.5661 129.017 94.8128 129.433 94.9795 129.92C95.1528 130.407 95.2395 130.94 95.2395 131.52V138H94.1195C93.8861 138 93.7061 137.967 93.5795 137.9C93.4528 137.827 93.3528 137.683 93.2795 137.47L93.0595 136.73C92.7995 136.963 92.5461 137.17 92.2995 137.35C92.0528 137.523 91.7961 137.67 91.5295 137.79C91.2628 137.91 90.9761 138 90.6695 138.06C90.3695 138.127 90.0361 138.16 89.6695 138.16C89.2361 138.16 88.8361 138.103 88.4695 137.99C88.1028 137.87 87.7861 137.693 87.5195 137.46C87.2528 137.227 87.0461 136.937 86.8995 136.59C86.7528 136.243 86.6795 135.84 86.6795 135.38C86.6795 135.12 86.7228 134.863 86.8095 134.61C86.8961 134.35 87.0361 134.103 87.2295 133.87C87.4295 133.637 87.6861 133.417 87.9995 133.21C88.3128 133.003 88.6961 132.823 89.1495 132.67C89.6095 132.517 90.1428 132.393 90.7495 132.3C91.3561 132.2 92.0495 132.14 92.8295 132.12V131.52C92.8295 130.833 92.6828 130.327 92.3895 130C92.0961 129.667 91.6728 129.5 91.1195 129.5C90.7195 129.5 90.3861 129.547 90.1195 129.64C89.8595 129.733 89.6295 129.84 89.4295 129.96C89.2295 130.073 89.0461 130.177 88.8795 130.27C88.7195 130.363 88.5395 130.41 88.3395 130.41C88.1661 130.41 88.0195 130.367 87.8995 130.28C87.7795 130.187 87.6828 130.08 87.6095 129.96L87.1695 129.17ZM107.779 138H105.309V129.59H100.549V135.15C100.549 135.47 100.626 135.72 100.779 135.9C100.939 136.08 101.156 136.17 101.429 136.17C101.582 136.17 101.709 136.153 101.809 136.12C101.916 136.08 102.006 136.04 102.079 136C102.159 135.96 102.229 135.923 102.289 135.89C102.349 135.85 102.409 135.83 102.469 135.83C102.542 135.83 102.602 135.85 102.649 135.89C102.696 135.923 102.746 135.977 102.799 136.05L103.539 137.25C103.179 137.55 102.766 137.777 102.299 137.93C101.832 138.083 101.349 138.16 100.849 138.16C99.9557 138.16 99.269 137.91 98.789 137.41C98.3157 136.903 98.079 136.207 98.079 135.32V129.59H97.029C96.8957 129.59 96.7823 129.547 96.689 129.46C96.5957 129.373 96.549 129.243 96.549 129.07V128.09L98.199 127.81L98.719 125.02C98.7523 124.887 98.8157 124.783 98.909 124.71C99.0023 124.637 99.1223 124.6 99.269 124.6H100.549V127.83H107.779V138ZM108.209 124.71C108.209 124.923 108.166 125.127 108.079 125.32C107.992 125.507 107.876 125.67 107.729 125.81C107.589 125.95 107.419 126.063 107.219 126.15C107.026 126.23 106.819 126.27 106.599 126.27C106.386 126.27 106.186 126.23 105.999 126.15C105.812 126.063 105.649 125.95 105.509 125.81C105.369 125.67 105.256 125.507 105.169 125.32C105.089 125.127 105.049 124.923 105.049 124.71C105.049 124.49 105.089 124.287 105.169 124.1C105.256 123.907 105.369 123.74 105.509 123.6C105.649 123.453 105.812 123.34 105.999 123.26C106.186 123.173 106.386 123.13 106.599 123.13C106.819 123.13 107.026 123.173 107.219 123.26C107.419 123.34 107.589 123.453 107.729 123.6C107.876 123.74 107.992 123.907 108.079 124.1C108.166 124.287 108.209 124.49 108.209 124.71ZM114.84 127.58C115.6 127.58 116.29 127.703 116.91 127.95C117.537 128.197 118.07 128.547 118.51 129C118.957 129.453 119.3 130.007 119.54 130.66C119.78 131.313 119.9 132.043 119.9 132.85C119.9 133.663 119.78 134.397 119.54 135.05C119.3 135.703 118.957 136.26 118.51 136.72C118.07 137.18 117.537 137.533 116.91 137.78C116.29 138.027 115.6 138.15 114.84 138.15C114.073 138.15 113.377 138.027 112.75 137.78C112.123 137.533 111.587 137.18 111.14 136.72C110.7 136.26 110.357 135.703 110.11 135.05C109.87 134.397 109.75 133.663 109.75 132.85C109.75 132.043 109.87 131.313 110.11 130.66C110.357 130.007 110.7 129.453 111.14 129C111.587 128.547 112.123 128.197 112.75 127.95C113.377 127.703 114.073 127.58 114.84 127.58ZM114.84 136.25C115.693 136.25 116.323 135.963 116.73 135.39C117.143 134.817 117.35 133.977 117.35 132.87C117.35 131.763 117.143 130.92 116.73 130.34C116.323 129.76 115.693 129.47 114.84 129.47C113.973 129.47 113.33 129.763 112.91 130.35C112.497 130.93 112.29 131.77 112.29 132.87C112.29 133.97 112.497 134.81 112.91 135.39C113.33 135.963 113.973 136.25 114.84 136.25ZM124.094 129C124.301 128.793 124.518 128.603 124.744 128.43C124.978 128.25 125.221 128.1 125.474 127.98C125.734 127.853 126.011 127.757 126.304 127.69C126.598 127.617 126.918 127.58 127.264 127.58C127.824 127.58 128.321 127.677 128.754 127.87C129.188 128.057 129.548 128.323 129.834 128.67C130.128 129.01 130.348 129.42 130.494 129.9C130.648 130.373 130.724 130.897 130.724 131.47V138H128.254V131.47C128.254 130.843 128.111 130.36 127.824 130.02C127.538 129.673 127.101 129.5 126.514 129.5C126.088 129.5 125.688 129.597 125.314 129.79C124.941 129.983 124.588 130.247 124.254 130.58V138H121.784V127.74H123.294C123.614 127.74 123.824 127.89 123.924 128.19L124.094 129ZM139.334 129.74C139.267 129.847 139.197 129.923 139.124 129.97C139.05 130.01 138.957 130.03 138.844 130.03C138.724 130.03 138.594 129.997 138.454 129.93C138.32 129.863 138.164 129.79 137.984 129.71C137.804 129.623 137.597 129.547 137.364 129.48C137.137 129.413 136.867 129.38 136.554 129.38C136.067 129.38 135.684 129.483 135.404 129.69C135.13 129.897 134.994 130.167 134.994 130.5C134.994 130.72 135.064 130.907 135.204 131.06C135.35 131.207 135.54 131.337 135.774 131.45C136.014 131.563 136.284 131.667 136.584 131.76C136.884 131.847 137.187 131.943 137.494 132.05C137.807 132.157 138.114 132.28 138.414 132.42C138.714 132.553 138.98 132.727 139.214 132.94C139.454 133.147 139.644 133.397 139.784 133.69C139.93 133.983 140.004 134.337 140.004 134.75C140.004 135.243 139.914 135.7 139.734 136.12C139.56 136.533 139.3 136.893 138.954 137.2C138.607 137.5 138.177 137.737 137.664 137.91C137.157 138.077 136.57 138.16 135.904 138.16C135.55 138.16 135.204 138.127 134.864 138.06C134.53 138 134.207 137.913 133.894 137.8C133.587 137.687 133.3 137.553 133.034 137.4C132.774 137.247 132.544 137.08 132.344 136.9L132.914 135.96C132.987 135.847 133.074 135.76 133.174 135.7C133.274 135.64 133.4 135.61 133.554 135.61C133.707 135.61 133.85 135.653 133.984 135.74C134.124 135.827 134.284 135.92 134.464 136.02C134.644 136.12 134.854 136.213 135.094 136.3C135.34 136.387 135.65 136.43 136.024 136.43C136.317 136.43 136.567 136.397 136.774 136.33C136.987 136.257 137.16 136.163 137.294 136.05C137.434 135.937 137.534 135.807 137.594 135.66C137.66 135.507 137.694 135.35 137.694 135.19C137.694 134.95 137.62 134.753 137.474 134.6C137.334 134.447 137.144 134.313 136.904 134.2C136.67 134.087 136.4 133.987 136.094 133.9C135.794 133.807 135.484 133.707 135.164 133.6C134.85 133.493 134.54 133.37 134.234 133.23C133.934 133.083 133.664 132.9 133.424 132.68C133.19 132.46 133 132.19 132.854 131.87C132.714 131.55 132.644 131.163 132.644 130.71C132.644 130.29 132.727 129.89 132.894 129.51C133.06 129.13 133.304 128.8 133.624 128.52C133.95 128.233 134.354 128.007 134.834 127.84C135.32 127.667 135.88 127.58 136.514 127.58C137.22 127.58 137.864 127.697 138.444 127.93C139.024 128.163 139.507 128.47 139.894 128.85L139.334 129.74Z" fill="#1B4596"/>
</g>
<defs>
<radialGradient id="paint0_radial" cx="0" cy="0" r="1" gradientUnits="userSpaceOnUse" gradientTransform="translate(180.5 215.5) rotate(-124.885) scale(285.871 263.797)">
<stop stop-color="#078E9E"/>
<stop offset="0.992686" stop-color="#6EDCE3"/>
</radialGradient>
<clipPath id="clip0">
<rect width="200" height="200" fill="white"/>
</clipPath>
</defs>
</svg>
