<svg xmlns="http://www.w3.org/2000/svg" xmlns:xlink="http://www.w3.org/1999/xlink" version="1.1" class="marks" width="463" height="382" viewBox="0 0 463 382"><rect width="463" height="382" fill="white"/><g fill="none" stroke-miterlimit="10" transform="translate(57,35)"><g class="mark-group role-frame root" role="graphics-object" aria-roledescription="group mark container"><g transform="translate(0,0)"><path class="background" aria-hidden="true" d="M0.5,0.5h400v300h-400Z" stroke="#ddd"/><g><g class="mark-group role-axis" role="graphics-symbol" aria-roledescription="axis" aria-label="X-axis for a linear scale with values from 0 to 600"><g transform="translate(0.5,300.5)"><path class="background" aria-hidden="true" d="M0,0h0v0h0Z" pointer-events="none"/><g><g class="mark-rule role-axis-grid" pointer-events="none"><line transform="translate(0,-300)" x2="0" y2="300" stroke="#ddd" stroke-width="1" opacity="1"/><line transform="translate(33,-300)" x2="0" y2="300" stroke="#ddd" stroke-width="1" opacity="1"/><line transform="translate(67,-300)" x2="0" y2="300" stroke="#ddd" stroke-width="1" opacity="1"/><line transform="translate(100,-300)" x2="0" y2="300" stroke="#ddd" stroke-width="1" opacity="1"/><line transform="translate(133,-300)" x2="0" y2="300" stroke="#ddd" stroke-width="1" opacity="1"/><line transform="translate(167,-300)" x2="0" y2="300" stroke="#ddd" stroke-width="1" opacity="1"/><line transform="translate(200,-300)" x2="0" y2="300" stroke="#ddd" stroke-width="1" opacity="1"/><line transform="translate(233,-300)" x2="0" y2="300" stroke="#ddd" stroke-width="1" opacity="1"/><line transform="translate(267,-300)" x2="0" y2="300" stroke="#ddd" stroke-width="1" opacity="1"/><line transform="translate(300,-300)" x2="0" y2="300" stroke="#ddd" stroke-width="1" opacity="1"/><line transform="translate(333,-300)" x2="0" y2="300" stroke="#ddd" stroke-width="1" opacity="1"/><line transform="translate(367,-300)" x2="0" y2="300" stroke="#ddd" stroke-width="1" opacity="1"/><line transform="translate(400,-300)" x2="0" y2="300" stroke="#ddd" stroke-width="1" opacity="1"/></g></g><path class="foreground" aria-hidden="true" d="" pointer-events="none" display="none"/></g></g><g class="mark-group role-axis" role="graphics-symbol" aria-roledescription="axis" aria-label="Y-axis for a linear scale with values from 0 to 900"><g transform="translate(0.5,0.5)"><path class="background" aria-hidden="true" d="M0,0h0v0h0Z" pointer-events="none"/><g><g class="mark-rule role-axis-grid" pointer-events="none"><line transform="translate(0,300)" x2="400" y2="0" stroke="#ddd" stroke-width="1" opacity="1"/><line transform="translate(0,267)" x2="400" y2="0" stroke="#ddd" stroke-width="1" opacity="1"/><line transform="translate(0,233)" x2="400" y2="0" stroke="#ddd" stroke-width="1" opacity="1"/><line transform="translate(0,200)" x2="400" y2="0" stroke="#ddd" stroke-width="1" opacity="1"/><line transform="translate(0,167)" x2="400" y2="0" stroke="#ddd" stroke-width="1" opacity="1"/><line transform="translate(0,133)" x2="400" y2="0" stroke="#ddd" stroke-width="1" opacity="1"/><line transform="translate(0,100)" x2="400" y2="0" stroke="#ddd" stroke-width="1" opacity="1"/><line transform="translate(0,67)" x2="400" y2="0" stroke="#ddd" stroke-width="1" opacity="1"/><line transform="translate(0,33)" x2="400" y2="0" stroke="#ddd" stroke-width="1" opacity="1"/><line transform="translate(0,0)" x2="400" y2="0" stroke="#ddd" stroke-width="1" opacity="1"/></g></g><path class="foreground" aria-hidden="true" d="" pointer-events="none" display="none"/></g></g><g class="mark-group role-axis" role="graphics-symbol" aria-roledescription="axis" aria-label="X-axis titled 'Number of Unique Videos' for a linear scale with values from 0 to 600"><g transform="translate(0.5,300.5)"><path class="background" aria-hidden="true" d="M0,0h0v0h0Z" pointer-events="none"/><g><g class="mark-rule role-axis-tick" pointer-events="none"><line transform="translate(0,0)" x2="0" y2="5" stroke="#888" stroke-width="1" opacity="1"/><line transform="translate(33,0)" x2="0" y2="5" stroke="#888" stroke-width="1" opacity="1"/><line transform="translate(67,0)" x2="0" y2="5" stroke="#888" stroke-width="1" opacity="1"/><line transform="translate(100,0)" x2="0" y2="5" stroke="#888" stroke-width="1" opacity="1"/><line transform="translate(133,0)" x2="0" y2="5" stroke="#888" stroke-width="1" opacity="1"/><line transform="translate(167,0)" x2="0" y2="5" stroke="#888" stroke-width="1" opacity="1"/><line transform="translate(200,0)" x2="0" y2="5" stroke="#888" stroke-width="1" opacity="1"/><line transform="translate(233,0)" x2="0" y2="5" stroke="#888" stroke-width="1" opacity="1"/><line transform="translate(267,0)" x2="0" y2="5" stroke="#888" stroke-width="1" opacity="1"/><line transform="translate(300,0)" x2="0" y2="5" stroke="#888" stroke-width="1" opacity="1"/><line transform="translate(333,0)" x2="0" y2="5" stroke="#888" stroke-width="1" opacity="1"/><line transform="translate(367,0)" x2="0" y2="5" stroke="#888" stroke-width="1" opacity="1"/><line transform="translate(400,0)" x2="0" y2="5" stroke="#888" stroke-width="1" opacity="1"/></g><g class="mark-text role-axis-label" pointer-events="none"><text text-anchor="start" transform="translate(0,16)" font-family="sans-serif" font-size="12px" fill="#000" opacity="1">0</text><text text-anchor="middle" transform="translate(33.33333333333333,16)" font-family="sans-serif" font-size="12px" fill="#000" opacity="1">50</text><text text-anchor="middle" transform="translate(66.66666666666666,16)" font-family="sans-serif" font-size="12px" fill="#000" opacity="1">100</text><text text-anchor="middle" transform="translate(100,16)" font-family="sans-serif" font-size="12px" fill="#000" opacity="1">150</text><text text-anchor="middle" transform="translate(133.33333333333331,16)" font-family="sans-serif" font-size="12px" fill="#000" opacity="1">200</text><text text-anchor="middle" transform="translate(166.66666666666669,16)" font-family="sans-serif" font-size="12px" fill="#000" opacity="1">250</text><text text-anchor="middle" transform="translate(200,16)" font-family="sans-serif" font-size="12px" fill="#000" opacity="1">300</text><text text-anchor="middle" transform="translate(233.33333333333334,16)" font-family="sans-serif" font-size="12px" fill="#000" opacity="1">350</text><text text-anchor="middle" transform="translate(266.66666666666663,16)" font-family="sans-serif" font-size="12px" fill="#000" opacity="1">400</text><text text-anchor="middle" transform="translate(300,16)" font-family="sans-serif" font-size="12px" fill="#000" opacity="1">450</text><text text-anchor="middle" transform="translate(333.33333333333337,16)" font-family="sans-serif" font-size="12px" fill="#000" opacity="1">500</text><text text-anchor="middle" transform="translate(366.66666666666663,16)" font-family="sans-serif" font-size="12px" fill="#000" opacity="1">550</text><text text-anchor="end" transform="translate(400,16)" font-family="sans-serif" font-size="12px" fill="#000" opacity="1">600</text></g><g class="mark-rule role-axis-domain" pointer-events="none"><line transform="translate(0,0)" x2="400" y2="0" stroke="#888" stroke-width="1" opacity="1"/></g><g class="mark-text role-axis-title" pointer-events="none"><text text-anchor="middle" transform="translate(200,39)" font-family="Arial" font-size="14px" font-weight="bold" fill="#000" opacity="1">Number of Unique Videos</text></g></g><path class="foreground" aria-hidden="true" d="" pointer-events="none" display="none"/></g></g><g class="mark-group role-axis" role="graphics-symbol" aria-roledescription="axis" aria-label="Y-axis titled 'Number of Nouns' for a linear scale with values from 0 to 900"><g transform="translate(0.5,0.5)"><path class="background" aria-hidden="true" d="M0,0h0v0h0Z" pointer-events="none"/><g><g class="mark-rule role-axis-tick" pointer-events="none"><line transform="translate(0,300)" x2="-5" y2="0" stroke="#888" stroke-width="1" opacity="1"/><line transform="translate(0,267)" x2="-5" y2="0" stroke="#888" stroke-width="1" opacity="1"/><line transform="translate(0,233)" x2="-5" y2="0" stroke="#888" stroke-width="1" opacity="1"/><line transform="translate(0,200)" x2="-5" y2="0" stroke="#888" stroke-width="1" opacity="1"/><line transform="translate(0,167)" x2="-5" y2="0" stroke="#888" stroke-width="1" opacity="1"/><line transform="translate(0,133)" x2="-5" y2="0" stroke="#888" stroke-width="1" opacity="1"/><line transform="translate(0,100)" x2="-5" y2="0" stroke="#888" stroke-width="1" opacity="1"/><line transform="translate(0,67)" x2="-5" y2="0" stroke="#888" stroke-width="1" opacity="1"/><line transform="translate(0,33)" x2="-5" y2="0" stroke="#888" stroke-width="1" opacity="1"/><line transform="translate(0,0)" x2="-5" y2="0" stroke="#888" stroke-width="1" opacity="1"/></g><g class="mark-text role-axis-label" pointer-events="none"><text text-anchor="end" transform="translate(-7,304)" font-family="sans-serif" font-size="12px" fill="#000" opacity="1">0</text><text text-anchor="end" transform="translate(-7,270.66666666666663)" font-family="sans-serif" font-size="12px" fill="#000" opacity="1">100</text><text text-anchor="end" transform="translate(-7,237.33333333333334)" font-family="sans-serif" font-size="12px" fill="#000" opacity="1">200</text><text text-anchor="end" transform="translate(-7,204.00000000000003)" font-family="sans-serif" font-size="12px" fill="#000" opacity="1">300</text><text text-anchor="end" transform="translate(-7,170.66666666666669)" font-family="sans-serif" font-size="12px" fill="#000" opacity="1">400</text><text text-anchor="end" transform="translate(-7,137.33333333333331)" font-family="sans-serif" font-size="12px" fill="#000" opacity="1">500</text><text text-anchor="end" transform="translate(-7,104.00000000000001)" font-family="sans-serif" font-size="12px" fill="#000" opacity="1">600</text><text text-anchor="end" transform="translate(-7,70.66666666666666)" font-family="sans-serif" font-size="12px" fill="#000" opacity="1">700</text><text text-anchor="end" transform="translate(-7,37.33333333333335)" font-family="sans-serif" font-size="12px" fill="#000" opacity="1">800</text><text text-anchor="end" transform="translate(-7,4)" font-family="sans-serif" font-size="12px" fill="#000" opacity="1">900</text></g><g class="mark-rule role-axis-domain" pointer-events="none"><line transform="translate(0,300)" x2="0" y2="-300" stroke="#888" stroke-width="1" opacity="1"/></g><g class="mark-text role-axis-title" pointer-events="none"><text text-anchor="middle" transform="translate(-37.021484375,150) rotate(-90) translate(0,-3)" font-family="Arial" font-size="14px" font-weight="bold" fill="#000" opacity="1">Number of Nouns</text></g></g><path class="foreground" aria-hidden="true" d="" pointer-events="none" display="none"/></g></g><g class="mark-group role-scope pathgroup" role="graphics-object" aria-roledescription="group mark container"><g transform="translate(0,0)"><path class="background" aria-hidden="true" d="M0,0h400v300h-400Z"/><g><g class="mark-line role-mark marks" role="graphics-symbol" aria-roledescription="line mark container"><path d="M20,21.333333333333336L26.666666666666668,64.66666666666666L33.33333333333333,97.66666666666669L40,118.66666666666667L46.666666666666664,140L53.333333333333336,154.66666666666666L60,165.66666666666666L66.66666666666666,174.99999999999997L73.33333333333333,185L80,192.66666666666669L86.66666666666667,197.66666666666666L93.33333333333333,202L100,208.66666666666666L106.66666666666667,215.33333333333334L113.33333333333333,219L120,222.33333333333331L126.66666666666666,226L133.33333333333331,229L140,233.33333333333334L146.66666666666666,237L153.33333333333334,239L160,241L166.66666666666669,243.00000000000003L173.33333333333334,245.33333333333331L180,246.33333333333334L186.66666666666666,246.66666666666666L193.33333333333334,248L200,249.33333333333334L206.66666666666669,251L213.33333333333334,252.33333333333334L220.00000000000003,253.33333333333334L226.66666666666666,254.66666666666669L233.33333333333334,255.33333333333334L240,255.66666666666666L246.66666666666669,257L253.33333333333331,257.6666666666667L260,258.6666666666667L266.66666666666663,260L273.3333333333333,261L280,261.6666666666667L286.6666666666667,262.6666666666667L293.3333333333333,263L300,264L306.6666666666667,265.33333333333337L313.3333333333333,266L320,266.66666666666663L326.6666666666667,267L333.33333333333337,267.3333333333333L340,269L346.6666666666667,269.66666666666663L353.3333333333333,270.3333333333333L360,271L366.66666666666663,271.3333333333333L373.3333333333333,271.6666666666667L380,272.3333333333333L386.6666666666667,272.66666666666663L393.3333333333333,273.6666666666667" stroke="#1f77b4" stroke-width="2" stroke-dasharray="1,0"/></g></g><path class="foreground" aria-hidden="true" d="" display="none"/></g><g transform="translate(0,0)"><path class="background" aria-hidden="true" d="M0,0h400v300h-400Z"/><g><g class="mark-line role-mark marks" role="graphics-symbol" aria-roledescription="line mark container"><path d="M20,25.00000000000001L26.666666666666668,80.33333333333333L33.33333333333333,118.99999999999999L40,147L46.666666666666664,167L53.333333333333336,184.66666666666669L60,200.66666666666666L66.66666666666666,212.33333333333334L73.33333333333333,221.33333333333331L80,231L86.66666666666667,237.33333333333334L93.33333333333333,241.66666666666669L100,247L106.66666666666667,249.66666666666666L113.33333333333333,254L120,257L126.66666666666666,259.3333333333333L133.33333333333331,261L140,265L146.66666666666666,267.3333333333333L153.33333333333334,268.33333333333337L160,270.6666666666667L166.66666666666669,273L173.33333333333334,274L180,276.6666666666667L186.66666666666666,276.6666666666667L193.33333333333334,277.6666666666667L200,278.6666666666667L206.66666666666669,280L213.33333333333334,280.3333333333333L220.00000000000003,280.6666666666667L226.66666666666666,282L233.33333333333334,282.66666666666663L240,283L246.66666666666669,284L253.33333333333331,284.33333333333337L260,285.3333333333333L266.66666666666663,285.6666666666667L273.3333333333333,286L280,287L286.6666666666667,287L293.3333333333333,287.6666666666667L300,287.6666666666667L306.6666666666667,288L313.3333333333333,288.6666666666667L320,289L326.6666666666667,289.3333333333333L333.33333333333337,289.3333333333333L340,289.3333333333333L346.6666666666667,289.3333333333333L353.3333333333333,289.66666666666663L360,290L366.66666666666663,290L373.3333333333333,290.3333333333333L380,291L386.6666666666667,291.33333333333337L393.3333333333333,291.33333333333337" stroke="#ff7f0e" stroke-width="2" stroke-dasharray="4,2"/></g></g><path class="foreground" aria-hidden="true" d="" display="none"/></g><g transform="translate(0,0)"><path class="background" aria-hidden="true" d="M0,0h400v300h-400Z"/><g><g class="mark-line role-mark marks" role="graphics-symbol" aria-roledescription="line mark container"><path d="M20,35.66666666666668L26.666666666666668,75L33.33333333333333,106.33333333333333L40,122.33333333333334L46.666666666666664,141.66666666666666L53.333333333333336,158.66666666666669L60,170L66.66666666666666,180.66666666666666L73.33333333333333,191L80,200.99999999999997L86.66666666666667,206.99999999999997L93.33333333333333,213.66666666666666L100,219.66666666666666L106.66666666666667,223.99999999999997L113.33333333333333,230.33333333333334L120,234L126.66666666666666,237.66666666666666L133.33333333333331,241L140,242.33333333333334L146.66666666666666,244L153.33333333333334,247L160,249L166.66666666666669,251.33333333333331L173.33333333333334,254.33333333333331L180,256.3333333333333L186.66666666666666,258L193.33333333333334,259L200,260.3333333333333L206.66666666666669,262.3333333333333L213.33333333333334,263.3333333333333L220.00000000000003,264.6666666666667L226.66666666666666,266.3333333333333L233.33333333333334,267.6666666666667L240,268.33333333333337L246.66666666666669,269.66666666666663L253.33333333333331,270.3333333333333L260,271.3333333333333L266.66666666666663,271.6666666666667L273.3333333333333,272L280,272.3333333333333L286.6666666666667,273L293.3333333333333,274L300,274.3333333333333L306.6666666666667,275.6666666666667L313.3333333333333,276.6666666666667L320,277.3333333333333L326.6666666666667,278.33333333333337L333.33333333333337,278.33333333333337L340,279.3333333333333L346.6666666666667,280.6666666666667L353.3333333333333,281L360,281.33333333333337L366.66666666666663,281.6666666666667L373.3333333333333,281.6666666666667L380,282.3333333333333L386.6666666666667,283L393.3333333333333,283.6666666666667" stroke="#2ca02c" stroke-width="2" stroke-dasharray="2,1"/></g></g><path class="foreground" aria-hidden="true" d="" display="none"/></g><g transform="translate(0,0)"><path class="background" aria-hidden="true" d="M0,0h400v300h-400Z"/><g><g class="mark-line role-mark marks" role="graphics-symbol" aria-roledescription="line mark container"><path d="M20,50.66666666666666L26.666666666666668,95.66666666666667L33.33333333333333,132.66666666666666L40,156.66666666666663L46.666666666666664,174.66666666666666L53.333333333333336,192.33333333333334L60,207.66666666666669L66.66666666666666,214.66666666666666L73.33333333333333,224.33333333333334L80,230.66666666666669L86.66666666666667,238L93.33333333333333,244L100,248L106.66666666666667,251.33333333333331L113.33333333333333,254.33333333333331L120,257.6666666666667L126.66666666666666,262L133.33333333333331,263L140,263.66666666666663L146.66666666666666,266L153.33333333333334,267L160,268L166.66666666666669,269L173.33333333333334,269.66666666666663L180,270.3333333333333L186.66666666666666,271.6666666666667L193.33333333333334,273.3333333333333L200,274.6666666666667L206.66666666666669,275.6666666666667L213.33333333333334,277.3333333333333L220.00000000000003,278L226.66666666666666,278.6666666666667L233.33333333333334,279.3333333333333L240,280.6666666666667L246.66666666666669,281.6666666666667L253.33333333333331,282.3333333333333L260,282.66666666666663L266.66666666666663,283L273.3333333333333,283.6666666666667L280,284L286.6666666666667,284.6666666666667L293.3333333333333,285L300,286L306.6666666666667,287L313.3333333333333,287.3333333333333L320,287.6666666666667L326.6666666666667,287.6666666666667L333.33333333333337,289L340,289.3333333333333L346.6666666666667,289.3333333333333L353.3333333333333,289.3333333333333L360,290L366.66666666666663,290.3333333333333L373.3333333333333,290.3333333333333L380,290.3333333333333L386.6666666666667,290.3333333333333L393.3333333333333,290.3333333333333" stroke="#d62728" stroke-width="2" stroke-dasharray="1,1"/></g></g><path class="foreground" aria-hidden="true" d="" display="none"/></g><g transform="translate(0,0)"><path class="background" aria-hidden="true" d="M0,0h400v300h-400Z"/><g><g class="mark-line role-mark marks" role="graphics-symbol" aria-roledescription="line mark container"><path d="M20,249.66666666666666L26.666666666666668,262.3333333333333L33.33333333333333,268.33333333333337L40,274L46.666666666666664,278.6666666666667L53.333333333333336,279L60,281.33333333333337L66.66666666666666,283.3333333333333L73.33333333333333,285.6666666666667L80,287.6666666666667L86.66666666666667,288.6666666666667L93.33333333333333,290.6666666666667L100,291L106.66666666666667,291.33333333333337L113.33333333333333,292L120,292.3333333333333L126.66666666666666,292.66666666666663L133.33333333333331,293L140,293.3333333333333L146.66666666666666,293.3333333333333L153.33333333333334,293.3333333333333L160,294L166.66666666666669,294.33333333333337L173.33333333333334,294.6666666666667L180,295L186.66666666666666,295L193.33333333333334,295.3333333333333L200,295.66666666666663L206.66666666666669,296L213.33333333333334,296L220.00000000000003,296L226.66666666666666,296L233.33333333333334,296.6666666666667L240,296.6666666666667L246.66666666666669,296.6666666666667L253.33333333333331,296.6666666666667L260,296.6666666666667L266.66666666666663,296.6666666666667L273.3333333333333,296.6666666666667L280,296.6666666666667L286.6666666666667,296.6666666666667L293.3333333333333,296.6666666666667L300,296.6666666666667L306.6666666666667,296.6666666666667L313.3333333333333,297L320,297L326.6666666666667,297.33333333333337L333.33333333333337,297.6666666666667L340,297.6666666666667L346.6666666666667,297.6666666666667L353.3333333333333,297.6666666666667L360,298L366.66666666666663,298L373.3333333333333,298.6666666666667L380,298.6666666666667L386.6666666666667,298.6666666666667L393.3333333333333,298.6666666666667" stroke="#9467bd" stroke-width="2" stroke-dasharray="1,2,4,2"/></g></g><path class="foreground" aria-hidden="true" d="" display="none"/></g></g><g class="mark-group role-legend" role="graphics-symbol" aria-roledescription="legend" aria-label="Symbol legend titled 'Dataset' for stroke color and strokeDash with 5 values: VidSitu, MPII, AC, VATEX-en, MSRVTT"><g transform="translate(293,18)"><path class="background" aria-hidden="true" d="M0,0h89v103h-89Z" pointer-events="none" fill="white"/><g><g class="mark-group role-legend-entry"><g transform="translate(3,22)"><path class="background" aria-hidden="true" d="M0,0h0v0h0Z" pointer-events="none"/><g><g class="mark-group role-scope" role="graphics-object" aria-roledescription="group mark container"><g transform="translate(0,0)"><path class="background" aria-hidden="true" d="M0,0h82.0732421875v14h-82.0732421875Z" pointer-events="none" opacity="1"/><g><g class="mark-symbol role-legend-symbol" pointer-events="none"><path transform="translate(7,7)" d="M-5,0L5,0" stroke="#1f77b4" stroke-width="1.5" stroke-dasharray="1,0" opacity="1"/></g><g class="mark-text role-legend-label" pointer-events="none"><text text-anchor="start" transform="translate(18,11)" font-family="sans-serif" font-size="14px" font-style="italic" fill="#000" opacity="1">VidSitu</text></g></g><path class="foreground" aria-hidden="true" d="" pointer-events="none" display="none"/></g><g transform="translate(0,16)"><path class="background" aria-hidden="true" d="M0,0h82.0732421875v14h-82.0732421875Z" pointer-events="none" opacity="1"/><g><g class="mark-symbol role-legend-symbol" pointer-events="none"><path transform="translate(7,7)" d="M-5,0L5,0" stroke="#ff7f0e" stroke-width="1.5" stroke-dasharray="4,2" opacity="1"/></g><g class="mark-text role-legend-label" pointer-events="none"><text text-anchor="start" transform="translate(18,11)" font-family="sans-serif" font-size="14px" font-style="italic" fill="#000" opacity="1">MPII</text></g></g><path class="foreground" aria-hidden="true" d="" pointer-events="none" display="none"/></g><g transform="translate(0,32)"><path class="background" aria-hidden="true" d="M0,0h82.0732421875v14h-82.0732421875Z" pointer-events="none" opacity="1"/><g><g class="mark-symbol role-legend-symbol" pointer-events="none"><path transform="translate(7,7)" d="M-5,0L5,0" stroke="#2ca02c" stroke-width="1.5" stroke-dasharray="2,1" opacity="1"/></g><g class="mark-text role-legend-label" pointer-events="none"><text text-anchor="start" transform="translate(18,11)" font-family="sans-serif" font-size="14px" font-style="italic" fill="#000" opacity="1">AC</text></g></g><path class="foreground" aria-hidden="true" d="" pointer-events="none" display="none"/></g><g transform="translate(0,48)"><path class="background" aria-hidden="true" d="M0,0h82.0732421875v14h-82.0732421875Z" pointer-events="none" opacity="1"/><g><g class="mark-symbol role-legend-symbol" pointer-events="none"><path transform="translate(7,7)" d="M-5,0L5,0" stroke="#d62728" stroke-width="1.5" stroke-dasharray="1,1" opacity="1"/></g><g class="mark-text role-legend-label" pointer-events="none"><text text-anchor="start" transform="translate(18,11)" font-family="sans-serif" font-size="14px" font-style="italic" fill="#000" opacity="1">VATEX-en</text></g></g><path class="foreground" aria-hidden="true" d="" pointer-events="none" display="none"/></g><g transform="translate(0,64)"><path class="background" aria-hidden="true" d="M0,0h82.0732421875v14h-82.0732421875Z" pointer-events="none" opacity="1"/><g><g class="mark-symbol role-legend-symbol" pointer-events="none"><path transform="translate(7,7)" d="M-5,0L5,0" stroke="#9467bd" stroke-width="1.5" stroke-dasharray="1,2,4,2" opacity="1"/></g><g class="mark-text role-legend-label" pointer-events="none"><text text-anchor="start" transform="translate(18,11)" font-family="sans-serif" font-size="14px" font-style="italic" fill="#000" opacity="1">MSRVTT</text></g></g><path class="foreground" aria-hidden="true" d="" pointer-events="none" display="none"/></g></g></g><path class="foreground" aria-hidden="true" d="" pointer-events="none" display="none"/></g></g><g class="mark-text role-legend-title" pointer-events="none"><text text-anchor="start" transform="translate(3,14)" font-family="sans-serif" font-size="14px" font-weight="bold" fill="#000" opacity="1">Dataset</text></g></g><path class="foreground" aria-hidden="true" d="" pointer-events="none" display="none"/></g></g><g class="mark-group role-title"><g transform="translate(200,-30)"><path class="background" aria-hidden="true" d="M0,0h0v0h0Z" pointer-events="none"/><g><g class="mark-text role-title-text" role="graphics-symbol" aria-roledescription="title" aria-label="Title text 'Noun Diversity'" pointer-events="none"><text text-anchor="middle" transform="translate(0,16)" font-family="Courier" font-size="20px" font-weight="bold" fill="black" opacity="1">Noun Diversity</text></g></g><path class="foreground" aria-hidden="true" d="" pointer-events="none" display="none"/></g></g></g><path class="foreground" aria-hidden="true" d="" display="none"/></g></g></g></svg>