<svg xmlns="http://www.w3.org/2000/svg" xmlns:xlink="http://www.w3.org/1999/xlink" version="1.1" class="marks" width="463" height="382" viewBox="0 0 463 382"><rect width="463" height="382" fill="white"/><g fill="none" stroke-miterlimit="10" transform="translate(57,35)"><g class="mark-group role-frame root" role="graphics-object" aria-roledescription="group mark container"><g transform="translate(0,0)"><path class="background" aria-hidden="true" d="M0.5,0.5h400v300h-400Z" stroke="#ddd"/><g><g class="mark-group role-axis" role="graphics-symbol" aria-roledescription="axis" aria-label="X-axis for a linear scale with values from 20 to 300"><g transform="translate(0.5,300.5)"><path class="background" aria-hidden="true" d="M0,0h0v0h0Z" pointer-events="none"/><g><g class="mark-rule role-axis-grid" pointer-events="none"><line transform="translate(0,-300)" x2="0" y2="300" stroke="#ddd" stroke-width="1" opacity="1"/><line transform="translate(29,-300)" x2="0" y2="300" stroke="#ddd" stroke-width="1" opacity="1"/><line transform="translate(57,-300)" x2="0" y2="300" stroke="#ddd" stroke-width="1" opacity="1"/><line transform="translate(86,-300)" x2="0" y2="300" stroke="#ddd" stroke-width="1" opacity="1"/><line transform="translate(114,-300)" x2="0" y2="300" stroke="#ddd" stroke-width="1" opacity="1"/><line transform="translate(143,-300)" x2="0" y2="300" stroke="#ddd" stroke-width="1" opacity="1"/><line transform="translate(171,-300)" x2="0" y2="300" stroke="#ddd" stroke-width="1" opacity="1"/><line transform="translate(200,-300)" x2="0" y2="300" stroke="#ddd" stroke-width="1" opacity="1"/><line transform="translate(229,-300)" x2="0" y2="300" stroke="#ddd" stroke-width="1" opacity="1"/><line transform="translate(257,-300)" x2="0" y2="300" stroke="#ddd" stroke-width="1" opacity="1"/><line transform="translate(286,-300)" x2="0" y2="300" stroke="#ddd" stroke-width="1" opacity="1"/><line transform="translate(314,-300)" x2="0" y2="300" stroke="#ddd" stroke-width="1" opacity="1"/><line transform="translate(343,-300)" x2="0" y2="300" stroke="#ddd" stroke-width="1" opacity="1"/><line transform="translate(371,-300)" x2="0" y2="300" stroke="#ddd" stroke-width="1" opacity="1"/><line transform="translate(400,-300)" x2="0" y2="300" stroke="#ddd" stroke-width="1" opacity="1"/></g></g><path class="foreground" aria-hidden="true" d="" pointer-events="none" display="none"/></g></g><g class="mark-group role-axis" role="graphics-symbol" aria-roledescription="axis" aria-label="Y-axis for a linear scale with values from 0 to 800"><g transform="translate(0.5,0.5)"><path class="background" aria-hidden="true" d="M0,0h0v0h0Z" pointer-events="none"/><g><g class="mark-rule role-axis-grid" pointer-events="none"><line transform="translate(0,300)" x2="400" y2="0" stroke="#ddd" stroke-width="1" opacity="1"/><line transform="translate(0,263)" x2="400" y2="0" stroke="#ddd" stroke-width="1" opacity="1"/><line transform="translate(0,225)" x2="400" y2="0" stroke="#ddd" stroke-width="1" opacity="1"/><line transform="translate(0,188)" x2="400" y2="0" stroke="#ddd" stroke-width="1" opacity="1"/><line transform="translate(0,150)" x2="400" y2="0" stroke="#ddd" stroke-width="1" opacity="1"/><line transform="translate(0,113)" x2="400" y2="0" stroke="#ddd" stroke-width="1" opacity="1"/><line transform="translate(0,75)" x2="400" y2="0" stroke="#ddd" stroke-width="1" opacity="1"/><line transform="translate(0,38)" x2="400" y2="0" stroke="#ddd" stroke-width="1" opacity="1"/><line transform="translate(0,0)" x2="400" y2="0" stroke="#ddd" stroke-width="1" opacity="1"/></g></g><path class="foreground" aria-hidden="true" d="" pointer-events="none" display="none"/></g></g><g class="mark-group role-axis" role="graphics-symbol" aria-roledescription="axis" aria-label="X-axis titled 'Number of Unique Verbs' for a linear scale with values from 20 to 300"><g transform="translate(0.5,300.5)"><path class="background" aria-hidden="true" d="M0,0h0v0h0Z" pointer-events="none"/><g><g class="mark-rule role-axis-tick" pointer-events="none"><line transform="translate(0,0)" x2="0" y2="5" stroke="#888" stroke-width="1" opacity="1"/><line transform="translate(29,0)" x2="0" y2="5" stroke="#888" stroke-width="1" opacity="1"/><line transform="translate(57,0)" x2="0" y2="5" stroke="#888" stroke-width="1" opacity="1"/><line transform="translate(86,0)" x2="0" y2="5" stroke="#888" stroke-width="1" opacity="1"/><line transform="translate(114,0)" x2="0" y2="5" stroke="#888" stroke-width="1" opacity="1"/><line transform="translate(143,0)" x2="0" y2="5" stroke="#888" stroke-width="1" opacity="1"/><line transform="translate(171,0)" x2="0" y2="5" stroke="#888" stroke-width="1" opacity="1"/><line transform="translate(200,0)" x2="0" y2="5" stroke="#888" stroke-width="1" opacity="1"/><line transform="translate(229,0)" x2="0" y2="5" stroke="#888" stroke-width="1" opacity="1"/><line transform="translate(257,0)" x2="0" y2="5" stroke="#888" stroke-width="1" opacity="1"/><line transform="translate(286,0)" x2="0" y2="5" stroke="#888" stroke-width="1" opacity="1"/><line transform="translate(314,0)" x2="0" y2="5" stroke="#888" stroke-width="1" opacity="1"/><line transform="translate(343,0)" x2="0" y2="5" stroke="#888" stroke-width="1" opacity="1"/><line transform="translate(371,0)" x2="0" y2="5" stroke="#888" stroke-width="1" opacity="1"/><line transform="translate(400,0)" x2="0" y2="5" stroke="#888" stroke-width="1" opacity="1"/></g><g class="mark-text role-axis-label" pointer-events="none"><text text-anchor="start" transform="translate(0,16)" font-family="sans-serif" font-size="12px" fill="#000" opacity="1">20</text><text text-anchor="middle" transform="translate(28.57142857142857,16)" font-family="sans-serif" font-size="12px" fill="#000" opacity="0">40</text><text text-anchor="middle" transform="translate(57.14285714285714,16)" font-family="sans-serif" font-size="12px" fill="#000" opacity="1">60</text><text text-anchor="middle" transform="translate(85.71428571428571,16)" font-family="sans-serif" font-size="12px" fill="#000" opacity="0">80</text><text text-anchor="middle" transform="translate(114.28571428571428,16)" font-family="sans-serif" font-size="12px" fill="#000" opacity="1">100</text><text text-anchor="middle" transform="translate(142.85714285714286,16)" font-family="sans-serif" font-size="12px" fill="#000" opacity="0">120</text><text text-anchor="middle" transform="translate(171.42857142857142,16)" font-family="sans-serif" font-size="12px" fill="#000" opacity="1">140</text><text text-anchor="middle" transform="translate(200,16)" font-family="sans-serif" font-size="12px" fill="#000" opacity="0">160</text><text text-anchor="middle" transform="translate(228.57142857142856,16)" font-family="sans-serif" font-size="12px" fill="#000" opacity="1">180</text><text text-anchor="middle" transform="translate(257.14285714285717,16)" font-family="sans-serif" font-size="12px" fill="#000" opacity="0">200</text><text text-anchor="middle" transform="translate(285.7142857142857,16)" font-family="sans-serif" font-size="12px" fill="#000" opacity="1">220</text><text text-anchor="middle" transform="translate(314.2857142857143,16)" font-family="sans-serif" font-size="12px" fill="#000" opacity="0">240</text><text text-anchor="middle" transform="translate(342.85714285714283,16)" font-family="sans-serif" font-size="12px" fill="#000" opacity="1">260</text><text text-anchor="middle" transform="translate(371.42857142857144,16)" font-family="sans-serif" font-size="12px" fill="#000" opacity="0">280</text><text text-anchor="end" transform="translate(400,16)" font-family="sans-serif" font-size="12px" fill="#000" opacity="1">300</text></g><g class="mark-rule role-axis-domain" pointer-events="none"><line transform="translate(0,0)" x2="400" y2="0" stroke="#888" stroke-width="1" opacity="1"/></g><g class="mark-text role-axis-title" pointer-events="none"><text text-anchor="middle" transform="translate(200,39)" font-family="Arial" font-size="14px" font-weight="bold" fill="#000" opacity="1">Number of Unique Verbs</text></g></g><path class="foreground" aria-hidden="true" d="" pointer-events="none" display="none"/></g></g><g class="mark-group role-axis" role="graphics-symbol" aria-roledescription="axis" aria-label="Y-axis titled 'Number of Unique Nouns' for a linear scale with values from 0 to 800"><g transform="translate(0.5,0.5)"><path class="background" aria-hidden="true" d="M0,0h0v0h0Z" pointer-events="none"/><g><g class="mark-rule role-axis-tick" pointer-events="none"><line transform="translate(0,300)" x2="-5" y2="0" stroke="#888" stroke-width="1" opacity="1"/><line transform="translate(0,263)" x2="-5" y2="0" stroke="#888" stroke-width="1" opacity="1"/><line transform="translate(0,225)" x2="-5" y2="0" stroke="#888" stroke-width="1" opacity="1"/><line transform="translate(0,188)" x2="-5" y2="0" stroke="#888" stroke-width="1" opacity="1"/><line transform="translate(0,150)" x2="-5" y2="0" stroke="#888" stroke-width="1" opacity="1"/><line transform="translate(0,113)" x2="-5" y2="0" stroke="#888" stroke-width="1" opacity="1"/><line transform="translate(0,75)" x2="-5" y2="0" stroke="#888" stroke-width="1" opacity="1"/><line transform="translate(0,38)" x2="-5" y2="0" stroke="#888" stroke-width="1" opacity="1"/><line transform="translate(0,0)" x2="-5" y2="0" stroke="#888" stroke-width="1" opacity="1"/></g><g class="mark-text role-axis-label" pointer-events="none"><text text-anchor="end" transform="translate(-7,304)" font-family="sans-serif" font-size="12px" fill="#000" opacity="1">0</text><text text-anchor="end" transform="translate(-7,266.5)" font-family="sans-serif" font-size="12px" fill="#000" opacity="1">100</text><text text-anchor="end" transform="translate(-7,229)" font-family="sans-serif" font-size="12px" fill="#000" opacity="1">200</text><text text-anchor="end" transform="translate(-7,191.5)" font-family="sans-serif" font-size="12px" fill="#000" opacity="1">300</text><text text-anchor="end" transform="translate(-7,154)" font-family="sans-serif" font-size="12px" fill="#000" opacity="1">400</text><text text-anchor="end" transform="translate(-7,116.5)" font-family="sans-serif" font-size="12px" fill="#000" opacity="1">500</text><text text-anchor="end" transform="translate(-7,79)" font-family="sans-serif" font-size="12px" fill="#000" opacity="1">600</text><text text-anchor="end" transform="translate(-7,41.5)" font-family="sans-serif" font-size="12px" fill="#000" opacity="1">700</text><text text-anchor="end" transform="translate(-7,4)" font-family="sans-serif" font-size="12px" fill="#000" opacity="1">800</text></g><g class="mark-rule role-axis-domain" pointer-events="none"><line transform="translate(0,300)" x2="0" y2="-300" stroke="#888" stroke-width="1" opacity="1"/></g><g class="mark-text role-axis-title" pointer-events="none"><text text-anchor="middle" transform="translate(-37.021484375,150) rotate(-90) translate(0,-3)" font-family="Arial" font-size="14px" font-weight="bold" fill="#000" opacity="1">Number of Unique Nouns</text></g></g><path class="foreground" aria-hidden="true" d="" pointer-events="none" display="none"/></g></g><g class="mark-group role-scope pathgroup" role="graphics-object" aria-roledescription="group mark container"><g transform="translate(0,0)"><path class="background" aria-hidden="true" d="M0,0h400v300h-400Z"/><g><g class="mark-line role-mark marks" role="graphics-symbol" aria-roledescription="line mark container"><path d="M14.285714285714285,64.87500000000001L28.57142857142857,113.24999999999999L42.857142857142854,153.75L57.14285714285714,177.37500000000003L71.42857142857143,194.62499999999997L85.71428571428571,211.125L100,223.5L114.28571428571428,235.5L128.57142857142858,242.625L142.85714285714286,246.75L157.14285714285714,251.25L171.42857142857142,254.25L185.71428571428572,259.875L200,262.5L214.28571428571428,267.375L228.57142857142856,269.25L242.85714285714283,273L257.14285714285717,276.375L271.42857142857144,279L285.7142857142857,280.125L300,281.25L314.2857142857143,282L328.57142857142856,283.125L342.85714285714283,284.25L357.14285714285717,285.375L371.42857142857144,286.125L385.7142857142857,287.25" stroke="#1f77b4" stroke-width="2" stroke-dasharray="1,0"/></g></g><path class="foreground" aria-hidden="true" d="" display="none"/></g><g transform="translate(0,0)"><path class="background" aria-hidden="true" d="M0,0h400v300h-400Z"/><g><g class="mark-line role-mark marks" role="graphics-symbol" aria-roledescription="line mark container"><path d="M14.285714285714285,26.625L28.57142857142857,99.75L42.857142857142854,149.625L57.14285714285714,179.24999999999997L71.42857142857143,198.375L85.71428571428571,214.87500000000003L100,232.12499999999997L114.28571428571428,246.375L128.57142857142858,255.37500000000003L142.85714285714286,261.375L157.14285714285714,264.375L171.42857142857142,271.5L185.71428571428572,275.625L200,279.375L214.28571428571428,281.625L228.57142857142856,284.25L242.85714285714283,285.375L257.14285714285717,286.875L271.42857142857144,287.625L285.7142857142857,289.875L300,290.625L314.2857142857143,291.375L328.57142857142856,292.5L342.85714285714283,292.5L357.14285714285717,293.625L371.42857142857144,294L385.7142857142857,295.125" stroke="#ff7f0e" stroke-width="2" stroke-dasharray="4,2"/></g></g><path class="foreground" aria-hidden="true" d="" display="none"/></g><g transform="translate(0,0)"><path class="background" aria-hidden="true" d="M0,0h400v300h-400Z"/><g><g class="mark-line role-mark marks" role="graphics-symbol" aria-roledescription="line mark container"><path d="M14.285714285714285,65.625L28.57142857142857,129.00000000000003L42.857142857142854,163.49999999999997L57.14285714285714,193.875L71.42857142857143,215.25L85.71428571428571,231L100,243.75L114.28571428571428,259.5L128.57142857142858,265.875L142.85714285714286,272.25L157.14285714285714,275.625L171.42857142857142,277.125L185.71428571428572,278.625L200,280.125L214.28571428571428,284.25L228.57142857142856,284.625L242.85714285714283,285.375L257.14285714285717,289.875L271.42857142857144,291.375L285.7142857142857,292.5L300,293.25L314.2857142857143,293.625L328.57142857142856,294.375L342.85714285714283,294.75L357.14285714285717,295.125L371.42857142857144,295.5L385.7142857142857,295.875" stroke="#2ca02c" stroke-width="2" stroke-dasharray="2,1"/></g></g><path class="foreground" aria-hidden="true" d="" display="none"/></g><g transform="translate(0,0)"><path class="background" aria-hidden="true" d="M0,0h400v300h-400Z"/><g><g class="mark-line role-mark marks" role="graphics-symbol" aria-roledescription="line mark container"><path d="M14.285714285714285,96.37500000000001L28.57142857142857,151.12499999999997L42.857142857142854,188.24999999999997L57.14285714285714,218.25L71.42857142857143,234L85.71428571428571,247.5L100,256.125L114.28571428571428,262.125L128.57142857142858,267.375L142.85714285714286,270.375L157.14285714285714,274.5L171.42857142857142,277.5L185.71428571428572,280.125L200,282.75L214.28571428571428,286.125L228.57142857142856,287.625L242.85714285714283,288.75L257.14285714285717,290.625L271.42857142857144,291.375L285.7142857142857,292.125L300,292.875L314.2857142857143,293.625L328.57142857142856,294.75L342.85714285714283,294.75L357.14285714285717,294.75L371.42857142857144,295.875L385.7142857142857,295.875" stroke="#d62728" stroke-width="2" stroke-dasharray="1,1"/></g></g><path class="foreground" aria-hidden="true" d="" display="none"/></g><g transform="translate(0,0)"><path class="background" aria-hidden="true" d="M0,0h400v300h-400Z"/><g><g class="mark-line role-mark marks" role="graphics-symbol" aria-roledescription="line mark container"><path d="M14.285714285714285,265.5L28.57142857142857,279.75L42.857142857142854,286.125L57.14285714285714,290.25L71.42857142857143,291.75L85.71428571428571,293.625L100,294L114.28571428571428,294.75L128.57142857142858,294.75L142.85714285714286,295.875L157.14285714285714,296.625L171.42857142857142,297.375L185.71428571428572,298.125L200,298.5L214.28571428571428,298.5L228.57142857142856,298.5L242.85714285714283,298.875L257.14285714285717,298.875L271.42857142857144,298.875L285.7142857142857,298.875L300,299.25L314.2857142857143,299.25L328.57142857142856,299.25L342.85714285714283,299.625L357.14285714285717,299.625L371.42857142857144,299.625L385.7142857142857,299.625" stroke="#9467bd" stroke-width="2" stroke-dasharray="1,2,4,2"/></g></g><path class="foreground" aria-hidden="true" d="" display="none"/></g></g><g class="mark-group role-legend" role="graphics-symbol" aria-roledescription="legend" aria-label="Symbol legend titled 'Dataset' for stroke color and strokeDash with 5 values: VidSitu, MPII, AC, VATEX-en, MSRVTT"><g transform="translate(293,18)"><path class="background" aria-hidden="true" d="M0,0h89v103h-89Z" pointer-events="none" fill="white"/><g><g class="mark-group role-legend-entry"><g transform="translate(3,22)"><path class="background" aria-hidden="true" d="M0,0h0v0h0Z" pointer-events="none"/><g><g class="mark-group role-scope" role="graphics-object" aria-roledescription="group mark container"><g transform="translate(0,0)"><path class="background" aria-hidden="true" d="M0,0h82.0732421875v14h-82.0732421875Z" pointer-events="none" opacity="1"/><g><g class="mark-symbol role-legend-symbol" pointer-events="none"><path transform="translate(7,7)" d="M-5,0L5,0" stroke="#1f77b4" stroke-width="1.5" stroke-dasharray="1,0" opacity="1"/></g><g class="mark-text role-legend-label" pointer-events="none"><text text-anchor="start" transform="translate(18,11)" font-family="sans-serif" font-size="14px" font-style="italic" fill="#000" opacity="1">VidSitu</text></g></g><path class="foreground" aria-hidden="true" d="" pointer-events="none" display="none"/></g><g transform="translate(0,16)"><path class="background" aria-hidden="true" d="M0,0h82.0732421875v14h-82.0732421875Z" pointer-events="none" opacity="1"/><g><g class="mark-symbol role-legend-symbol" pointer-events="none"><path transform="translate(7,7)" d="M-5,0L5,0" stroke="#ff7f0e" stroke-width="1.5" stroke-dasharray="4,2" opacity="1"/></g><g class="mark-text role-legend-label" pointer-events="none"><text text-anchor="start" transform="translate(18,11)" font-family="sans-serif" font-size="14px" font-style="italic" fill="#000" opacity="1">MPII</text></g></g><path class="foreground" aria-hidden="true" d="" pointer-events="none" display="none"/></g><g transform="translate(0,32)"><path class="background" aria-hidden="true" d="M0,0h82.0732421875v14h-82.0732421875Z" pointer-events="none" opacity="1"/><g><g class="mark-symbol role-legend-symbol" pointer-events="none"><path transform="translate(7,7)" d="M-5,0L5,0" stroke="#2ca02c" stroke-width="1.5" stroke-dasharray="2,1" opacity="1"/></g><g class="mark-text role-legend-label" pointer-events="none"><text text-anchor="start" transform="translate(18,11)" font-family="sans-serif" font-size="14px" font-style="italic" fill="#000" opacity="1">AC</text></g></g><path class="foreground" aria-hidden="true" d="" pointer-events="none" display="none"/></g><g transform="translate(0,48)"><path class="background" aria-hidden="true" d="M0,0h82.0732421875v14h-82.0732421875Z" pointer-events="none" opacity="1"/><g><g class="mark-symbol role-legend-symbol" pointer-events="none"><path transform="translate(7,7)" d="M-5,0L5,0" stroke="#d62728" stroke-width="1.5" stroke-dasharray="1,1" opacity="1"/></g><g class="mark-text role-legend-label" pointer-events="none"><text text-anchor="start" transform="translate(18,11)" font-family="sans-serif" font-size="14px" font-style="italic" fill="#000" opacity="1">VATEX-en</text></g></g><path class="foreground" aria-hidden="true" d="" pointer-events="none" display="none"/></g><g transform="translate(0,64)"><path class="background" aria-hidden="true" d="M0,0h82.0732421875v14h-82.0732421875Z" pointer-events="none" opacity="1"/><g><g class="mark-symbol role-legend-symbol" pointer-events="none"><path transform="translate(7,7)" d="M-5,0L5,0" stroke="#9467bd" stroke-width="1.5" stroke-dasharray="1,2,4,2" opacity="1"/></g><g class="mark-text role-legend-label" pointer-events="none"><text text-anchor="start" transform="translate(18,11)" font-family="sans-serif" font-size="14px" font-style="italic" fill="#000" opacity="1">MSRVTT</text></g></g><path class="foreground" aria-hidden="true" d="" pointer-events="none" display="none"/></g></g></g><path class="foreground" aria-hidden="true" d="" pointer-events="none" display="none"/></g></g><g class="mark-text role-legend-title" pointer-events="none"><text text-anchor="start" transform="translate(3,14)" font-family="sans-serif" font-size="14px" font-weight="bold" fill="#000" opacity="1">Dataset</text></g></g><path class="foreground" aria-hidden="true" d="" pointer-events="none" display="none"/></g></g><g class="mark-group role-title"><g transform="translate(200,-30)"><path class="background" aria-hidden="true" d="M0,0h0v0h0Z" pointer-events="none"/><g><g class="mark-text role-title-text" role="graphics-symbol" aria-roledescription="title" aria-label="Title text 'Noun-Verb Composition'" pointer-events="none"><text text-anchor="middle" transform="translate(0,16)" font-family="Courier" font-size="20px" font-weight="bold" fill="black" opacity="1">Noun-Verb Composition</text></g></g><path class="foreground" aria-hidden="true" d="" pointer-events="none" display="none"/></g></g></g><path class="foreground" aria-hidden="true" d="" display="none"/></g></g></g></svg>