<svg xmlns="http://www.w3.org/2000/svg" xmlns:xlink="http://www.w3.org/1999/xlink" version="1.1" class="marks" width="470" height="382" viewBox="0 0 470 382"><rect width="470" height="382" fill="white"/><g fill="none" stroke-miterlimit="10" transform="translate(60,35)"><g class="mark-group role-frame root" role="graphics-object" aria-roledescription="group mark container"><g transform="translate(0,0)"><path class="background" aria-hidden="true" d="M0.5,0.5h400v300h-400Z" stroke="#ddd"/><g><g class="mark-group role-axis" role="graphics-symbol" aria-roledescription="axis" aria-label="X-axis for a linear scale with values from 0 to 8"><g transform="translate(0.5,300.5)"><path class="background" aria-hidden="true" d="M0,0h0v0h0Z" pointer-events="none"/><g><g class="mark-rule role-axis-grid" pointer-events="none"><line transform="translate(0,-300)" x2="0" y2="300" stroke="#ddd" stroke-width="1" opacity="1"/><line transform="translate(50,-300)" x2="0" y2="300" stroke="#ddd" stroke-width="1" opacity="1"/><line transform="translate(100,-300)" x2="0" y2="300" stroke="#ddd" stroke-width="1" opacity="1"/><line transform="translate(150,-300)" x2="0" y2="300" stroke="#ddd" stroke-width="1" opacity="1"/><line transform="translate(200,-300)" x2="0" y2="300" stroke="#ddd" stroke-width="1" opacity="1"/><line transform="translate(250,-300)" x2="0" y2="300" stroke="#ddd" stroke-width="1" opacity="1"/><line transform="translate(300,-300)" x2="0" y2="300" stroke="#ddd" stroke-width="1" opacity="1"/><line transform="translate(350,-300)" x2="0" y2="300" stroke="#ddd" stroke-width="1" opacity="1"/><line transform="translate(400,-300)" x2="0" y2="300" stroke="#ddd" stroke-width="1" opacity="1"/></g></g><path class="foreground" aria-hidden="true" d="" pointer-events="none" display="none"/></g></g><g class="mark-group role-axis" role="graphics-symbol" aria-roledescription="axis" aria-label="Y-axis for a linear scale with values from 0.0 to 0.6"><g transform="translate(0.5,0.5)"><path class="background" aria-hidden="true" d="M0,0h0v0h0Z" pointer-events="none"/><g><g class="mark-rule role-axis-grid" pointer-events="none"><line transform="translate(0,300)" x2="400" y2="0" stroke="#ddd" stroke-width="1" opacity="1"/><line transform="translate(0,273)" x2="400" y2="0" stroke="#ddd" stroke-width="1" opacity="1"/><line transform="translate(0,245)" x2="400" y2="0" stroke="#ddd" stroke-width="1" opacity="1"/><line transform="translate(0,218)" x2="400" y2="0" stroke="#ddd" stroke-width="1" opacity="1"/><line transform="translate(0,191)" x2="400" y2="0" stroke="#ddd" stroke-width="1" opacity="1"/><line transform="translate(0,164)" x2="400" y2="0" stroke="#ddd" stroke-width="1" opacity="1"/><line transform="translate(0,136)" x2="400" y2="0" stroke="#ddd" stroke-width="1" opacity="1"/><line transform="translate(0,109)" x2="400" y2="0" stroke="#ddd" stroke-width="1" opacity="1"/><line transform="translate(0,82)" x2="400" y2="0" stroke="#ddd" stroke-width="1" opacity="1"/><line transform="translate(0,55)" x2="400" y2="0" stroke="#ddd" stroke-width="1" opacity="1"/><line transform="translate(0,27)" x2="400" y2="0" stroke="#ddd" stroke-width="1" opacity="1"/><line transform="translate(0,0)" x2="400" y2="0" stroke="#ddd" stroke-width="1" opacity="1"/></g></g><path class="foreground" aria-hidden="true" d="" pointer-events="none" display="none"/></g></g><g class="mark-group role-axis" role="graphics-symbol" aria-roledescription="axis" aria-label="X-axis titled 'Number of Unique Verbs in a Video' for a linear scale with values from 0 to 8"><g transform="translate(0.5,300.5)"><path class="background" aria-hidden="true" d="M0,0h0v0h0Z" pointer-events="none"/><g><g class="mark-rule role-axis-tick" pointer-events="none"><line transform="translate(0,0)" x2="0" y2="5" stroke="#888" stroke-width="1" opacity="1"/><line transform="translate(50,0)" x2="0" y2="5" stroke="#888" stroke-width="1" opacity="1"/><line transform="translate(100,0)" x2="0" y2="5" stroke="#888" stroke-width="1" opacity="1"/><line transform="translate(150,0)" x2="0" y2="5" stroke="#888" stroke-width="1" opacity="1"/><line transform="translate(200,0)" x2="0" y2="5" stroke="#888" stroke-width="1" opacity="1"/><line transform="translate(250,0)" x2="0" y2="5" stroke="#888" stroke-width="1" opacity="1"/><line transform="translate(300,0)" x2="0" y2="5" stroke="#888" stroke-width="1" opacity="1"/><line transform="translate(350,0)" x2="0" y2="5" stroke="#888" stroke-width="1" opacity="1"/><line transform="translate(400,0)" x2="0" y2="5" stroke="#888" stroke-width="1" opacity="1"/></g><g class="mark-text role-axis-label" pointer-events="none"><text text-anchor="start" transform="translate(0,16)" font-family="sans-serif" font-size="12px" fill="#000" opacity="1">0</text><text text-anchor="middle" transform="translate(50,16)" font-family="sans-serif" font-size="12px" fill="#000" opacity="1">1</text><text text-anchor="middle" transform="translate(100,16)" font-family="sans-serif" font-size="12px" fill="#000" opacity="1">2</text><text text-anchor="middle" transform="translate(150,16)" font-family="sans-serif" font-size="12px" fill="#000" opacity="1">3</text><text text-anchor="middle" transform="translate(200,16)" font-family="sans-serif" font-size="12px" fill="#000" opacity="1">4</text><text text-anchor="middle" transform="translate(250,16)" font-family="sans-serif" font-size="12px" fill="#000" opacity="1">5</text><text text-anchor="middle" transform="translate(300,16)" font-family="sans-serif" font-size="12px" fill="#000" opacity="1">6</text><text text-anchor="middle" transform="translate(350,16)" font-family="sans-serif" font-size="12px" fill="#000" opacity="1">7</text><text text-anchor="end" transform="translate(400,16)" font-family="sans-serif" font-size="12px" fill="#000" opacity="1">8</text></g><g class="mark-rule role-axis-domain" pointer-events="none"><line transform="translate(0,0)" x2="400" y2="0" stroke="#888" stroke-width="1" opacity="1"/></g><g class="mark-text role-axis-title" pointer-events="none"><text text-anchor="middle" transform="translate(200,39)" font-family="Arial" font-size="14px" font-weight="bold" fill="#000" opacity="1">Number of Unique Verbs in a Video</text></g></g><path class="foreground" aria-hidden="true" d="" pointer-events="none" display="none"/></g></g><g class="mark-group role-axis" role="graphics-symbol" aria-roledescription="axis" aria-label="Y-axis titled 'Fraction of Dataset' for a linear scale with values from 0.0 to 0.6"><g transform="translate(0.5,0.5)"><path class="background" aria-hidden="true" d="M0,0h0v0h0Z" pointer-events="none"/><g><g class="mark-rule role-axis-tick" pointer-events="none"><line transform="translate(0,300)" x2="-5" y2="0" stroke="#888" stroke-width="1" opacity="1"/><line transform="translate(0,273)" x2="-5" y2="0" stroke="#888" stroke-width="1" opacity="1"/><line transform="translate(0,245)" x2="-5" y2="0" stroke="#888" stroke-width="1" opacity="1"/><line transform="translate(0,218)" x2="-5" y2="0" stroke="#888" stroke-width="1" opacity="1"/><line transform="translate(0,191)" x2="-5" y2="0" stroke="#888" stroke-width="1" opacity="1"/><line transform="translate(0,164)" x2="-5" y2="0" stroke="#888" stroke-width="1" opacity="1"/><line transform="translate(0,136)" x2="-5" y2="0" stroke="#888" stroke-width="1" opacity="1"/><line transform="translate(0,109)" x2="-5" y2="0" stroke="#888" stroke-width="1" opacity="1"/><line transform="translate(0,82)" x2="-5" y2="0" stroke="#888" stroke-width="1" opacity="1"/><line transform="translate(0,55)" x2="-5" y2="0" stroke="#888" stroke-width="1" opacity="1"/><line transform="translate(0,27)" x2="-5" y2="0" stroke="#888" stroke-width="1" opacity="1"/><line transform="translate(0,0)" x2="-5" y2="0" stroke="#888" stroke-width="1" opacity="1"/></g><g class="mark-text role-axis-label" pointer-events="none"><text text-anchor="end" transform="translate(-7,304)" font-family="sans-serif" font-size="12px" fill="#000" opacity="1">0.00</text><text text-anchor="end" transform="translate(-7,276.7272727272727)" font-family="sans-serif" font-size="12px" fill="#000" opacity="1">0.05</text><text text-anchor="end" transform="translate(-7,249.45454545454544)" font-family="sans-serif" font-size="12px" fill="#000" opacity="1">0.10</text><text text-anchor="end" transform="translate(-7,222.1818181818182)" font-family="sans-serif" font-size="12px" fill="#000" opacity="1">0.15</text><text text-anchor="end" transform="translate(-7,194.9090909090909)" font-family="sans-serif" font-size="12px" fill="#000" opacity="1">0.20</text><text text-anchor="end" transform="translate(-7,167.63636363636363)" font-family="sans-serif" font-size="12px" fill="#000" opacity="1">0.25</text><text text-anchor="end" transform="translate(-7,140.36363636363637)" font-family="sans-serif" font-size="12px" fill="#000" opacity="1">0.30</text><text text-anchor="end" transform="translate(-7,113.09090909090912)" font-family="sans-serif" font-size="12px" fill="#000" opacity="1">0.35</text><text text-anchor="end" transform="translate(-7,85.81818181818181)" font-family="sans-serif" font-size="12px" fill="#000" opacity="1">0.40</text><text text-anchor="end" transform="translate(-7,58.54545454545456)" font-family="sans-serif" font-size="12px" fill="#000" opacity="1">0.45</text><text text-anchor="end" transform="translate(-7,31.27272727272728)" font-family="sans-serif" font-size="12px" fill="#000" opacity="1">0.50</text><text text-anchor="end" transform="translate(-7,4)" font-family="sans-serif" font-size="12px" fill="#000" opacity="1">0.55</text></g><g class="mark-rule role-axis-domain" pointer-events="none"><line transform="translate(0,300)" x2="0" y2="-300" stroke="#888" stroke-width="1" opacity="1"/></g><g class="mark-text role-axis-title" pointer-events="none"><text text-anchor="middle" transform="translate(-40.35546875,150) rotate(-90) translate(0,-3)" font-family="Arial" font-size="14px" font-weight="bold" fill="#000" opacity="1">Fraction of Dataset</text></g></g><path class="foreground" aria-hidden="true" d="" pointer-events="none" display="none"/></g></g><g class="mark-group role-scope layer_0_pathgroup" role="graphics-object" aria-roledescription="group mark container"><g transform="translate(0,0)"><path class="background" aria-hidden="true" d="M0,0h400v300h-400Z"/><g><g class="mark-line role-mark layer_0_marks" role="graphics-symbol" aria-roledescription="line mark container"><path d="M0,300L50,289.67294559844197L100,272.3123298206876L150,225.14281106762516L200,142.5077685499327L250,24.909599508767144L300,300L350,300L400,300" stroke="#1f77b4" stroke-width="2" stroke-dasharray="1,0"/></g></g><path class="foreground" aria-hidden="true" d="" display="none"/></g><g transform="translate(0,0)"><path class="background" aria-hidden="true" d="M0,0h400v300h-400Z"/><g><g class="mark-line role-mark layer_0_marks" role="graphics-symbol" aria-roledescription="line mark container"><path d="M0,300L50,43.324621224075266L100,122.47379912037343L150,227.06501375671698L200,274.4116457279584L250,291.67711450351015L300,297.2027530647785L350,298.9585634487329L400,299.11348789437596" stroke="#ff7f0e" stroke-width="2" stroke-dasharray="4,2"/></g></g><path class="foreground" aria-hidden="true" d="" display="none"/></g><g transform="translate(0,0)"><path class="background" aria-hidden="true" d="M0,0h400v300h-400Z"/><g><g class="mark-line role-mark layer_0_marks" role="graphics-symbol" aria-roledescription="line mark container"><path d="M0,300L50,128.18759467744493L100,119.78356033200367L150,185.3800133251315L200,246.4472847914583L250,282.12864715835605L300,295.1743257773135L350,298.476640976313L400,298.3335065714028" stroke="#2ca02c" stroke-width="2" stroke-dasharray="2,1"/></g></g><path class="foreground" aria-hidden="true" d="" display="none"/></g><g transform="translate(0,0)"><path class="background" aria-hidden="true" d="M0,0h400v300h-400Z"/><g><g class="mark-line role-mark layer_0_marks" role="graphics-symbol" aria-roledescription="line mark container"><path d="M0,300L50,229.6650307481664L100,111.30212704045977L150,115.46423625815471L200,223.11789265291594L250,280.8262384353379L300,295.26111909296156L350,299.1114598299303L400,299.65705467120114" stroke="#d62728" stroke-width="2" stroke-dasharray="1,1"/></g></g><path class="foreground" aria-hidden="true" d="" display="none"/></g><g transform="translate(0,0)"><path class="background" aria-hidden="true" d="M0,0h400v300h-400Z"/><g><g class="mark-line role-mark layer_0_marks" role="graphics-symbol" aria-roledescription="line mark container"><path d="M0,300L50,106.25454545454545L100,40.527272727272745L150,229.9636363636364L200,283.9636363636364L250,295.8L300,298.52727272727276L350,299.67272727272723L400,299.7818181818182" stroke="#9467bd" stroke-width="2" stroke-dasharray="1,2,4,2"/></g></g><path class="foreground" aria-hidden="true" d="" display="none"/></g></g><g class="mark-symbol role-mark layer_1_marks" role="graphics-symbol" aria-roledescription="symbol mark container"><path transform="translate(0,300)" d="M2.7386127875258306,0A2.7386127875258306,2.7386127875258306,0,1,1,-2.7386127875258306,0A2.7386127875258306,2.7386127875258306,0,1,1,2.7386127875258306,0" stroke="#1f77b4" stroke-width="2" stroke-dasharray="1,0" opacity="0.7"/><path transform="translate(50,289.67294559844197)" d="M2.7386127875258306,0A2.7386127875258306,2.7386127875258306,0,1,1,-2.7386127875258306,0A2.7386127875258306,2.7386127875258306,0,1,1,2.7386127875258306,0" stroke="#1f77b4" stroke-width="2" stroke-dasharray="1,0" opacity="0.7"/><path transform="translate(100,272.3123298206876)" d="M2.7386127875258306,0A2.7386127875258306,2.7386127875258306,0,1,1,-2.7386127875258306,0A2.7386127875258306,2.7386127875258306,0,1,1,2.7386127875258306,0" stroke="#1f77b4" stroke-width="2" stroke-dasharray="1,0" opacity="0.7"/><path transform="translate(150,225.14281106762516)" d="M2.7386127875258306,0A2.7386127875258306,2.7386127875258306,0,1,1,-2.7386127875258306,0A2.7386127875258306,2.7386127875258306,0,1,1,2.7386127875258306,0" stroke="#1f77b4" stroke-width="2" stroke-dasharray="1,0" opacity="0.7"/><path transform="translate(200,142.5077685499327)" d="M2.7386127875258306,0A2.7386127875258306,2.7386127875258306,0,1,1,-2.7386127875258306,0A2.7386127875258306,2.7386127875258306,0,1,1,2.7386127875258306,0" stroke="#1f77b4" stroke-width="2" stroke-dasharray="1,0" opacity="0.7"/><path transform="translate(250,24.909599508767144)" d="M2.7386127875258306,0A2.7386127875258306,2.7386127875258306,0,1,1,-2.7386127875258306,0A2.7386127875258306,2.7386127875258306,0,1,1,2.7386127875258306,0" stroke="#1f77b4" stroke-width="2" stroke-dasharray="1,0" opacity="0.7"/><path transform="translate(300,300)" d="M2.7386127875258306,0A2.7386127875258306,2.7386127875258306,0,1,1,-2.7386127875258306,0A2.7386127875258306,2.7386127875258306,0,1,1,2.7386127875258306,0" stroke="#1f77b4" stroke-width="2" stroke-dasharray="1,0" opacity="0.7"/><path transform="translate(350,300)" d="M2.7386127875258306,0A2.7386127875258306,2.7386127875258306,0,1,1,-2.7386127875258306,0A2.7386127875258306,2.7386127875258306,0,1,1,2.7386127875258306,0" stroke="#1f77b4" stroke-width="2" stroke-dasharray="1,0" opacity="0.7"/><path transform="translate(400,300)" d="M2.7386127875258306,0A2.7386127875258306,2.7386127875258306,0,1,1,-2.7386127875258306,0A2.7386127875258306,2.7386127875258306,0,1,1,2.7386127875258306,0" stroke="#1f77b4" stroke-width="2" stroke-dasharray="1,0" opacity="0.7"/><path transform="translate(0,300)" d="M2.7386127875258306,0A2.7386127875258306,2.7386127875258306,0,1,1,-2.7386127875258306,0A2.7386127875258306,2.7386127875258306,0,1,1,2.7386127875258306,0" stroke="#ff7f0e" stroke-width="2" stroke-dasharray="4,2" opacity="0.7"/><path transform="translate(50,43.324621224075266)" d="M2.7386127875258306,0A2.7386127875258306,2.7386127875258306,0,1,1,-2.7386127875258306,0A2.7386127875258306,2.7386127875258306,0,1,1,2.7386127875258306,0" stroke="#ff7f0e" stroke-width="2" stroke-dasharray="4,2" opacity="0.7"/><path transform="translate(100,122.47379912037343)" d="M2.7386127875258306,0A2.7386127875258306,2.7386127875258306,0,1,1,-2.7386127875258306,0A2.7386127875258306,2.7386127875258306,0,1,1,2.7386127875258306,0" stroke="#ff7f0e" stroke-width="2" stroke-dasharray="4,2" opacity="0.7"/><path transform="translate(150,227.06501375671698)" d="M2.7386127875258306,0A2.7386127875258306,2.7386127875258306,0,1,1,-2.7386127875258306,0A2.7386127875258306,2.7386127875258306,0,1,1,2.7386127875258306,0" stroke="#ff7f0e" stroke-width="2" stroke-dasharray="4,2" opacity="0.7"/><path transform="translate(200,274.4116457279584)" d="M2.7386127875258306,0A2.7386127875258306,2.7386127875258306,0,1,1,-2.7386127875258306,0A2.7386127875258306,2.7386127875258306,0,1,1,2.7386127875258306,0" stroke="#ff7f0e" stroke-width="2" stroke-dasharray="4,2" opacity="0.7"/><path transform="translate(250,291.67711450351015)" d="M2.7386127875258306,0A2.7386127875258306,2.7386127875258306,0,1,1,-2.7386127875258306,0A2.7386127875258306,2.7386127875258306,0,1,1,2.7386127875258306,0" stroke="#ff7f0e" stroke-width="2" stroke-dasharray="4,2" opacity="0.7"/><path transform="translate(300,297.2027530647785)" d="M2.7386127875258306,0A2.7386127875258306,2.7386127875258306,0,1,1,-2.7386127875258306,0A2.7386127875258306,2.7386127875258306,0,1,1,2.7386127875258306,0" stroke="#ff7f0e" stroke-width="2" stroke-dasharray="4,2" opacity="0.7"/><path transform="translate(350,298.9585634487329)" d="M2.7386127875258306,0A2.7386127875258306,2.7386127875258306,0,1,1,-2.7386127875258306,0A2.7386127875258306,2.7386127875258306,0,1,1,2.7386127875258306,0" stroke="#ff7f0e" stroke-width="2" stroke-dasharray="4,2" opacity="0.7"/><path transform="translate(400,299.11348789437596)" d="M2.7386127875258306,0A2.7386127875258306,2.7386127875258306,0,1,1,-2.7386127875258306,0A2.7386127875258306,2.7386127875258306,0,1,1,2.7386127875258306,0" stroke="#ff7f0e" stroke-width="2" stroke-dasharray="4,2" opacity="0.7"/><path transform="translate(0,300)" d="M2.7386127875258306,0A2.7386127875258306,2.7386127875258306,0,1,1,-2.7386127875258306,0A2.7386127875258306,2.7386127875258306,0,1,1,2.7386127875258306,0" stroke="#2ca02c" stroke-width="2" stroke-dasharray="2,1" opacity="0.7"/><path transform="translate(50,128.18759467744493)" d="M2.7386127875258306,0A2.7386127875258306,2.7386127875258306,0,1,1,-2.7386127875258306,0A2.7386127875258306,2.7386127875258306,0,1,1,2.7386127875258306,0" stroke="#2ca02c" stroke-width="2" stroke-dasharray="2,1" opacity="0.7"/><path transform="translate(100,119.78356033200367)" d="M2.7386127875258306,0A2.7386127875258306,2.7386127875258306,0,1,1,-2.7386127875258306,0A2.7386127875258306,2.7386127875258306,0,1,1,2.7386127875258306,0" stroke="#2ca02c" stroke-width="2" stroke-dasharray="2,1" opacity="0.7"/><path transform="translate(150,185.3800133251315)" d="M2.7386127875258306,0A2.7386127875258306,2.7386127875258306,0,1,1,-2.7386127875258306,0A2.7386127875258306,2.7386127875258306,0,1,1,2.7386127875258306,0" stroke="#2ca02c" stroke-width="2" stroke-dasharray="2,1" opacity="0.7"/><path transform="translate(200,246.4472847914583)" d="M2.7386127875258306,0A2.7386127875258306,2.7386127875258306,0,1,1,-2.7386127875258306,0A2.7386127875258306,2.7386127875258306,0,1,1,2.7386127875258306,0" stroke="#2ca02c" stroke-width="2" stroke-dasharray="2,1" opacity="0.7"/><path transform="translate(250,282.12864715835605)" d="M2.7386127875258306,0A2.7386127875258306,2.7386127875258306,0,1,1,-2.7386127875258306,0A2.7386127875258306,2.7386127875258306,0,1,1,2.7386127875258306,0" stroke="#2ca02c" stroke-width="2" stroke-dasharray="2,1" opacity="0.7"/><path transform="translate(300,295.1743257773135)" d="M2.7386127875258306,0A2.7386127875258306,2.7386127875258306,0,1,1,-2.7386127875258306,0A2.7386127875258306,2.7386127875258306,0,1,1,2.7386127875258306,0" stroke="#2ca02c" stroke-width="2" stroke-dasharray="2,1" opacity="0.7"/><path transform="translate(350,298.476640976313)" d="M2.7386127875258306,0A2.7386127875258306,2.7386127875258306,0,1,1,-2.7386127875258306,0A2.7386127875258306,2.7386127875258306,0,1,1,2.7386127875258306,0" stroke="#2ca02c" stroke-width="2" stroke-dasharray="2,1" opacity="0.7"/><path transform="translate(400,298.3335065714028)" d="M2.7386127875258306,0A2.7386127875258306,2.7386127875258306,0,1,1,-2.7386127875258306,0A2.7386127875258306,2.7386127875258306,0,1,1,2.7386127875258306,0" stroke="#2ca02c" stroke-width="2" stroke-dasharray="2,1" opacity="0.7"/><path transform="translate(0,300)" d="M2.7386127875258306,0A2.7386127875258306,2.7386127875258306,0,1,1,-2.7386127875258306,0A2.7386127875258306,2.7386127875258306,0,1,1,2.7386127875258306,0" stroke="#d62728" stroke-width="2" stroke-dasharray="1,1" opacity="0.7"/><path transform="translate(50,229.6650307481664)" d="M2.7386127875258306,0A2.7386127875258306,2.7386127875258306,0,1,1,-2.7386127875258306,0A2.7386127875258306,2.7386127875258306,0,1,1,2.7386127875258306,0" stroke="#d62728" stroke-width="2" stroke-dasharray="1,1" opacity="0.7"/><path transform="translate(100,111.30212704045977)" d="M2.7386127875258306,0A2.7386127875258306,2.7386127875258306,0,1,1,-2.7386127875258306,0A2.7386127875258306,2.7386127875258306,0,1,1,2.7386127875258306,0" stroke="#d62728" stroke-width="2" stroke-dasharray="1,1" opacity="0.7"/><path transform="translate(150,115.46423625815471)" d="M2.7386127875258306,0A2.7386127875258306,2.7386127875258306,0,1,1,-2.7386127875258306,0A2.7386127875258306,2.7386127875258306,0,1,1,2.7386127875258306,0" stroke="#d62728" stroke-width="2" stroke-dasharray="1,1" opacity="0.7"/><path transform="translate(200,223.11789265291594)" d="M2.7386127875258306,0A2.7386127875258306,2.7386127875258306,0,1,1,-2.7386127875258306,0A2.7386127875258306,2.7386127875258306,0,1,1,2.7386127875258306,0" stroke="#d62728" stroke-width="2" stroke-dasharray="1,1" opacity="0.7"/><path transform="translate(250,280.8262384353379)" d="M2.7386127875258306,0A2.7386127875258306,2.7386127875258306,0,1,1,-2.7386127875258306,0A2.7386127875258306,2.7386127875258306,0,1,1,2.7386127875258306,0" stroke="#d62728" stroke-width="2" stroke-dasharray="1,1" opacity="0.7"/><path transform="translate(300,295.26111909296156)" d="M2.7386127875258306,0A2.7386127875258306,2.7386127875258306,0,1,1,-2.7386127875258306,0A2.7386127875258306,2.7386127875258306,0,1,1,2.7386127875258306,0" stroke="#d62728" stroke-width="2" stroke-dasharray="1,1" opacity="0.7"/><path transform="translate(350,299.1114598299303)" d="M2.7386127875258306,0A2.7386127875258306,2.7386127875258306,0,1,1,-2.7386127875258306,0A2.7386127875258306,2.7386127875258306,0,1,1,2.7386127875258306,0" stroke="#d62728" stroke-width="2" stroke-dasharray="1,1" opacity="0.7"/><path transform="translate(400,299.65705467120114)" d="M2.7386127875258306,0A2.7386127875258306,2.7386127875258306,0,1,1,-2.7386127875258306,0A2.7386127875258306,2.7386127875258306,0,1,1,2.7386127875258306,0" stroke="#d62728" stroke-width="2" stroke-dasharray="1,1" opacity="0.7"/><path transform="translate(0,300)" d="M2.7386127875258306,0A2.7386127875258306,2.7386127875258306,0,1,1,-2.7386127875258306,0A2.7386127875258306,2.7386127875258306,0,1,1,2.7386127875258306,0" stroke="#9467bd" stroke-width="2" stroke-dasharray="1,2,4,2" opacity="0.7"/><path transform="translate(50,106.25454545454545)" d="M2.7386127875258306,0A2.7386127875258306,2.7386127875258306,0,1,1,-2.7386127875258306,0A2.7386127875258306,2.7386127875258306,0,1,1,2.7386127875258306,0" stroke="#9467bd" stroke-width="2" stroke-dasharray="1,2,4,2" opacity="0.7"/><path transform="translate(100,40.527272727272745)" d="M2.7386127875258306,0A2.7386127875258306,2.7386127875258306,0,1,1,-2.7386127875258306,0A2.7386127875258306,2.7386127875258306,0,1,1,2.7386127875258306,0" stroke="#9467bd" stroke-width="2" stroke-dasharray="1,2,4,2" opacity="0.7"/><path transform="translate(150,229.9636363636364)" d="M2.7386127875258306,0A2.7386127875258306,2.7386127875258306,0,1,1,-2.7386127875258306,0A2.7386127875258306,2.7386127875258306,0,1,1,2.7386127875258306,0" stroke="#9467bd" stroke-width="2" stroke-dasharray="1,2,4,2" opacity="0.7"/><path transform="translate(200,283.9636363636364)" d="M2.7386127875258306,0A2.7386127875258306,2.7386127875258306,0,1,1,-2.7386127875258306,0A2.7386127875258306,2.7386127875258306,0,1,1,2.7386127875258306,0" stroke="#9467bd" stroke-width="2" stroke-dasharray="1,2,4,2" opacity="0.7"/><path transform="translate(250,295.8)" d="M2.7386127875258306,0A2.7386127875258306,2.7386127875258306,0,1,1,-2.7386127875258306,0A2.7386127875258306,2.7386127875258306,0,1,1,2.7386127875258306,0" stroke="#9467bd" stroke-width="2" stroke-dasharray="1,2,4,2" opacity="0.7"/><path transform="translate(300,298.52727272727276)" d="M2.7386127875258306,0A2.7386127875258306,2.7386127875258306,0,1,1,-2.7386127875258306,0A2.7386127875258306,2.7386127875258306,0,1,1,2.7386127875258306,0" stroke="#9467bd" stroke-width="2" stroke-dasharray="1,2,4,2" opacity="0.7"/><path transform="translate(350,299.67272727272723)" d="M2.7386127875258306,0A2.7386127875258306,2.7386127875258306,0,1,1,-2.7386127875258306,0A2.7386127875258306,2.7386127875258306,0,1,1,2.7386127875258306,0" stroke="#9467bd" stroke-width="2" stroke-dasharray="1,2,4,2" opacity="0.7"/><path transform="translate(400,299.7818181818182)" d="M2.7386127875258306,0A2.7386127875258306,2.7386127875258306,0,1,1,-2.7386127875258306,0A2.7386127875258306,2.7386127875258306,0,1,1,2.7386127875258306,0" stroke="#9467bd" stroke-width="2" stroke-dasharray="1,2,4,2" opacity="0.7"/></g><g class="mark-group role-legend" role="graphics-symbol" aria-roledescription="legend" aria-label="Symbol legend titled 'Dataset' for stroke color and strokeDash with 5 values: VidSitu, MPII, AC, VATEX-en, MSRVTT"><g transform="translate(293,18)"><path class="background" aria-hidden="true" d="M0,0h89v103h-89Z" pointer-events="none" fill="white"/><g><g class="mark-group role-legend-entry"><g transform="translate(3,22)"><path class="background" aria-hidden="true" d="M0,0h0v0h0Z" pointer-events="none"/><g><g class="mark-group role-scope" role="graphics-object" aria-roledescription="group mark container"><g transform="translate(0,0)"><path class="background" aria-hidden="true" d="M0,0h82.0732421875v14h-82.0732421875Z" pointer-events="none" opacity="1"/><g><g class="mark-symbol role-legend-symbol" pointer-events="none"><path transform="translate(7,7)" d="M5,0A5,5,0,1,1,-5,0A5,5,0,1,1,5,0" stroke="#1f77b4" stroke-width="1.5" stroke-dasharray="1,0" opacity="0.7"/></g><g class="mark-text role-legend-label" pointer-events="none"><text text-anchor="start" transform="translate(18,11)" font-family="sans-serif" font-size="14px" font-style="italic" fill="#000" opacity="1">VidSitu</text></g></g><path class="foreground" aria-hidden="true" d="" pointer-events="none" display="none"/></g><g transform="translate(0,16)"><path class="background" aria-hidden="true" d="M0,0h82.0732421875v14h-82.0732421875Z" pointer-events="none" opacity="1"/><g><g class="mark-symbol role-legend-symbol" pointer-events="none"><path transform="translate(7,7)" d="M5,0A5,5,0,1,1,-5,0A5,5,0,1,1,5,0" stroke="#ff7f0e" stroke-width="1.5" stroke-dasharray="4,2" opacity="0.7"/></g><g class="mark-text role-legend-label" pointer-events="none"><text text-anchor="start" transform="translate(18,11)" font-family="sans-serif" font-size="14px" font-style="italic" fill="#000" opacity="1">MPII</text></g></g><path class="foreground" aria-hidden="true" d="" pointer-events="none" display="none"/></g><g transform="translate(0,32)"><path class="background" aria-hidden="true" d="M0,0h82.0732421875v14h-82.0732421875Z" pointer-events="none" opacity="1"/><g><g class="mark-symbol role-legend-symbol" pointer-events="none"><path transform="translate(7,7)" d="M5,0A5,5,0,1,1,-5,0A5,5,0,1,1,5,0" stroke="#2ca02c" stroke-width="1.5" stroke-dasharray="2,1" opacity="0.7"/></g><g class="mark-text role-legend-label" pointer-events="none"><text text-anchor="start" transform="translate(18,11)" font-family="sans-serif" font-size="14px" font-style="italic" fill="#000" opacity="1">AC</text></g></g><path class="foreground" aria-hidden="true" d="" pointer-events="none" display="none"/></g><g transform="translate(0,48)"><path class="background" aria-hidden="true" d="M0,0h82.0732421875v14h-82.0732421875Z" pointer-events="none" opacity="1"/><g><g class="mark-symbol role-legend-symbol" pointer-events="none"><path transform="translate(7,7)" d="M5,0A5,5,0,1,1,-5,0A5,5,0,1,1,5,0" stroke="#d62728" stroke-width="1.5" stroke-dasharray="1,1" opacity="0.7"/></g><g class="mark-text role-legend-label" pointer-events="none"><text text-anchor="start" transform="translate(18,11)" font-family="sans-serif" font-size="14px" font-style="italic" fill="#000" opacity="1">VATEX-en</text></g></g><path class="foreground" aria-hidden="true" d="" pointer-events="none" display="none"/></g><g transform="translate(0,64)"><path class="background" aria-hidden="true" d="M0,0h82.0732421875v14h-82.0732421875Z" pointer-events="none" opacity="1"/><g><g class="mark-symbol role-legend-symbol" pointer-events="none"><path transform="translate(7,7)" d="M5,0A5,5,0,1,1,-5,0A5,5,0,1,1,5,0" stroke="#9467bd" stroke-width="1.5" stroke-dasharray="1,2,4,2" opacity="0.7"/></g><g class="mark-text role-legend-label" pointer-events="none"><text text-anchor="start" transform="translate(18,11)" font-family="sans-serif" font-size="14px" font-style="italic" fill="#000" opacity="1">MSRVTT</text></g></g><path class="foreground" aria-hidden="true" d="" pointer-events="none" display="none"/></g></g></g><path class="foreground" aria-hidden="true" d="" pointer-events="none" display="none"/></g></g><g class="mark-text role-legend-title" pointer-events="none"><text text-anchor="start" transform="translate(3,14)" font-family="sans-serif" font-size="14px" font-weight="bold" fill="#000" opacity="1">Dataset</text></g></g><path class="foreground" aria-hidden="true" d="" pointer-events="none" display="none"/></g></g><g class="mark-group role-title"><g transform="translate(200,-30)"><path class="background" aria-hidden="true" d="M0,0h0v0h0Z" pointer-events="none"/><g><g class="mark-text role-title-text" role="graphics-symbol" aria-roledescription="title" aria-label="Title text 'Verb Diversity Within a Video'" pointer-events="none"><text text-anchor="middle" transform="translate(0,16)" font-family="Courier" font-size="20px" font-weight="bold" fill="black" opacity="1">Verb Diversity Within a Video</text></g></g><path class="foreground" aria-hidden="true" d="" pointer-events="none" display="none"/></g></g></g><path class="foreground" aria-hidden="true" d="" display="none"/></g></g></g></svg>