<svg xmlns="http://www.w3.org/2000/svg" xmlns:xlink="http://www.w3.org/1999/xlink" version="1.1" class="marks" width="482" height="382" viewBox="0 0 482 382"><rect width="482" height="382" fill="white"/><g fill="none" stroke-miterlimit="10" transform="translate(60,35)"><g class="mark-group role-frame root" role="graphics-object" aria-roledescription="group mark container"><g transform="translate(0,0)"><path class="background" aria-hidden="true" d="M0.5,0.5h400v300h-400Z" stroke="#ddd"/><g><g class="mark-group role-axis" role="graphics-symbol" aria-roledescription="axis" aria-label="X-axis for a linear scale with values from 0 to 8"><g transform="translate(0.5,300.5)"><path class="background" aria-hidden="true" d="M0,0h0v0h0Z" pointer-events="none"/><g><g class="mark-rule role-axis-grid" pointer-events="none"><line transform="translate(0,-300)" x2="0" y2="300" stroke="#ddd" stroke-width="1" opacity="1"/><line transform="translate(50,-300)" x2="0" y2="300" stroke="#ddd" stroke-width="1" opacity="1"/><line transform="translate(100,-300)" x2="0" y2="300" stroke="#ddd" stroke-width="1" opacity="1"/><line transform="translate(150,-300)" x2="0" y2="300" stroke="#ddd" stroke-width="1" opacity="1"/><line transform="translate(200,-300)" x2="0" y2="300" stroke="#ddd" stroke-width="1" opacity="1"/><line transform="translate(250,-300)" x2="0" y2="300" stroke="#ddd" stroke-width="1" opacity="1"/><line transform="translate(300,-300)" x2="0" y2="300" stroke="#ddd" stroke-width="1" opacity="1"/><line transform="translate(350,-300)" x2="0" y2="300" stroke="#ddd" stroke-width="1" opacity="1"/><line transform="translate(400,-300)" x2="0" y2="300" stroke="#ddd" stroke-width="1" opacity="1"/></g></g><path class="foreground" aria-hidden="true" d="" pointer-events="none" display="none"/></g></g><g class="mark-group role-axis" role="graphics-symbol" aria-roledescription="axis" aria-label="Y-axis for a linear scale with values from 0.0 to 0.5"><g transform="translate(0.5,0.5)"><path class="background" aria-hidden="true" d="M0,0h0v0h0Z" pointer-events="none"/><g><g class="mark-rule role-axis-grid" pointer-events="none"><line transform="translate(0,300)" x2="400" y2="0" stroke="#ddd" stroke-width="1" opacity="1"/><line transform="translate(0,270)" x2="400" y2="0" stroke="#ddd" stroke-width="1" opacity="1"/><line transform="translate(0,240)" x2="400" y2="0" stroke="#ddd" stroke-width="1" opacity="1"/><line transform="translate(0,210)" x2="400" y2="0" stroke="#ddd" stroke-width="1" opacity="1"/><line transform="translate(0,180)" x2="400" y2="0" stroke="#ddd" stroke-width="1" opacity="1"/><line transform="translate(0,150)" x2="400" y2="0" stroke="#ddd" stroke-width="1" opacity="1"/><line transform="translate(0,120)" x2="400" y2="0" stroke="#ddd" stroke-width="1" opacity="1"/><line transform="translate(0,90)" x2="400" y2="0" stroke="#ddd" stroke-width="1" opacity="1"/><line transform="translate(0,60)" x2="400" y2="0" stroke="#ddd" stroke-width="1" opacity="1"/><line transform="translate(0,30)" x2="400" y2="0" stroke="#ddd" stroke-width="1" opacity="1"/><line transform="translate(0,0)" x2="400" y2="0" stroke="#ddd" stroke-width="1" opacity="1"/></g></g><path class="foreground" aria-hidden="true" d="" pointer-events="none" display="none"/></g></g><g class="mark-group role-axis" role="graphics-symbol" aria-roledescription="axis" aria-label="X-axis titled 'Number of SRLs per Verb' for a linear scale with values from 0 to 8"><g transform="translate(0.5,300.5)"><path class="background" aria-hidden="true" d="M0,0h0v0h0Z" pointer-events="none"/><g><g class="mark-rule role-axis-tick" pointer-events="none"><line transform="translate(0,0)" x2="0" y2="5" stroke="#888" stroke-width="1" opacity="1"/><line transform="translate(50,0)" x2="0" y2="5" stroke="#888" stroke-width="1" opacity="1"/><line transform="translate(100,0)" x2="0" y2="5" stroke="#888" stroke-width="1" opacity="1"/><line transform="translate(150,0)" x2="0" y2="5" stroke="#888" stroke-width="1" opacity="1"/><line transform="translate(200,0)" x2="0" y2="5" stroke="#888" stroke-width="1" opacity="1"/><line transform="translate(250,0)" x2="0" y2="5" stroke="#888" stroke-width="1" opacity="1"/><line transform="translate(300,0)" x2="0" y2="5" stroke="#888" stroke-width="1" opacity="1"/><line transform="translate(350,0)" x2="0" y2="5" stroke="#888" stroke-width="1" opacity="1"/><line transform="translate(400,0)" x2="0" y2="5" stroke="#888" stroke-width="1" opacity="1"/></g><g class="mark-text role-axis-label" pointer-events="none"><text text-anchor="start" transform="translate(0,16)" font-family="sans-serif" font-size="12px" fill="#000" opacity="1">0</text><text text-anchor="middle" transform="translate(50,16)" font-family="sans-serif" font-size="12px" fill="#000" opacity="1">1</text><text text-anchor="middle" transform="translate(100,16)" font-family="sans-serif" font-size="12px" fill="#000" opacity="1">2</text><text text-anchor="middle" transform="translate(150,16)" font-family="sans-serif" font-size="12px" fill="#000" opacity="1">3</text><text text-anchor="middle" transform="translate(200,16)" font-family="sans-serif" font-size="12px" fill="#000" opacity="1">4</text><text text-anchor="middle" transform="translate(250,16)" font-family="sans-serif" font-size="12px" fill="#000" opacity="1">5</text><text text-anchor="middle" transform="translate(300,16)" font-family="sans-serif" font-size="12px" fill="#000" opacity="1">6</text><text text-anchor="middle" transform="translate(350,16)" font-family="sans-serif" font-size="12px" fill="#000" opacity="1">7</text><text text-anchor="end" transform="translate(400,16)" font-family="sans-serif" font-size="12px" fill="#000" opacity="1">8</text></g><g class="mark-rule role-axis-domain" pointer-events="none"><line transform="translate(0,0)" x2="400" y2="0" stroke="#888" stroke-width="1" opacity="1"/></g><g class="mark-text role-axis-title" pointer-events="none"><text text-anchor="middle" transform="translate(200,39)" font-family="Arial" font-size="14px" font-weight="bold" fill="#000" opacity="1">Number of SRLs per Verb</text></g></g><path class="foreground" aria-hidden="true" d="" pointer-events="none" display="none"/></g></g><g class="mark-group role-axis" role="graphics-symbol" aria-roledescription="axis" aria-label="Y-axis titled 'Fraction of Dataset' for a linear scale with values from 0.0 to 0.5"><g transform="translate(0.5,0.5)"><path class="background" aria-hidden="true" d="M0,0h0v0h0Z" pointer-events="none"/><g><g class="mark-rule role-axis-tick" pointer-events="none"><line transform="translate(0,300)" x2="-5" y2="0" stroke="#888" stroke-width="1" opacity="1"/><line transform="translate(0,270)" x2="-5" y2="0" stroke="#888" stroke-width="1" opacity="1"/><line transform="translate(0,240)" x2="-5" y2="0" stroke="#888" stroke-width="1" opacity="1"/><line transform="translate(0,210)" x2="-5" y2="0" stroke="#888" stroke-width="1" opacity="1"/><line transform="translate(0,180)" x2="-5" y2="0" stroke="#888" stroke-width="1" opacity="1"/><line transform="translate(0,150)" x2="-5" y2="0" stroke="#888" stroke-width="1" opacity="1"/><line transform="translate(0,120)" x2="-5" y2="0" stroke="#888" stroke-width="1" opacity="1"/><line transform="translate(0,90)" x2="-5" y2="0" stroke="#888" stroke-width="1" opacity="1"/><line transform="translate(0,60)" x2="-5" y2="0" stroke="#888" stroke-width="1" opacity="1"/><line transform="translate(0,30)" x2="-5" y2="0" stroke="#888" stroke-width="1" opacity="1"/><line transform="translate(0,0)" x2="-5" y2="0" stroke="#888" stroke-width="1" opacity="1"/></g><g class="mark-text role-axis-label" pointer-events="none"><text text-anchor="end" transform="translate(-7,304)" font-family="sans-serif" font-size="12px" fill="#000" opacity="1">0.00</text><text text-anchor="end" transform="translate(-7,274)" font-family="sans-serif" font-size="12px" fill="#000" opacity="1">0.05</text><text text-anchor="end" transform="translate(-7,244)" font-family="sans-serif" font-size="12px" fill="#000" opacity="1">0.10</text><text text-anchor="end" transform="translate(-7,214)" font-family="sans-serif" font-size="12px" fill="#000" opacity="1">0.15</text><text text-anchor="end" transform="translate(-7,184)" font-family="sans-serif" font-size="12px" fill="#000" opacity="1">0.20</text><text text-anchor="end" transform="translate(-7,154)" font-family="sans-serif" font-size="12px" fill="#000" opacity="1">0.25</text><text text-anchor="end" transform="translate(-7,124)" font-family="sans-serif" font-size="12px" fill="#000" opacity="1">0.30</text><text text-anchor="end" transform="translate(-7,94.00000000000001)" font-family="sans-serif" font-size="12px" fill="#000" opacity="1">0.35</text><text text-anchor="end" transform="translate(-7,63.999999999999986)" font-family="sans-serif" font-size="12px" fill="#000" opacity="1">0.40</text><text text-anchor="end" transform="translate(-7,33.99999999999999)" font-family="sans-serif" font-size="12px" fill="#000" opacity="1">0.45</text><text text-anchor="end" transform="translate(-7,4)" font-family="sans-serif" font-size="12px" fill="#000" opacity="1">0.50</text></g><g class="mark-rule role-axis-domain" pointer-events="none"><line transform="translate(0,300)" x2="0" y2="-300" stroke="#888" stroke-width="1" opacity="1"/></g><g class="mark-text role-axis-title" pointer-events="none"><text text-anchor="middle" transform="translate(-40.35546875,150) rotate(-90) translate(0,-3)" font-family="Arial" font-size="14px" font-weight="bold" fill="#000" opacity="1">Fraction of Dataset</text></g></g><path class="foreground" aria-hidden="true" d="" pointer-events="none" display="none"/></g></g><g class="mark-group role-scope layer_0_pathgroup" role="graphics-object" aria-roledescription="group mark container"><g transform="translate(0,0)"><path class="background" aria-hidden="true" d="M0,0h400v300h-400Z"/><g><g class="mark-line role-mark layer_0_marks" role="graphics-symbol" aria-roledescription="line mark container"><path d="M0,300L50,299.28361874872076L100,244.54390393668552L150,134.35218666848604L200,78.4335129972027L250,159.8717336426281L300,285.65600054581427L350,297.8590434604626L400,300" stroke="#1f77b4" stroke-width="2" stroke-dasharray="1,0"/></g></g><path class="foreground" aria-hidden="true" d="" display="none"/></g><g transform="translate(0,0)"><path class="background" aria-hidden="true" d="M0,0h400v300h-400Z"/><g><g class="mark-line role-mark layer_0_marks" role="graphics-symbol" aria-roledescription="line mark container"><path d="M0,300L50,234.1205633420206L100,35.93215446912911L150,128.16540319362971L200,252.54378294863199L250,292.1865582315339L300,298.9558307936535L350,299.89812983352715L400,299.98471947502907" stroke="#ff7f0e" stroke-width="2" stroke-dasharray="4,2"/></g></g><path class="foreground" aria-hidden="true" d="" display="none"/></g><g transform="translate(0,0)"><path class="background" aria-hidden="true" d="M0,0h400v300h-400Z"/><g><g class="mark-line role-mark layer_0_marks" role="graphics-symbol" aria-roledescription="line mark container"><path d="M0,300L50,228.5987639744978L100,13.457044449691825L150,118.43127356224504L200,252.21515637595368L250,292.637587226108L300,299.1499271249786L350,299.8974049978423L400,299.99022904741355" stroke="#2ca02c" stroke-width="2" stroke-dasharray="2,1"/></g></g><path class="foreground" aria-hidden="true" d="" display="none"/></g><g transform="translate(0,0)"><path class="background" aria-hidden="true" d="M0,0h400v300h-400Z"/><g><g class="mark-line role-mark layer_0_marks" role="graphics-symbol" aria-roledescription="line mark container"><path d="M0,300L50,254.29689914494693L100,86.89399402493048L150,134.61213557226742L200,255.66910476975377L250,294.8016895024209L300,299.74039353044196L350,299.96909446790977L400,300" stroke="#d62728" stroke-width="2" stroke-dasharray="1,1"/></g></g><path class="foreground" aria-hidden="true" d="" display="none"/></g><g transform="translate(0,0)"><path class="background" aria-hidden="true" d="M0,0h400v300h-400Z"/><g><g class="mark-line role-mark layer_0_marks" role="graphics-symbol" aria-roledescription="line mark container"><path d="M0,300L50,220.94966374566945L100,39.25005094762582L150,208.75280211942123L200,286.6109639290809L250,298.8078255553291L300,299.9388628489913L350,300L400,300" stroke="#9467bd" stroke-width="2" stroke-dasharray="1,2,4,2"/></g></g><path class="foreground" aria-hidden="true" d="" display="none"/></g></g><g class="mark-symbol role-mark layer_1_marks" role="graphics-symbol" aria-roledescription="symbol mark container"><path transform="translate(0,300)" d="M2.7386127875258306,0A2.7386127875258306,2.7386127875258306,0,1,1,-2.7386127875258306,0A2.7386127875258306,2.7386127875258306,0,1,1,2.7386127875258306,0" stroke="#1f77b4" stroke-width="2" stroke-dasharray="1,0" opacity="0.7"/><path transform="translate(50,299.28361874872076)" d="M2.7386127875258306,0A2.7386127875258306,2.7386127875258306,0,1,1,-2.7386127875258306,0A2.7386127875258306,2.7386127875258306,0,1,1,2.7386127875258306,0" stroke="#1f77b4" stroke-width="2" stroke-dasharray="1,0" opacity="0.7"/><path transform="translate(100,244.54390393668552)" d="M2.7386127875258306,0A2.7386127875258306,2.7386127875258306,0,1,1,-2.7386127875258306,0A2.7386127875258306,2.7386127875258306,0,1,1,2.7386127875258306,0" stroke="#1f77b4" stroke-width="2" stroke-dasharray="1,0" opacity="0.7"/><path transform="translate(150,134.35218666848604)" d="M2.7386127875258306,0A2.7386127875258306,2.7386127875258306,0,1,1,-2.7386127875258306,0A2.7386127875258306,2.7386127875258306,0,1,1,2.7386127875258306,0" stroke="#1f77b4" stroke-width="2" stroke-dasharray="1,0" opacity="0.7"/><path transform="translate(200,78.4335129972027)" d="M2.7386127875258306,0A2.7386127875258306,2.7386127875258306,0,1,1,-2.7386127875258306,0A2.7386127875258306,2.7386127875258306,0,1,1,2.7386127875258306,0" stroke="#1f77b4" stroke-width="2" stroke-dasharray="1,0" opacity="0.7"/><path transform="translate(250,159.8717336426281)" d="M2.7386127875258306,0A2.7386127875258306,2.7386127875258306,0,1,1,-2.7386127875258306,0A2.7386127875258306,2.7386127875258306,0,1,1,2.7386127875258306,0" stroke="#1f77b4" stroke-width="2" stroke-dasharray="1,0" opacity="0.7"/><path transform="translate(300,285.65600054581427)" d="M2.7386127875258306,0A2.7386127875258306,2.7386127875258306,0,1,1,-2.7386127875258306,0A2.7386127875258306,2.7386127875258306,0,1,1,2.7386127875258306,0" stroke="#1f77b4" stroke-width="2" stroke-dasharray="1,0" opacity="0.7"/><path transform="translate(350,297.8590434604626)" d="M2.7386127875258306,0A2.7386127875258306,2.7386127875258306,0,1,1,-2.7386127875258306,0A2.7386127875258306,2.7386127875258306,0,1,1,2.7386127875258306,0" stroke="#1f77b4" stroke-width="2" stroke-dasharray="1,0" opacity="0.7"/><path transform="translate(400,300)" d="M2.7386127875258306,0A2.7386127875258306,2.7386127875258306,0,1,1,-2.7386127875258306,0A2.7386127875258306,2.7386127875258306,0,1,1,2.7386127875258306,0" stroke="#1f77b4" stroke-width="2" stroke-dasharray="1,0" opacity="0.7"/><path transform="translate(0,300)" d="M2.7386127875258306,0A2.7386127875258306,2.7386127875258306,0,1,1,-2.7386127875258306,0A2.7386127875258306,2.7386127875258306,0,1,1,2.7386127875258306,0" stroke="#ff7f0e" stroke-width="2" stroke-dasharray="4,2" opacity="0.7"/><path transform="translate(50,234.1205633420206)" d="M2.7386127875258306,0A2.7386127875258306,2.7386127875258306,0,1,1,-2.7386127875258306,0A2.7386127875258306,2.7386127875258306,0,1,1,2.7386127875258306,0" stroke="#ff7f0e" stroke-width="2" stroke-dasharray="4,2" opacity="0.7"/><path transform="translate(100,35.93215446912911)" d="M2.7386127875258306,0A2.7386127875258306,2.7386127875258306,0,1,1,-2.7386127875258306,0A2.7386127875258306,2.7386127875258306,0,1,1,2.7386127875258306,0" stroke="#ff7f0e" stroke-width="2" stroke-dasharray="4,2" opacity="0.7"/><path transform="translate(150,128.16540319362971)" d="M2.7386127875258306,0A2.7386127875258306,2.7386127875258306,0,1,1,-2.7386127875258306,0A2.7386127875258306,2.7386127875258306,0,1,1,2.7386127875258306,0" stroke="#ff7f0e" stroke-width="2" stroke-dasharray="4,2" opacity="0.7"/><path transform="translate(200,252.54378294863199)" d="M2.7386127875258306,0A2.7386127875258306,2.7386127875258306,0,1,1,-2.7386127875258306,0A2.7386127875258306,2.7386127875258306,0,1,1,2.7386127875258306,0" stroke="#ff7f0e" stroke-width="2" stroke-dasharray="4,2" opacity="0.7"/><path transform="translate(250,292.1865582315339)" d="M2.7386127875258306,0A2.7386127875258306,2.7386127875258306,0,1,1,-2.7386127875258306,0A2.7386127875258306,2.7386127875258306,0,1,1,2.7386127875258306,0" stroke="#ff7f0e" stroke-width="2" stroke-dasharray="4,2" opacity="0.7"/><path transform="translate(300,298.9558307936535)" d="M2.7386127875258306,0A2.7386127875258306,2.7386127875258306,0,1,1,-2.7386127875258306,0A2.7386127875258306,2.7386127875258306,0,1,1,2.7386127875258306,0" stroke="#ff7f0e" stroke-width="2" stroke-dasharray="4,2" opacity="0.7"/><path transform="translate(350,299.89812983352715)" d="M2.7386127875258306,0A2.7386127875258306,2.7386127875258306,0,1,1,-2.7386127875258306,0A2.7386127875258306,2.7386127875258306,0,1,1,2.7386127875258306,0" stroke="#ff7f0e" stroke-width="2" stroke-dasharray="4,2" opacity="0.7"/><path transform="translate(400,299.98471947502907)" d="M2.7386127875258306,0A2.7386127875258306,2.7386127875258306,0,1,1,-2.7386127875258306,0A2.7386127875258306,2.7386127875258306,0,1,1,2.7386127875258306,0" stroke="#ff7f0e" stroke-width="2" stroke-dasharray="4,2" opacity="0.7"/><path transform="translate(0,300)" d="M2.7386127875258306,0A2.7386127875258306,2.7386127875258306,0,1,1,-2.7386127875258306,0A2.7386127875258306,2.7386127875258306,0,1,1,2.7386127875258306,0" stroke="#2ca02c" stroke-width="2" stroke-dasharray="2,1" opacity="0.7"/><path transform="translate(50,228.5987639744978)" d="M2.7386127875258306,0A2.7386127875258306,2.7386127875258306,0,1,1,-2.7386127875258306,0A2.7386127875258306,2.7386127875258306,0,1,1,2.7386127875258306,0" stroke="#2ca02c" stroke-width="2" stroke-dasharray="2,1" opacity="0.7"/><path transform="translate(100,13.457044449691825)" d="M2.7386127875258306,0A2.7386127875258306,2.7386127875258306,0,1,1,-2.7386127875258306,0A2.7386127875258306,2.7386127875258306,0,1,1,2.7386127875258306,0" stroke="#2ca02c" stroke-width="2" stroke-dasharray="2,1" opacity="0.7"/><path transform="translate(150,118.43127356224504)" d="M2.7386127875258306,0A2.7386127875258306,2.7386127875258306,0,1,1,-2.7386127875258306,0A2.7386127875258306,2.7386127875258306,0,1,1,2.7386127875258306,0" stroke="#2ca02c" stroke-width="2" stroke-dasharray="2,1" opacity="0.7"/><path transform="translate(200,252.21515637595368)" d="M2.7386127875258306,0A2.7386127875258306,2.7386127875258306,0,1,1,-2.7386127875258306,0A2.7386127875258306,2.7386127875258306,0,1,1,2.7386127875258306,0" stroke="#2ca02c" stroke-width="2" stroke-dasharray="2,1" opacity="0.7"/><path transform="translate(250,292.637587226108)" d="M2.7386127875258306,0A2.7386127875258306,2.7386127875258306,0,1,1,-2.7386127875258306,0A2.7386127875258306,2.7386127875258306,0,1,1,2.7386127875258306,0" stroke="#2ca02c" stroke-width="2" stroke-dasharray="2,1" opacity="0.7"/><path transform="translate(300,299.1499271249786)" d="M2.7386127875258306,0A2.7386127875258306,2.7386127875258306,0,1,1,-2.7386127875258306,0A2.7386127875258306,2.7386127875258306,0,1,1,2.7386127875258306,0" stroke="#2ca02c" stroke-width="2" stroke-dasharray="2,1" opacity="0.7"/><path transform="translate(350,299.8974049978423)" d="M2.7386127875258306,0A2.7386127875258306,2.7386127875258306,0,1,1,-2.7386127875258306,0A2.7386127875258306,2.7386127875258306,0,1,1,2.7386127875258306,0" stroke="#2ca02c" stroke-width="2" stroke-dasharray="2,1" opacity="0.7"/><path transform="translate(400,299.99022904741355)" d="M2.7386127875258306,0A2.7386127875258306,2.7386127875258306,0,1,1,-2.7386127875258306,0A2.7386127875258306,2.7386127875258306,0,1,1,2.7386127875258306,0" stroke="#2ca02c" stroke-width="2" stroke-dasharray="2,1" opacity="0.7"/><path transform="translate(0,300)" d="M2.7386127875258306,0A2.7386127875258306,2.7386127875258306,0,1,1,-2.7386127875258306,0A2.7386127875258306,2.7386127875258306,0,1,1,2.7386127875258306,0" stroke="#d62728" stroke-width="2" stroke-dasharray="1,1" opacity="0.7"/><path transform="translate(50,254.29689914494693)" d="M2.7386127875258306,0A2.7386127875258306,2.7386127875258306,0,1,1,-2.7386127875258306,0A2.7386127875258306,2.7386127875258306,0,1,1,2.7386127875258306,0" stroke="#d62728" stroke-width="2" stroke-dasharray="1,1" opacity="0.7"/><path transform="translate(100,86.89399402493048)" d="M2.7386127875258306,0A2.7386127875258306,2.7386127875258306,0,1,1,-2.7386127875258306,0A2.7386127875258306,2.7386127875258306,0,1,1,2.7386127875258306,0" stroke="#d62728" stroke-width="2" stroke-dasharray="1,1" opacity="0.7"/><path transform="translate(150,134.61213557226742)" d="M2.7386127875258306,0A2.7386127875258306,2.7386127875258306,0,1,1,-2.7386127875258306,0A2.7386127875258306,2.7386127875258306,0,1,1,2.7386127875258306,0" stroke="#d62728" stroke-width="2" stroke-dasharray="1,1" opacity="0.7"/><path transform="translate(200,255.66910476975377)" d="M2.7386127875258306,0A2.7386127875258306,2.7386127875258306,0,1,1,-2.7386127875258306,0A2.7386127875258306,2.7386127875258306,0,1,1,2.7386127875258306,0" stroke="#d62728" stroke-width="2" stroke-dasharray="1,1" opacity="0.7"/><path transform="translate(250,294.8016895024209)" d="M2.7386127875258306,0A2.7386127875258306,2.7386127875258306,0,1,1,-2.7386127875258306,0A2.7386127875258306,2.7386127875258306,0,1,1,2.7386127875258306,0" stroke="#d62728" stroke-width="2" stroke-dasharray="1,1" opacity="0.7"/><path transform="translate(300,299.74039353044196)" d="M2.7386127875258306,0A2.7386127875258306,2.7386127875258306,0,1,1,-2.7386127875258306,0A2.7386127875258306,2.7386127875258306,0,1,1,2.7386127875258306,0" stroke="#d62728" stroke-width="2" stroke-dasharray="1,1" opacity="0.7"/><path transform="translate(350,299.96909446790977)" d="M2.7386127875258306,0A2.7386127875258306,2.7386127875258306,0,1,1,-2.7386127875258306,0A2.7386127875258306,2.7386127875258306,0,1,1,2.7386127875258306,0" stroke="#d62728" stroke-width="2" stroke-dasharray="1,1" opacity="0.7"/><path transform="translate(400,300)" d="M2.7386127875258306,0A2.7386127875258306,2.7386127875258306,0,1,1,-2.7386127875258306,0A2.7386127875258306,2.7386127875258306,0,1,1,2.7386127875258306,0" stroke="#d62728" stroke-width="2" stroke-dasharray="1,1" opacity="0.7"/><path transform="translate(0,300)" d="M2.7386127875258306,0A2.7386127875258306,2.7386127875258306,0,1,1,-2.7386127875258306,0A2.7386127875258306,2.7386127875258306,0,1,1,2.7386127875258306,0" stroke="#9467bd" stroke-width="2" stroke-dasharray="1,2,4,2" opacity="0.7"/><path transform="translate(50,220.94966374566945)" d="M2.7386127875258306,0A2.7386127875258306,2.7386127875258306,0,1,1,-2.7386127875258306,0A2.7386127875258306,2.7386127875258306,0,1,1,2.7386127875258306,0" stroke="#9467bd" stroke-width="2" stroke-dasharray="1,2,4,2" opacity="0.7"/><path transform="translate(100,39.25005094762582)" d="M2.7386127875258306,0A2.7386127875258306,2.7386127875258306,0,1,1,-2.7386127875258306,0A2.7386127875258306,2.7386127875258306,0,1,1,2.7386127875258306,0" stroke="#9467bd" stroke-width="2" stroke-dasharray="1,2,4,2" opacity="0.7"/><path transform="translate(150,208.75280211942123)" d="M2.7386127875258306,0A2.7386127875258306,2.7386127875258306,0,1,1,-2.7386127875258306,0A2.7386127875258306,2.7386127875258306,0,1,1,2.7386127875258306,0" stroke="#9467bd" stroke-width="2" stroke-dasharray="1,2,4,2" opacity="0.7"/><path transform="translate(200,286.6109639290809)" d="M2.7386127875258306,0A2.7386127875258306,2.7386127875258306,0,1,1,-2.7386127875258306,0A2.7386127875258306,2.7386127875258306,0,1,1,2.7386127875258306,0" stroke="#9467bd" stroke-width="2" stroke-dasharray="1,2,4,2" opacity="0.7"/><path transform="translate(250,298.8078255553291)" d="M2.7386127875258306,0A2.7386127875258306,2.7386127875258306,0,1,1,-2.7386127875258306,0A2.7386127875258306,2.7386127875258306,0,1,1,2.7386127875258306,0" stroke="#9467bd" stroke-width="2" stroke-dasharray="1,2,4,2" opacity="0.7"/><path transform="translate(300,299.9388628489913)" d="M2.7386127875258306,0A2.7386127875258306,2.7386127875258306,0,1,1,-2.7386127875258306,0A2.7386127875258306,2.7386127875258306,0,1,1,2.7386127875258306,0" stroke="#9467bd" stroke-width="2" stroke-dasharray="1,2,4,2" opacity="0.7"/><path transform="translate(350,300)" d="M2.7386127875258306,0A2.7386127875258306,2.7386127875258306,0,1,1,-2.7386127875258306,0A2.7386127875258306,2.7386127875258306,0,1,1,2.7386127875258306,0" stroke="#9467bd" stroke-width="2" stroke-dasharray="1,2,4,2" opacity="0.7"/><path transform="translate(400,300)" d="M2.7386127875258306,0A2.7386127875258306,2.7386127875258306,0,1,1,-2.7386127875258306,0A2.7386127875258306,2.7386127875258306,0,1,1,2.7386127875258306,0" stroke="#9467bd" stroke-width="2" stroke-dasharray="1,2,4,2" opacity="0.7"/></g><g class="mark-group role-legend" role="graphics-symbol" aria-roledescription="legend" aria-label="Symbol legend titled 'Dataset' for stroke color and strokeDash with 5 values: VidSitu, MPII, AC, VATEX-en, MSRVTT"><g transform="translate(293,18)"><path class="background" aria-hidden="true" d="M0,0h89v103h-89Z" pointer-events="none" fill="white"/><g><g class="mark-group role-legend-entry"><g transform="translate(3,22)"><path class="background" aria-hidden="true" d="M0,0h0v0h0Z" pointer-events="none"/><g><g class="mark-group role-scope" role="graphics-object" aria-roledescription="group mark container"><g transform="translate(0,0)"><path class="background" aria-hidden="true" d="M0,0h82.0732421875v14h-82.0732421875Z" pointer-events="none" opacity="1"/><g><g class="mark-symbol role-legend-symbol" pointer-events="none"><path transform="translate(7,7)" d="M5,0A5,5,0,1,1,-5,0A5,5,0,1,1,5,0" stroke="#1f77b4" stroke-width="1.5" stroke-dasharray="1,0" opacity="0.7"/></g><g class="mark-text role-legend-label" pointer-events="none"><text text-anchor="start" transform="translate(18,11)" font-family="sans-serif" font-size="14px" font-style="italic" fill="#000" opacity="1">VidSitu</text></g></g><path class="foreground" aria-hidden="true" d="" pointer-events="none" display="none"/></g><g transform="translate(0,16)"><path class="background" aria-hidden="true" d="M0,0h82.0732421875v14h-82.0732421875Z" pointer-events="none" opacity="1"/><g><g class="mark-symbol role-legend-symbol" pointer-events="none"><path transform="translate(7,7)" d="M5,0A5,5,0,1,1,-5,0A5,5,0,1,1,5,0" stroke="#ff7f0e" stroke-width="1.5" stroke-dasharray="4,2" opacity="0.7"/></g><g class="mark-text role-legend-label" pointer-events="none"><text text-anchor="start" transform="translate(18,11)" font-family="sans-serif" font-size="14px" font-style="italic" fill="#000" opacity="1">MPII</text></g></g><path class="foreground" aria-hidden="true" d="" pointer-events="none" display="none"/></g><g transform="translate(0,32)"><path class="background" aria-hidden="true" d="M0,0h82.0732421875v14h-82.0732421875Z" pointer-events="none" opacity="1"/><g><g class="mark-symbol role-legend-symbol" pointer-events="none"><path transform="translate(7,7)" d="M5,0A5,5,0,1,1,-5,0A5,5,0,1,1,5,0" stroke="#2ca02c" stroke-width="1.5" stroke-dasharray="2,1" opacity="0.7"/></g><g class="mark-text role-legend-label" pointer-events="none"><text text-anchor="start" transform="translate(18,11)" font-family="sans-serif" font-size="14px" font-style="italic" fill="#000" opacity="1">AC</text></g></g><path class="foreground" aria-hidden="true" d="" pointer-events="none" display="none"/></g><g transform="translate(0,48)"><path class="background" aria-hidden="true" d="M0,0h82.0732421875v14h-82.0732421875Z" pointer-events="none" opacity="1"/><g><g class="mark-symbol role-legend-symbol" pointer-events="none"><path transform="translate(7,7)" d="M5,0A5,5,0,1,1,-5,0A5,5,0,1,1,5,0" stroke="#d62728" stroke-width="1.5" stroke-dasharray="1,1" opacity="0.7"/></g><g class="mark-text role-legend-label" pointer-events="none"><text text-anchor="start" transform="translate(18,11)" font-family="sans-serif" font-size="14px" font-style="italic" fill="#000" opacity="1">VATEX-en</text></g></g><path class="foreground" aria-hidden="true" d="" pointer-events="none" display="none"/></g><g transform="translate(0,64)"><path class="background" aria-hidden="true" d="M0,0h82.0732421875v14h-82.0732421875Z" pointer-events="none" opacity="1"/><g><g class="mark-symbol role-legend-symbol" pointer-events="none"><path transform="translate(7,7)" d="M5,0A5,5,0,1,1,-5,0A5,5,0,1,1,5,0" stroke="#9467bd" stroke-width="1.5" stroke-dasharray="1,2,4,2" opacity="0.7"/></g><g class="mark-text role-legend-label" pointer-events="none"><text text-anchor="start" transform="translate(18,11)" font-family="sans-serif" font-size="14px" font-style="italic" fill="#000" opacity="1">MSRVTT</text></g></g><path class="foreground" aria-hidden="true" d="" pointer-events="none" display="none"/></g></g></g><path class="foreground" aria-hidden="true" d="" pointer-events="none" display="none"/></g></g><g class="mark-text role-legend-title" pointer-events="none"><text text-anchor="start" transform="translate(3,14)" font-family="sans-serif" font-size="14px" font-weight="bold" fill="#000" opacity="1">Dataset</text></g></g><path class="foreground" aria-hidden="true" d="" pointer-events="none" display="none"/></g></g><g class="mark-group role-title"><g transform="translate(200,-30)"><path class="background" aria-hidden="true" d="M0,0h0v0h0Z" pointer-events="none"/><g><g class="mark-text role-title-text" role="graphics-symbol" aria-roledescription="title" aria-label="Title text 'Histogram of Semantic Roles Per Verb'" pointer-events="none"><text text-anchor="middle" transform="translate(0,16)" font-family="Courier" font-size="20px" font-weight="bold" fill="black" opacity="1">Histogram of Semantic Roles Per Verb</text></g></g><path class="foreground" aria-hidden="true" d="" pointer-events="none" display="none"/></g></g></g><path class="foreground" aria-hidden="true" d="" display="none"/></g></g></g></svg>