<svg xmlns="http://www.w3.org/2000/svg" xmlns:xlink="http://www.w3.org/1999/xlink" version="1.1" class="marks" width="466" height="382" viewBox="0 0 466 382"><rect width="466" height="382" fill="white"/><g fill="none" stroke-miterlimit="10" transform="translate(60,35)"><g class="mark-group role-frame root" role="graphics-object" aria-roledescription="group mark container"><g transform="translate(0,0)"><path class="background" aria-hidden="true" d="M0.5,0.5h400v300h-400Z" stroke="#ddd"/><g><g class="mark-group role-axis" role="graphics-symbol" aria-roledescription="axis" aria-label="X-axis for a linear scale with values from 0 to 160"><g transform="translate(0.5,300.5)"><path class="background" aria-hidden="true" d="M0,0h0v0h0Z" pointer-events="none"/><g><g class="mark-rule role-axis-grid" pointer-events="none"><line transform="translate(0,-300)" x2="0" y2="300" stroke="#ddd" stroke-width="1" opacity="1"/><line transform="translate(50,-300)" x2="0" y2="300" stroke="#ddd" stroke-width="1" opacity="1"/><line transform="translate(100,-300)" x2="0" y2="300" stroke="#ddd" stroke-width="1" opacity="1"/><line transform="translate(150,-300)" x2="0" y2="300" stroke="#ddd" stroke-width="1" opacity="1"/><line transform="translate(200,-300)" x2="0" y2="300" stroke="#ddd" stroke-width="1" opacity="1"/><line transform="translate(250,-300)" x2="0" y2="300" stroke="#ddd" stroke-width="1" opacity="1"/><line transform="translate(300,-300)" x2="0" y2="300" stroke="#ddd" stroke-width="1" opacity="1"/><line transform="translate(350,-300)" x2="0" y2="300" stroke="#ddd" stroke-width="1" opacity="1"/><line transform="translate(400,-300)" x2="0" y2="300" stroke="#ddd" stroke-width="1" opacity="1"/></g></g><path class="foreground" aria-hidden="true" d="" pointer-events="none" display="none"/></g></g><g class="mark-group role-axis" role="graphics-symbol" aria-roledescription="axis" aria-label="Y-axis for a linear scale with values from 0.00 to 0.16"><g transform="translate(0.5,0.5)"><path class="background" aria-hidden="true" d="M0,0h0v0h0Z" pointer-events="none"/><g><g class="mark-rule role-axis-grid" pointer-events="none"><line transform="translate(0,300)" x2="400" y2="0" stroke="#ddd" stroke-width="1" opacity="1"/><line transform="translate(0,263)" x2="400" y2="0" stroke="#ddd" stroke-width="1" opacity="1"/><line transform="translate(0,225)" x2="400" y2="0" stroke="#ddd" stroke-width="1" opacity="1"/><line transform="translate(0,188)" x2="400" y2="0" stroke="#ddd" stroke-width="1" opacity="1"/><line transform="translate(0,150)" x2="400" y2="0" stroke="#ddd" stroke-width="1" opacity="1"/><line transform="translate(0,113)" x2="400" y2="0" stroke="#ddd" stroke-width="1" opacity="1"/><line transform="translate(0,75)" x2="400" y2="0" stroke="#ddd" stroke-width="1" opacity="1"/><line transform="translate(0,37)" x2="400" y2="0" stroke="#ddd" stroke-width="1" opacity="1"/><line transform="translate(0,0)" x2="400" y2="0" stroke="#ddd" stroke-width="1" opacity="1"/></g></g><path class="foreground" aria-hidden="true" d="" pointer-events="none" display="none"/></g></g><g class="mark-group role-axis" role="graphics-symbol" aria-roledescription="axis" aria-label="X-axis titled 'Unique Words Per Video' for a linear scale with values from 0 to 160"><g transform="translate(0.5,300.5)"><path class="background" aria-hidden="true" d="M0,0h0v0h0Z" pointer-events="none"/><g><g class="mark-rule role-axis-tick" pointer-events="none"><line transform="translate(0,0)" x2="0" y2="5" stroke="#888" stroke-width="1" opacity="1"/><line transform="translate(50,0)" x2="0" y2="5" stroke="#888" stroke-width="1" opacity="1"/><line transform="translate(100,0)" x2="0" y2="5" stroke="#888" stroke-width="1" opacity="1"/><line transform="translate(150,0)" x2="0" y2="5" stroke="#888" stroke-width="1" opacity="1"/><line transform="translate(200,0)" x2="0" y2="5" stroke="#888" stroke-width="1" opacity="1"/><line transform="translate(250,0)" x2="0" y2="5" stroke="#888" stroke-width="1" opacity="1"/><line transform="translate(300,0)" x2="0" y2="5" stroke="#888" stroke-width="1" opacity="1"/><line transform="translate(350,0)" x2="0" y2="5" stroke="#888" stroke-width="1" opacity="1"/><line transform="translate(400,0)" x2="0" y2="5" stroke="#888" stroke-width="1" opacity="1"/></g><g class="mark-text role-axis-label" pointer-events="none"><text text-anchor="start" transform="translate(0,16)" font-family="sans-serif" font-size="12px" fill="#000" opacity="1">0</text><text text-anchor="middle" transform="translate(50,16)" font-family="sans-serif" font-size="12px" fill="#000" opacity="1">20</text><text text-anchor="middle" transform="translate(100,16)" font-family="sans-serif" font-size="12px" fill="#000" opacity="1">40</text><text text-anchor="middle" transform="translate(150,16)" font-family="sans-serif" font-size="12px" fill="#000" opacity="1">60</text><text text-anchor="middle" transform="translate(200,16)" font-family="sans-serif" font-size="12px" fill="#000" opacity="1">80</text><text text-anchor="middle" transform="translate(250,16)" font-family="sans-serif" font-size="12px" fill="#000" opacity="1">100</text><text text-anchor="middle" transform="translate(300,16)" font-family="sans-serif" font-size="12px" fill="#000" opacity="1">120</text><text text-anchor="middle" transform="translate(350,16)" font-family="sans-serif" font-size="12px" fill="#000" opacity="1">140</text><text text-anchor="end" transform="translate(400,16)" font-family="sans-serif" font-size="12px" fill="#000" opacity="1">160</text></g><g class="mark-rule role-axis-domain" pointer-events="none"><line transform="translate(0,0)" x2="400" y2="0" stroke="#888" stroke-width="1" opacity="1"/></g><g class="mark-text role-axis-title" pointer-events="none"><text text-anchor="middle" transform="translate(200,39)" font-family="Arial" font-size="14px" font-weight="bold" fill="#000" opacity="1">Unique Words Per Video</text></g></g><path class="foreground" aria-hidden="true" d="" pointer-events="none" display="none"/></g></g><g class="mark-group role-axis" role="graphics-symbol" aria-roledescription="axis" aria-label="Y-axis titled 'Fraction of Dataset' for a linear scale with values from 0.00 to 0.16"><g transform="translate(0.5,0.5)"><path class="background" aria-hidden="true" d="M0,0h0v0h0Z" pointer-events="none"/><g><g class="mark-rule role-axis-tick" pointer-events="none"><line transform="translate(0,300)" x2="-5" y2="0" stroke="#888" stroke-width="1" opacity="1"/><line transform="translate(0,263)" x2="-5" y2="0" stroke="#888" stroke-width="1" opacity="1"/><line transform="translate(0,225)" x2="-5" y2="0" stroke="#888" stroke-width="1" opacity="1"/><line transform="translate(0,188)" x2="-5" y2="0" stroke="#888" stroke-width="1" opacity="1"/><line transform="translate(0,150)" x2="-5" y2="0" stroke="#888" stroke-width="1" opacity="1"/><line transform="translate(0,113)" x2="-5" y2="0" stroke="#888" stroke-width="1" opacity="1"/><line transform="translate(0,75)" x2="-5" y2="0" stroke="#888" stroke-width="1" opacity="1"/><line transform="translate(0,37)" x2="-5" y2="0" stroke="#888" stroke-width="1" opacity="1"/><line transform="translate(0,0)" x2="-5" y2="0" stroke="#888" stroke-width="1" opacity="1"/></g><g class="mark-text role-axis-label" pointer-events="none"><text text-anchor="end" transform="translate(-7,304)" font-family="sans-serif" font-size="12px" fill="#000" opacity="1">0.00</text><text text-anchor="end" transform="translate(-7,266.5)" font-family="sans-serif" font-size="12px" fill="#000" opacity="1">0.02</text><text text-anchor="end" transform="translate(-7,229)" font-family="sans-serif" font-size="12px" fill="#000" opacity="1">0.04</text><text text-anchor="end" transform="translate(-7,191.5)" font-family="sans-serif" font-size="12px" fill="#000" opacity="1">0.06</text><text text-anchor="end" transform="translate(-7,154)" font-family="sans-serif" font-size="12px" fill="#000" opacity="1">0.08</text><text text-anchor="end" transform="translate(-7,116.5)" font-family="sans-serif" font-size="12px" fill="#000" opacity="1">0.10</text><text text-anchor="end" transform="translate(-7,79)" font-family="sans-serif" font-size="12px" fill="#000" opacity="1">0.12</text><text text-anchor="end" transform="translate(-7,41.499999999999964)" font-family="sans-serif" font-size="12px" fill="#000" opacity="1">0.14</text><text text-anchor="end" transform="translate(-7,4)" font-family="sans-serif" font-size="12px" fill="#000" opacity="1">0.16</text></g><g class="mark-rule role-axis-domain" pointer-events="none"><line transform="translate(0,300)" x2="0" y2="-300" stroke="#888" stroke-width="1" opacity="1"/></g><g class="mark-text role-axis-title" pointer-events="none"><text text-anchor="middle" transform="translate(-40.35546875,150) rotate(-90) translate(0,-3)" font-family="Arial" font-size="14px" font-weight="bold" fill="#000" opacity="1">Fraction of Dataset</text></g></g><path class="foreground" aria-hidden="true" d="" pointer-events="none" display="none"/></g></g><g class="mark-group role-scope pathgroup" role="graphics-object" aria-roledescription="group mark container"><g transform="translate(0,0)"><path class="background" aria-hidden="true" d="M0,0h400v300h-400Z"/><g><g class="mark-line role-mark marks" role="graphics-symbol" aria-roledescription="line mark container"><path d="M0,300L2.5,300L5,299.43946188340806L7.5,297.50871948181367L10,294.2077727952167L12.5,291.15595416043845L15,287.66816143497755L17.5,285.9242650722471L20,282.74788241155954L22.5,281.37767812655704L25,280.4434479322372L27.500000000000004,276.70652715495766L30,275.33632286995515L32.5,274.090682610862L35,270.4160438465371L37.5,267.3642252117588L40,266.80368709516694L42.5,266.67912306925757L45,264.31240657698055L47.5,265.86945690084707L50,262.6307922272048L52.5,260.4509217737917L55.00000000000001,258.0842052815147L57.49999999999999,258.9561534628799L60,254.22272047832587L62.5,252.29197807673143L65,250.29895366218236L67.5,251.7314399601395L70,251.10861983059291L72.5,251.79372197309416L75,254.34728450423518L77.5,250.734927752865L80,252.5411061285501L82.5,250.548081714001L85,252.97708021923268L87.5,252.91479820627802L90,253.91131041355254L92.5,257.6482311908321L95,260.13951170901845L97.5,259.3298455406079L100,262.6307922272048L102.49999999999999,262.7553562531141L105,264.3746885899352L107.5,269.9800697558545L110.00000000000001,267.55107125062284L112.5,270.97658196312904L114.99999999999999,272.34678624813154L117.5,274.1529646238167L120,277.45391131041356L122.50000000000001,279.57149975087196L125,279.9451918285999L127.49999999999999,281.4399601395117L130,283.2461385151968L132.5,284.11808669656205L135,284.99003487792726L137.5,286.9207772795217L140,286.48480318883907L142.5,287.85500747384157L145,289.9103139013453L147.5,288.6646736422521L150,289.8480318883906L152.5,291.5296462381664L155,291.7164922770304L157.5,291.65421026407574L160,292.8375685102142L162.5,293.9586447433981L165,293.39810662680617L167.5,294.892874937718L170,294.64374688589936L172.5,295.39113104135527L175,295.14200298953665L177.5,295.5779770802192L180,294.5814648729447L182.5,296.2007972097658L185,296.2007972097658L187.5,296.76133532635777L190,296.69905331340306L192.5,296.8858993522671L195,296.9481813652217L197.5,296.69905331340306L200,296.9481813652217L202.5,297.5710014947683L204.99999999999997,297.633283507723L207.50000000000003,297.82012954658694L210,297.82012954658694L212.5,298.2561036372696L215,296.6367713004484L217.49999999999997,298.7543597409068L220.00000000000003,297.633283507723L222.5,299.0034877927255L225,298.5052316890882L227.5,298.5052316890882L229.99999999999997,298.1938216243149L232.50000000000003,298.69207772795215L235,298.8166417538615L237.5,298.13153961136027L240,298.3806676631789L242.49999999999997,299.1280518186348L245.00000000000003,298.56751370204285L247.5,299.5017438963627L250,299.43946188340806L252.5,299.1280518186348L254.99999999999997,299.31489785749875L257.5,299.19033383158944L260,299.5017438963627L262.5,299.2526158445441L265,299.43946188340806L267.5,299.7508719481813L270,299.6263079222721L272.5,299.43946188340806L275,299.7508719481813L277.5,299.7508719481813L280,299.31489785749875L282.5,299.5640259093174L285,299.6263079222721L287.5,299.81315396113604L290,299.8754359740907L292.5,299.6263079222721L295,299.93771798704535L297.5,299.7508719481813L300,299.7508719481813L302.5,299.8754359740907L305,299.8754359740907L307.5,299.93771798704535L310,299.81315396113604L312.5,299.8754359740907L315,300L317.5,299.81315396113604L320,299.6885899352267L322.5,299.93771798704535L325,299.7508719481813L327.5,299.8754359740907L330,299.93771798704535L332.5,299.93771798704535L335,299.93771798704535L337.5,300L340,299.93771798704535L342.5,299.93771798704535L345,300L347.5,300L350,300L352.5,299.93771798704535L355,300L357.5,300L360,299.93771798704535L362.5,300L365,300L367.5,300L370,300L372.5,300L375,300" stroke="#1f77b4" stroke-width="2" stroke-dasharray="1,0"/></g></g><path class="foreground" aria-hidden="true" d="" display="none"/></g><g transform="translate(0,0)"><path class="background" aria-hidden="true" d="M0,0h400v300h-400Z"/><g><g class="mark-line role-mark marks" role="graphics-symbol" aria-roledescription="line mark container"><path d="M0,300L2.5,297.2851919561243L5,252.44972577696527L7.5,196.2065813528336L10,154.55210237659963L12.5,126.30712979890312L15,133.49177330895796L17.5,136.3162705667276L20,152.0018281535649L22.5,164.78062157221208L25,176.79159049360146L27.500000000000004,189.98171846435102L30,204.6526508226691L32.5,218.80255941499087L35,231.17001828153568L37.5,241.23400365630712L40,252.42230347349178L42.5,260.86837294332724L45,267.6416819012797L47.5,274.0036563071298L50,279.84460694698356L52.5,282.83363802559415L55.00000000000001,287.0566727605119L57.49999999999999,289.3327239488117L60,291.74588665447897L62.5,292.92504570383915L65,294.7897623400366L67.5,295.7221206581353L70,296.8738574040219L72.5,296.65447897623403L75,298.13528336380256L77.5,298.382084095064L80,298.6837294332724L82.5,298.5740402193784L85,298.84826325411336L87.5,299.25959780621577L90,299.14990859232176L92.5,299.3144424131627L95,299.3144424131627L97.5,299.45155393053017L100,299.6709323583181L102.49999999999999,299.78062157221206L105,299.6435100548446L107.5,299.78062157221206L110.00000000000001,299.5886654478976L112.5,299.89031078610606L114.99999999999999,299.9725776965265L117.5,299.945155393053L120,299.8354661791591L122.50000000000001,299.945155393053L125,299.89031078610606L127.49999999999999,299.91773308957954L130,299.91773308957954L132.5,299.89031078610606L135,299.91773308957954L137.5,299.9725776965265L140,299.9725776965265L142.5,300L145,299.945155393053L147.5,299.945155393053L150,299.945155393053L152.5,299.91773308957954L155,299.9725776965265L157.5,300L160,300L162.5,300L165,300L167.5,300L170,300L172.5,300L175,300L177.5,300L180,300L182.5,300L185,300L187.5,300L190,299.9725776965265L192.5,300L195,300L197.5,299.9725776965265L200,300L202.5,300L204.99999999999997,300L207.50000000000003,300L210,300L212.5,300L215,300L217.49999999999997,300L220.00000000000003,300L222.5,300L225,300L227.5,300L229.99999999999997,300L232.50000000000003,299.9725776965265L235,300L237.5,300L240,300L242.49999999999997,300L245.00000000000003,299.9725776965265L247.5,300L250,300L252.5,300L254.99999999999997,300L257.5,300L260,300L262.5,300L265,300L267.5,300L270,300L272.5,300L275,300L277.5,300L280,300L282.5,300L285,300L287.5,300L290,300L292.5,300L295,300L297.5,300L300,300L302.5,300L305,300L307.5,300L310,300L312.5,300L315,300L317.5,300L320,300L322.5,300L325,300L327.5,300L330,300L332.5,300L335,300L337.5,300L340,300L342.5,300L345,300L347.5,300L350,300L352.5,300L355,300L357.5,300L360,300L362.5,300L365,300L367.5,300L370,300L372.5,300L375,300" stroke="#ff7f0e" stroke-width="2" stroke-dasharray="4,2"/></g></g><path class="foreground" aria-hidden="true" d="" display="none"/></g><g transform="translate(0,0)"><path class="background" aria-hidden="true" d="M0,0h400v300h-400Z"/><g><g class="mark-line role-mark marks" role="graphics-symbol" aria-roledescription="line mark container"><path d="M0,300L2.5,300L5,300L7.5,300L10,300L12.5,300L15,245.2786476349998L17.5,197.52121035575138L20,167.13942395222662L22.5,149.18344681935696L25,153.07504642610058L27.500000000000004,157.58110912864583L30,165.77395040600078L32.5,173.18164439427593L35,180.28210683465028L37.5,188.47494811200522L40,194.65371590867713L42.5,206.39678840621926L45,217.9009030331719L47.5,228.34677566179954L50,243.46939518625058L52.5,253.06184684848705L55.00000000000001,263.0980774132469L57.49999999999999,270.6423187561446L60,277.74278119651893L62.5,281.63438080326256L65,286.3452645377417L67.5,287.71073808396756L70,290.5099588537305L72.5,292.72885336634744L75,294.026053235262L77.5,295.01602155627575L80,295.1525689108983L82.5,296.1766740705677L85,296.1766740705677L87.5,297.2349160688927L90,297.303189746204L92.5,297.88351600335L95,298.08833703528387L97.5,298.6003896151185L100,298.3272949058734L102.49999999999999,299.0441685176419L105,298.9076211630193L107.5,298.70280013108544L110.00000000000001,299.3855369041984L112.5,299.28312638823144L114.99999999999999,299.31726322688706L117.5,299.4538105815097L120,299.41967374285406L122.50000000000001,299.5562210974766L125,299.65863161344356L127.49999999999999,299.41967374285406L130,299.59035793613225L132.5,299.7951789680661L135,299.65863161344356L137.5,299.7269052907548L140,299.86345264537744L142.5,299.6927684520992L145,299.9658631613444L147.5,299.89758948403306L150,299.89758948403306L152.5,299.7951789680661L155,299.7610421294105L157.5,300L160,299.9317263226887L162.5,299.9658631613444L165,299.9317263226887L167.5,299.89758948403306L170,300L172.5,299.9658631613444L175,299.9317263226887L177.5,300L180,299.9658631613444L182.5,299.9658631613444L185,299.9658631613444L187.5,300L190,300L192.5,300L195,300L197.5,300L200,300L202.5,300L204.99999999999997,300L207.50000000000003,299.9658631613444L210,300L212.5,300L215,300L217.49999999999997,300L220.00000000000003,300L222.5,300L225,300L227.5,300L229.99999999999997,300L232.50000000000003,300L235,300L237.5,300L240,300L242.49999999999997,300L245.00000000000003,300L247.5,300L250,300L252.5,300L254.99999999999997,300L257.5,300L260,300L262.5,300L265,300L267.5,300L270,300L272.5,300L275,300L277.5,300L280,300L282.5,300L285,300L287.5,300L290,300L292.5,300L295,300L297.5,300L300,300L302.5,300L305,300L307.5,300L310,300L312.5,300L315,300L317.5,300L320,300L322.5,300L325,300L327.5,300L330,300L332.5,300L335,300L337.5,300L340,300L342.5,300L345,300L347.5,300L350,300L352.5,300L355,300L357.5,300L360,300L362.5,300L365,300L367.5,300L370,300L372.5,300L375,300" stroke="#2ca02c" stroke-width="2" stroke-dasharray="2,1"/></g></g><path class="foreground" aria-hidden="true" d="" display="none"/></g><g transform="translate(0,0)"><path class="background" aria-hidden="true" d="M0,0h400v300h-400Z"/><g><g class="mark-line role-mark marks" role="graphics-symbol" aria-roledescription="line mark container"><path d="M0,300L2.5,300L5,300L7.5,300L10,300L12.5,300L15,300L17.5,300L20,293.537623960447L22.5,280.51641850761627L25,143.18288988597067L27.500000000000004,73.48461032837014L30,33.75653739533022L32.5,41.27454202509215L35,73.80076305335656L37.5,115.45790346088995L40,160.78563059072331L42.5,194.75865222485785L45,224.412706124432L47.5,244.48036637992624L50,259.18950587293875L52.5,270.51206024406275L55.00000000000001,278.4748220971107L57.49999999999999,284.2941756451659L60,288.38272698693953L62.5,291.5121031122289L65,293.682304021034L67.5,295.35952101969076L70,296.2329599039753L72.5,297.508287845446L75,297.8405161327198L77.5,298.387085250493L80,298.7461061415793L82.5,298.96044697207856L85,299.2069389271527L87.5,299.4373553199394L90,299.60346946357635L92.5,299.64633762967617L95,299.74814952416335L97.5,299.710639878826L100,299.8606784601755L102.49999999999999,299.844602897888L105,299.86603698093796L107.5,299.9464147923752L110.00000000000001,299.9356977508502L112.5,299.9410562716127L114.99999999999999,299.9732073961876L117.5,299.9678488754251L120,299.9732073961876L122.50000000000001,299.9732073961876L125,299.9678488754251L127.49999999999999,299.96249035466263L130,299.9732073961876L132.5,299.99464147923754L135,299.99464147923754L137.5,299.99464147923754L140,299.9839244377126L142.5,299.99464147923754L145,299.99464147923754L147.5,299.99464147923754L150,300L152.5,300L155,300L157.5,300L160,299.99464147923754L162.5,299.99464147923754L165,300L167.5,300L170,300L172.5,299.99464147923754L175,300L177.5,300L180,300L182.5,300L185,300L187.5,300L190,300L192.5,300L195,299.99464147923754L197.5,300L200,300L202.5,300L204.99999999999997,300L207.50000000000003,300L210,300L212.5,300L215,300L217.49999999999997,300L220.00000000000003,300L222.5,300L225,300L227.5,300L229.99999999999997,300L232.50000000000003,300L235,300L237.5,300L240,300L242.49999999999997,300L245.00000000000003,300L247.5,300L250,300L252.5,300L254.99999999999997,300L257.5,300L260,300L262.5,300L265,300L267.5,300L270,300L272.5,300L275,300L277.5,300L280,300L282.5,300L285,300L287.5,300L290,300L292.5,300L295,300L297.5,300L300,300L302.5,300L305,300L307.5,300L310,300L312.5,300L315,300L317.5,300L320,300L322.5,300L325,300L327.5,300L330,300L332.5,300L335,300L337.5,300L340,300L342.5,300L345,300L347.5,300L350,300L352.5,300L355,300L357.5,300L360,300L362.5,300L365,300L367.5,300L370,300L372.5,300L375,300" stroke="#d62728" stroke-width="2" stroke-dasharray="1,1"/></g></g><path class="foreground" aria-hidden="true" d="" display="none"/></g><g transform="translate(0,0)"><path class="background" aria-hidden="true" d="M0,0h400v300h-400Z"/><g><g class="mark-line role-mark marks" role="graphics-symbol" aria-roledescription="line mark container"><path d="M0,300L2.5,300L5,300L7.5,293.11875L10,187.996875L12.5,115.884375L15,69.06562500000001L17.5,89.02500000000002L20,103.63124999999998L22.5,108.15L25,129.28125L27.500000000000004,163.06875L30,198.84375L32.5,222.065625L35,241.74375L37.5,255.28125L40,266.66249999999997L42.5,274.565625L45,280.60312500000003L47.5,285.0375L50,287.325L52.5,289.3875L55.00000000000001,292.3875L57.49999999999999,293.96250000000003L60,295.040625L62.5,295.884375L65,296.8125L67.5,297.778125L70,298.2375L72.5,298.621875L75,299.0625L77.5,299.14687499999997L80,299.41875L82.5,299.409375L85,299.728125L87.5,299.728125L90,299.840625L92.5,299.85L95,299.94375L97.5,299.925L100,299.953125L102.49999999999999,299.878125L105,299.94375L107.5,299.99062499999997L110.00000000000001,299.94375L112.5,299.94375L114.99999999999999,300L117.5,299.9625L120,299.98125L122.50000000000001,299.99062499999997L125,299.99062499999997L127.49999999999999,299.971875L130,299.99062499999997L132.5,300L135,299.99062499999997L137.5,300L140,300L142.5,300L145,299.98125L147.5,299.98125L150,300L152.5,300L155,300L157.5,300L160,300L162.5,300L165,300L167.5,300L170,300L172.5,300L175,300L177.5,300L180,300L182.5,299.99062499999997L185,300L187.5,300L190,300L192.5,300L195,300L197.5,300L200,300L202.5,300L204.99999999999997,300L207.50000000000003,300L210,300L212.5,300L215,300L217.49999999999997,300L220.00000000000003,300L222.5,300L225,300L227.5,300L229.99999999999997,300L232.50000000000003,300L235,300L237.5,300L240,300L242.49999999999997,300L245.00000000000003,300L247.5,300L250,300L252.5,300L254.99999999999997,300L257.5,300L260,300L262.5,300L265,300L267.5,300L270,300L272.5,300L275,300L277.5,300L280,300L282.5,300L285,300L287.5,300L290,300L292.5,300L295,300L297.5,300L300,300L302.5,300L305,300L307.5,300L310,300L312.5,300L315,300L317.5,300L320,300L322.5,300L325,300L327.5,300L330,300L332.5,300L335,300L337.5,300L340,300L342.5,300L345,300L347.5,300L350,300L352.5,300L355,300L357.5,300L360,300L362.5,300L365,300L367.5,300L370,300L372.5,300L375,300" stroke="#9467bd" stroke-width="2" stroke-dasharray="1,2,4,2"/></g></g><path class="foreground" aria-hidden="true" d="" display="none"/></g></g><g class="mark-group role-legend" role="graphics-symbol" aria-roledescription="legend" aria-label="Symbol legend titled 'Dataset' for stroke color and strokeDash with 5 values: VidSitu, MPII, AC, VATEX-en, MSRVTT"><g transform="translate(293,18)"><path class="background" aria-hidden="true" d="M0,0h89v103h-89Z" pointer-events="none" fill="white"/><g><g class="mark-group role-legend-entry"><g transform="translate(3,22)"><path class="background" aria-hidden="true" d="M0,0h0v0h0Z" pointer-events="none"/><g><g class="mark-group role-scope" role="graphics-object" aria-roledescription="group mark container"><g transform="translate(0,0)"><path class="background" aria-hidden="true" d="M0,0h82.0732421875v14h-82.0732421875Z" pointer-events="none" opacity="1"/><g><g class="mark-symbol role-legend-symbol" pointer-events="none"><path transform="translate(7,7)" d="M-5,0L5,0" stroke="#1f77b4" stroke-width="1.5" stroke-dasharray="1,0" opacity="1"/></g><g class="mark-text role-legend-label" pointer-events="none"><text text-anchor="start" transform="translate(18,11)" font-family="sans-serif" font-size="14px" font-style="italic" fill="#000" opacity="1">VidSitu</text></g></g><path class="foreground" aria-hidden="true" d="" pointer-events="none" display="none"/></g><g transform="translate(0,16)"><path class="background" aria-hidden="true" d="M0,0h82.0732421875v14h-82.0732421875Z" pointer-events="none" opacity="1"/><g><g class="mark-symbol role-legend-symbol" pointer-events="none"><path transform="translate(7,7)" d="M-5,0L5,0" stroke="#ff7f0e" stroke-width="1.5" stroke-dasharray="4,2" opacity="1"/></g><g class="mark-text role-legend-label" pointer-events="none"><text text-anchor="start" transform="translate(18,11)" font-family="sans-serif" font-size="14px" font-style="italic" fill="#000" opacity="1">MPII</text></g></g><path class="foreground" aria-hidden="true" d="" pointer-events="none" display="none"/></g><g transform="translate(0,32)"><path class="background" aria-hidden="true" d="M0,0h82.0732421875v14h-82.0732421875Z" pointer-events="none" opacity="1"/><g><g class="mark-symbol role-legend-symbol" pointer-events="none"><path transform="translate(7,7)" d="M-5,0L5,0" stroke="#2ca02c" stroke-width="1.5" stroke-dasharray="2,1" opacity="1"/></g><g class="mark-text role-legend-label" pointer-events="none"><text text-anchor="start" transform="translate(18,11)" font-family="sans-serif" font-size="14px" font-style="italic" fill="#000" opacity="1">AC</text></g></g><path class="foreground" aria-hidden="true" d="" pointer-events="none" display="none"/></g><g transform="translate(0,48)"><path class="background" aria-hidden="true" d="M0,0h82.0732421875v14h-82.0732421875Z" pointer-events="none" opacity="1"/><g><g class="mark-symbol role-legend-symbol" pointer-events="none"><path transform="translate(7,7)" d="M-5,0L5,0" stroke="#d62728" stroke-width="1.5" stroke-dasharray="1,1" opacity="1"/></g><g class="mark-text role-legend-label" pointer-events="none"><text text-anchor="start" transform="translate(18,11)" font-family="sans-serif" font-size="14px" font-style="italic" fill="#000" opacity="1">VATEX-en</text></g></g><path class="foreground" aria-hidden="true" d="" pointer-events="none" display="none"/></g><g transform="translate(0,64)"><path class="background" aria-hidden="true" d="M0,0h82.0732421875v14h-82.0732421875Z" pointer-events="none" opacity="1"/><g><g class="mark-symbol role-legend-symbol" pointer-events="none"><path transform="translate(7,7)" d="M-5,0L5,0" stroke="#9467bd" stroke-width="1.5" stroke-dasharray="1,2,4,2" opacity="1"/></g><g class="mark-text role-legend-label" pointer-events="none"><text text-anchor="start" transform="translate(18,11)" font-family="sans-serif" font-size="14px" font-style="italic" fill="#000" opacity="1">MSRVTT</text></g></g><path class="foreground" aria-hidden="true" d="" pointer-events="none" display="none"/></g></g></g><path class="foreground" aria-hidden="true" d="" pointer-events="none" display="none"/></g></g><g class="mark-text role-legend-title" pointer-events="none"><text text-anchor="start" transform="translate(3,14)" font-family="sans-serif" font-size="14px" font-weight="bold" fill="#000" opacity="1">Dataset</text></g></g><path class="foreground" aria-hidden="true" d="" pointer-events="none" display="none"/></g></g><g class="mark-group role-title"><g transform="translate(200,-30)"><path class="background" aria-hidden="true" d="M0,0h0v0h0Z" pointer-events="none"/><g><g class="mark-text role-title-text" role="graphics-symbol" aria-roledescription="title" aria-label="Title text 'Caption Length Histogram'" pointer-events="none"><text text-anchor="middle" transform="translate(0,16)" font-family="Courier" font-size="20px" font-weight="bold" fill="black" opacity="1">Caption Length Histogram</text></g></g><path class="foreground" aria-hidden="true" d="" pointer-events="none" display="none"/></g></g></g><path class="foreground" aria-hidden="true" d="" display="none"/></g></g></g></svg>