<svg xmlns="http://www.w3.org/2000/svg" xmlns:xlink="http://www.w3.org/1999/xlink" version="1.1" class="marks" width="463" height="382" viewBox="0 0 463 382"><rect width="463" height="382" fill="white"/><g fill="none" stroke-miterlimit="10" transform="translate(57,35)"><g class="mark-group role-frame root" role="graphics-object" aria-roledescription="group mark container"><g transform="translate(0,0)"><path class="background" aria-hidden="true" d="M0.5,0.5h400v300h-400Z" stroke="#ddd"/><g><g class="mark-group role-axis" role="graphics-symbol" aria-roledescription="axis" aria-label="X-axis for a linear scale with values from 0 to 160"><g transform="translate(0.5,300.5)"><path class="background" aria-hidden="true" d="M0,0h0v0h0Z" pointer-events="none"/><g><g class="mark-rule role-axis-grid" pointer-events="none"><line transform="translate(0,-300)" x2="0" y2="300" stroke="#ddd" stroke-width="1" opacity="1"/><line transform="translate(50,-300)" x2="0" y2="300" stroke="#ddd" stroke-width="1" opacity="1"/><line transform="translate(100,-300)" x2="0" y2="300" stroke="#ddd" stroke-width="1" opacity="1"/><line transform="translate(150,-300)" x2="0" y2="300" stroke="#ddd" stroke-width="1" opacity="1"/><line transform="translate(200,-300)" x2="0" y2="300" stroke="#ddd" stroke-width="1" opacity="1"/><line transform="translate(250,-300)" x2="0" y2="300" stroke="#ddd" stroke-width="1" opacity="1"/><line transform="translate(300,-300)" x2="0" y2="300" stroke="#ddd" stroke-width="1" opacity="1"/><line transform="translate(350,-300)" x2="0" y2="300" stroke="#ddd" stroke-width="1" opacity="1"/><line transform="translate(400,-300)" x2="0" y2="300" stroke="#ddd" stroke-width="1" opacity="1"/></g></g><path class="foreground" aria-hidden="true" d="" pointer-events="none" display="none"/></g></g><g class="mark-group role-axis" role="graphics-symbol" aria-roledescription="axis" aria-label="Y-axis for a linear scale with values from 0 to 800"><g transform="translate(0.5,0.5)"><path class="background" aria-hidden="true" d="M0,0h0v0h0Z" pointer-events="none"/><g><g class="mark-rule role-axis-grid" pointer-events="none"><line transform="translate(0,300)" x2="400" y2="0" stroke="#ddd" stroke-width="1" opacity="1"/><line transform="translate(0,263)" x2="400" y2="0" stroke="#ddd" stroke-width="1" opacity="1"/><line transform="translate(0,225)" x2="400" y2="0" stroke="#ddd" stroke-width="1" opacity="1"/><line transform="translate(0,188)" x2="400" y2="0" stroke="#ddd" stroke-width="1" opacity="1"/><line transform="translate(0,150)" x2="400" y2="0" stroke="#ddd" stroke-width="1" opacity="1"/><line transform="translate(0,113)" x2="400" y2="0" stroke="#ddd" stroke-width="1" opacity="1"/><line transform="translate(0,75)" x2="400" y2="0" stroke="#ddd" stroke-width="1" opacity="1"/><line transform="translate(0,38)" x2="400" y2="0" stroke="#ddd" stroke-width="1" opacity="1"/><line transform="translate(0,0)" x2="400" y2="0" stroke="#ddd" stroke-width="1" opacity="1"/></g></g><path class="foreground" aria-hidden="true" d="" pointer-events="none" display="none"/></g></g><g class="mark-group role-axis" role="graphics-symbol" aria-roledescription="axis" aria-label="X-axis titled 'Unique Words Per Video' for a linear scale with values from 0 to 160"><g transform="translate(0.5,300.5)"><path class="background" aria-hidden="true" d="M0,0h0v0h0Z" pointer-events="none"/><g><g class="mark-rule role-axis-tick" pointer-events="none"><line transform="translate(0,0)" x2="0" y2="5" stroke="#888" stroke-width="1" opacity="1"/><line transform="translate(50,0)" x2="0" y2="5" stroke="#888" stroke-width="1" opacity="1"/><line transform="translate(100,0)" x2="0" y2="5" stroke="#888" stroke-width="1" opacity="1"/><line transform="translate(150,0)" x2="0" y2="5" stroke="#888" stroke-width="1" opacity="1"/><line transform="translate(200,0)" x2="0" y2="5" stroke="#888" stroke-width="1" opacity="1"/><line transform="translate(250,0)" x2="0" y2="5" stroke="#888" stroke-width="1" opacity="1"/><line transform="translate(300,0)" x2="0" y2="5" stroke="#888" stroke-width="1" opacity="1"/><line transform="translate(350,0)" x2="0" y2="5" stroke="#888" stroke-width="1" opacity="1"/><line transform="translate(400,0)" x2="0" y2="5" stroke="#888" stroke-width="1" opacity="1"/></g><g class="mark-text role-axis-label" pointer-events="none"><text text-anchor="start" transform="translate(0,16)" font-family="sans-serif" font-size="12px" fill="#000" opacity="1">0</text><text text-anchor="middle" transform="translate(50,16)" font-family="sans-serif" font-size="12px" fill="#000" opacity="1">20</text><text text-anchor="middle" transform="translate(100,16)" font-family="sans-serif" font-size="12px" fill="#000" opacity="1">40</text><text text-anchor="middle" transform="translate(150,16)" font-family="sans-serif" font-size="12px" fill="#000" opacity="1">60</text><text text-anchor="middle" transform="translate(200,16)" font-family="sans-serif" font-size="12px" fill="#000" opacity="1">80</text><text text-anchor="middle" transform="translate(250,16)" font-family="sans-serif" font-size="12px" fill="#000" opacity="1">100</text><text text-anchor="middle" transform="translate(300,16)" font-family="sans-serif" font-size="12px" fill="#000" opacity="1">120</text><text text-anchor="middle" transform="translate(350,16)" font-family="sans-serif" font-size="12px" fill="#000" opacity="1">140</text><text text-anchor="end" transform="translate(400,16)" font-family="sans-serif" font-size="12px" fill="#000" opacity="1">160</text></g><g class="mark-rule role-axis-domain" pointer-events="none"><line transform="translate(0,0)" x2="400" y2="0" stroke="#888" stroke-width="1" opacity="1"/></g><g class="mark-text role-axis-title" pointer-events="none"><text text-anchor="middle" transform="translate(200,39)" font-family="Arial" font-size="14px" font-weight="bold" fill="#000" opacity="1">Unique Words Per Video</text></g></g><path class="foreground" aria-hidden="true" d="" pointer-events="none" display="none"/></g></g><g class="mark-group role-axis" role="graphics-symbol" aria-roledescription="axis" aria-label="Y-axis titled 'Number of Videos' for a linear scale with values from 0 to 800"><g transform="translate(0.5,0.5)"><path class="background" aria-hidden="true" d="M0,0h0v0h0Z" pointer-events="none"/><g><g class="mark-rule role-axis-tick" pointer-events="none"><line transform="translate(0,300)" x2="-5" y2="0" stroke="#888" stroke-width="1" opacity="1"/><line transform="translate(0,263)" x2="-5" y2="0" stroke="#888" stroke-width="1" opacity="1"/><line transform="translate(0,225)" x2="-5" y2="0" stroke="#888" stroke-width="1" opacity="1"/><line transform="translate(0,188)" x2="-5" y2="0" stroke="#888" stroke-width="1" opacity="1"/><line transform="translate(0,150)" x2="-5" y2="0" stroke="#888" stroke-width="1" opacity="1"/><line transform="translate(0,113)" x2="-5" y2="0" stroke="#888" stroke-width="1" opacity="1"/><line transform="translate(0,75)" x2="-5" y2="0" stroke="#888" stroke-width="1" opacity="1"/><line transform="translate(0,38)" x2="-5" y2="0" stroke="#888" stroke-width="1" opacity="1"/><line transform="translate(0,0)" x2="-5" y2="0" stroke="#888" stroke-width="1" opacity="1"/></g><g class="mark-text role-axis-label" pointer-events="none"><text text-anchor="end" transform="translate(-7,304)" font-family="sans-serif" font-size="12px" fill="#000" opacity="1">0</text><text text-anchor="end" transform="translate(-7,266.5)" font-family="sans-serif" font-size="12px" fill="#000" opacity="1">100</text><text text-anchor="end" transform="translate(-7,229)" font-family="sans-serif" font-size="12px" fill="#000" opacity="1">200</text><text text-anchor="end" transform="translate(-7,191.5)" font-family="sans-serif" font-size="12px" fill="#000" opacity="1">300</text><text text-anchor="end" transform="translate(-7,154)" font-family="sans-serif" font-size="12px" fill="#000" opacity="1">400</text><text text-anchor="end" transform="translate(-7,116.5)" font-family="sans-serif" font-size="12px" fill="#000" opacity="1">500</text><text text-anchor="end" transform="translate(-7,79)" font-family="sans-serif" font-size="12px" fill="#000" opacity="1">600</text><text text-anchor="end" transform="translate(-7,41.5)" font-family="sans-serif" font-size="12px" fill="#000" opacity="1">700</text><text text-anchor="end" transform="translate(-7,4)" font-family="sans-serif" font-size="12px" fill="#000" opacity="1">800</text></g><g class="mark-rule role-axis-domain" pointer-events="none"><line transform="translate(0,300)" x2="0" y2="-300" stroke="#888" stroke-width="1" opacity="1"/></g><g class="mark-text role-axis-title" pointer-events="none"><text text-anchor="middle" transform="translate(-37.021484375,150) rotate(-90) translate(0,-3)" font-family="Arial" font-size="14px" font-weight="bold" fill="#000" opacity="1">Number of Videos</text></g></g><path class="foreground" aria-hidden="true" d="" pointer-events="none" display="none"/></g></g><g class="mark-group role-scope pathgroup" role="graphics-object" aria-roledescription="group mark container"><g transform="translate(0,0)"><path class="background" aria-hidden="true" d="M0,0h400v300h-400Z"/><g><g class="mark-line role-mark marks" role="graphics-symbol" aria-roledescription="line mark container"><path d="M0,300L2.5,300L5,296.625L7.5,285L10,265.125L12.5,246.75L15,225.74999999999997L17.5,215.25L20,196.12500000000003L22.5,187.875L25,182.24999999999997L27.500000000000004,159.75L30,151.5L32.5,144L35,121.875L37.5,103.49999999999999L40,100.125L42.5,99.37500000000001L45,85.12499999999999L47.5,94.49999999999999L50,75L52.5,61.875000000000014L55.00000000000001,47.624999999999986L57.49999999999999,52.87500000000001L60,24.375000000000014L62.5,12.749999999999995L65,0.749999999999984L67.5,9.375L70,5.625000000000013L72.5,9.749999999999993L75,25.124999999999996L77.5,3.3749999999999947L80,14.249999999999996L82.5,2.2499999999999853L85,16.875000000000007L87.5,16.500000000000014L90,22.499999999999986L92.5,45.00000000000001L95,59.999999999999986L97.5,55.12499999999999L100,75L102.49999999999999,75.74999999999999L105,85.50000000000001L107.5,119.24999999999999L110.00000000000001,104.625L112.5,125.25L114.99999999999999,133.49999999999997L117.5,144.375L120,164.25L122.50000000000001,177.00000000000003L125,179.24999999999997L127.49999999999999,188.24999999999997L130,199.12500000000003L132.5,204.375L135,209.625L137.5,221.25L140,218.625L142.5,226.875L145,239.25L147.5,231.75L150,238.875L152.5,249L155,250.125L157.5,249.75L160,256.875L162.5,263.625L165,260.25L167.5,269.25L170,267.75L172.5,272.25L175,270.75L177.5,273.375L180,267.375L182.5,277.125L185,277.125L187.5,280.5L190,280.125L192.5,281.25L195,281.625L197.5,280.125L200,281.625L202.5,285.375L204.99999999999997,285.75L207.50000000000003,286.875L210,286.875L212.5,289.5L215,279.75L217.49999999999997,292.5L220.00000000000003,285.75L222.5,294L225,291L227.5,291L229.99999999999997,289.125L232.50000000000003,292.125L235,292.875L237.5,288.75L240,290.25L242.49999999999997,294.75L245.00000000000003,291.375L247.5,297L250,296.625L252.5,294.75L254.99999999999997,295.875L257.5,295.125L260,297L262.5,295.5L265,296.625L267.5,298.5L270,297.75L272.5,296.625L275,298.5L277.5,298.5L280,295.875L282.5,297.375L285,297.75L287.5,298.875L290,299.25L292.5,297.75L295,299.625L297.5,298.5L300,298.5L302.5,299.25L305,299.25L307.5,299.625L310,298.875L312.5,299.25L315,300L317.5,298.875L320,298.125L322.5,299.625L325,298.5L327.5,299.25L330,299.625L332.5,299.625L335,299.625L337.5,300L340,299.625L342.5,299.625L345,300L347.5,300L350,300L352.5,299.625L355,300L357.5,300L360,299.625L362.5,300L365,300L367.5,300L370,300L372.5,300L375,300" stroke="#1f77b4" stroke-width="2" stroke-dasharray="1,0"/></g></g><path class="foreground" aria-hidden="true" d="" display="none"/></g></g><g class="mark-group role-legend" role="graphics-symbol" aria-roledescription="legend" aria-label="Symbol legend titled 'Dataset' for stroke color and strokeDash with 1 value: VidSitu"><g transform="translate(313,18)"><path class="background" aria-hidden="true" d="M0,0h69v39h-69Z" pointer-events="none" fill="white"/><g><g class="mark-group role-legend-entry"><g transform="translate(3,22)"><path class="background" aria-hidden="true" d="M0,0h0v0h0Z" pointer-events="none"/><g><g class="mark-group role-scope" role="graphics-object" aria-roledescription="group mark container"><g transform="translate(0,0)"><path class="background" aria-hidden="true" d="M0,0h62.1123046875v14h-62.1123046875Z" pointer-events="none" opacity="1"/><g><g class="mark-symbol role-legend-symbol" pointer-events="none"><path transform="translate(7,7)" d="M-5,0L5,0" stroke="#1f77b4" stroke-width="1.5" stroke-dasharray="1,0" opacity="1"/></g><g class="mark-text role-legend-label" pointer-events="none"><text text-anchor="start" transform="translate(18,11)" font-family="sans-serif" font-size="14px" font-style="italic" fill="#000" opacity="1">VidSitu</text></g></g><path class="foreground" aria-hidden="true" d="" pointer-events="none" display="none"/></g></g></g><path class="foreground" aria-hidden="true" d="" pointer-events="none" display="none"/></g></g><g class="mark-text role-legend-title" pointer-events="none"><text text-anchor="start" transform="translate(3,14)" font-family="sans-serif" font-size="14px" font-weight="bold" fill="#000" opacity="1">Dataset</text></g></g><path class="foreground" aria-hidden="true" d="" pointer-events="none" display="none"/></g></g><g class="mark-group role-title"><g transform="translate(200,-30)"><path class="background" aria-hidden="true" d="M0,0h0v0h0Z" pointer-events="none"/><g><g class="mark-text role-title-text" role="graphics-symbol" aria-roledescription="title" aria-label="Title text 'Caption Length Histogram'" pointer-events="none"><text text-anchor="middle" transform="translate(0,16)" font-family="Courier" font-size="20px" font-weight="bold" fill="black" opacity="1">Caption Length Histogram</text></g></g><path class="foreground" aria-hidden="true" d="" pointer-events="none" display="none"/></g></g></g><path class="foreground" aria-hidden="true" d="" display="none"/></g></g></g></svg>