<svg xmlns="http://www.w3.org/2000/svg" xmlns:xlink="http://www.w3.org/1999/xlink" version="1.1" class="marks" width="466" height="382" viewBox="0 0 466 382"><rect width="466" height="382" fill="white"/><g fill="none" stroke-miterlimit="10" transform="translate(60,35)"><g class="mark-group role-frame root" role="graphics-object" aria-roledescription="group mark container"><g transform="translate(0,0)"><path class="background" aria-hidden="true" d="M0.5,0.5h400v300h-400Z" stroke="#ddd"/><g><g class="mark-group role-axis" role="graphics-symbol" aria-roledescription="axis" aria-label="Y-axis for a linear scale with values from 0.0 to 0.5"><g transform="translate(0.5,0.5)"><path class="background" aria-hidden="true" d="M0,0h0v0h0Z" pointer-events="none"/><g><g class="mark-rule role-axis-grid" pointer-events="none"><line transform="translate(0,300)" x2="400" y2="0" stroke="#ddd" stroke-width="1" opacity="1"/><line transform="translate(0,267)" x2="400" y2="0" stroke="#ddd" stroke-width="1" opacity="1"/><line transform="translate(0,233)" x2="400" y2="0" stroke="#ddd" stroke-width="1" opacity="1"/><line transform="translate(0,200)" x2="400" y2="0" stroke="#ddd" stroke-width="1" opacity="1"/><line transform="translate(0,167)" x2="400" y2="0" stroke="#ddd" stroke-width="1" opacity="1"/><line transform="translate(0,133)" x2="400" y2="0" stroke="#ddd" stroke-width="1" opacity="1"/><line transform="translate(0,100)" x2="400" y2="0" stroke="#ddd" stroke-width="1" opacity="1"/><line transform="translate(0,67)" x2="400" y2="0" stroke="#ddd" stroke-width="1" opacity="1"/><line transform="translate(0,33)" x2="400" y2="0" stroke="#ddd" stroke-width="1" opacity="1"/><line transform="translate(0,0)" x2="400" y2="0" stroke="#ddd" stroke-width="1" opacity="1"/></g></g><path class="foreground" aria-hidden="true" d="" pointer-events="none" display="none"/></g></g><g class="mark-group role-axis" role="graphics-symbol" aria-roledescription="axis" aria-label="X-axis titled 'Number of Entity Corefs In a Video' for a linear scale with values from 2 to 9"><g transform="translate(0.5,300.5)"><path class="background" aria-hidden="true" d="M0,0h0v0h0Z" pointer-events="none"/><g><g class="mark-rule role-axis-tick" pointer-events="none"><line transform="translate(0,0)" x2="0" y2="5" stroke="#888" stroke-width="1" opacity="1"/><line transform="translate(29,0)" x2="0" y2="5" stroke="#888" stroke-width="1" opacity="1"/><line transform="translate(57,0)" x2="0" y2="5" stroke="#888" stroke-width="1" opacity="1"/><line transform="translate(86,0)" x2="0" y2="5" stroke="#888" stroke-width="1" opacity="1"/><line transform="translate(114,0)" x2="0" y2="5" stroke="#888" stroke-width="1" opacity="1"/><line transform="translate(143,0)" x2="0" y2="5" stroke="#888" stroke-width="1" opacity="1"/><line transform="translate(171,0)" x2="0" y2="5" stroke="#888" stroke-width="1" opacity="1"/><line transform="translate(200,0)" x2="0" y2="5" stroke="#888" stroke-width="1" opacity="1"/><line transform="translate(229,0)" x2="0" y2="5" stroke="#888" stroke-width="1" opacity="1"/><line transform="translate(257,0)" x2="0" y2="5" stroke="#888" stroke-width="1" opacity="1"/><line transform="translate(286,0)" x2="0" y2="5" stroke="#888" stroke-width="1" opacity="1"/><line transform="translate(314,0)" x2="0" y2="5" stroke="#888" stroke-width="1" opacity="1"/><line transform="translate(343,0)" x2="0" y2="5" stroke="#888" stroke-width="1" opacity="1"/><line transform="translate(371,0)" x2="0" y2="5" stroke="#888" stroke-width="1" opacity="1"/><line transform="translate(400,0)" x2="0" y2="5" stroke="#888" stroke-width="1" opacity="1"/></g><g class="mark-text role-axis-label" pointer-events="none"><text text-anchor="start" transform="translate(0,16)" font-family="sans-serif" font-size="12px" fill="#000" opacity="1">1.5</text><text text-anchor="middle" transform="translate(28.57142857142857,16)" font-family="sans-serif" font-size="12px" fill="#000" opacity="1">2.0</text><text text-anchor="middle" transform="translate(57.14285714285714,16)" font-family="sans-serif" font-size="12px" fill="#000" opacity="1">2.5</text><text text-anchor="middle" transform="translate(85.71428571428571,16)" font-family="sans-serif" font-size="12px" fill="#000" opacity="1">3.0</text><text text-anchor="middle" transform="translate(114.28571428571428,16)" font-family="sans-serif" font-size="12px" fill="#000" opacity="1">3.5</text><text text-anchor="middle" transform="translate(142.85714285714286,16)" font-family="sans-serif" font-size="12px" fill="#000" opacity="1">4.0</text><text text-anchor="middle" transform="translate(171.42857142857142,16)" font-family="sans-serif" font-size="12px" fill="#000" opacity="1">4.5</text><text text-anchor="middle" transform="translate(200,16)" font-family="sans-serif" font-size="12px" fill="#000" opacity="1">5.0</text><text text-anchor="middle" transform="translate(228.57142857142856,16)" font-family="sans-serif" font-size="12px" fill="#000" opacity="1">5.5</text><text text-anchor="middle" transform="translate(257.14285714285717,16)" font-family="sans-serif" font-size="12px" fill="#000" opacity="1">6.0</text><text text-anchor="middle" transform="translate(285.7142857142857,16)" font-family="sans-serif" font-size="12px" fill="#000" opacity="1">6.5</text><text text-anchor="middle" transform="translate(314.2857142857143,16)" font-family="sans-serif" font-size="12px" fill="#000" opacity="1">7.0</text><text text-anchor="middle" transform="translate(342.85714285714283,16)" font-family="sans-serif" font-size="12px" fill="#000" opacity="1">7.5</text><text text-anchor="middle" transform="translate(371.42857142857144,16)" font-family="sans-serif" font-size="12px" fill="#000" opacity="1">8.0</text><text text-anchor="end" transform="translate(400,16)" font-family="sans-serif" font-size="12px" fill="#000" opacity="1">8.5</text></g><g class="mark-rule role-axis-domain" pointer-events="none"><line transform="translate(0,0)" x2="400" y2="0" stroke="#888" stroke-width="1" opacity="1"/></g><g class="mark-text role-axis-title" pointer-events="none"><text text-anchor="middle" transform="translate(200,39)" font-family="Arial" font-size="14px" font-weight="bold" fill="#000" opacity="1">Number of Entity Corefs In a Video</text></g></g><path class="foreground" aria-hidden="true" d="" pointer-events="none" display="none"/></g></g><g class="mark-group role-axis" role="graphics-symbol" aria-roledescription="axis" aria-label="Y-axis titled 'Fraction of Entities' for a linear scale with values from 0.0 to 0.5"><g transform="translate(0.5,0.5)"><path class="background" aria-hidden="true" d="M0,0h0v0h0Z" pointer-events="none"/><g><g class="mark-rule role-axis-tick" pointer-events="none"><line transform="translate(0,300)" x2="-5" y2="0" stroke="#888" stroke-width="1" opacity="1"/><line transform="translate(0,267)" x2="-5" y2="0" stroke="#888" stroke-width="1" opacity="1"/><line transform="translate(0,233)" x2="-5" y2="0" stroke="#888" stroke-width="1" opacity="1"/><line transform="translate(0,200)" x2="-5" y2="0" stroke="#888" stroke-width="1" opacity="1"/><line transform="translate(0,167)" x2="-5" y2="0" stroke="#888" stroke-width="1" opacity="1"/><line transform="translate(0,133)" x2="-5" y2="0" stroke="#888" stroke-width="1" opacity="1"/><line transform="translate(0,100)" x2="-5" y2="0" stroke="#888" stroke-width="1" opacity="1"/><line transform="translate(0,67)" x2="-5" y2="0" stroke="#888" stroke-width="1" opacity="1"/><line transform="translate(0,33)" x2="-5" y2="0" stroke="#888" stroke-width="1" opacity="1"/><line transform="translate(0,0)" x2="-5" y2="0" stroke="#888" stroke-width="1" opacity="1"/></g><g class="mark-text role-axis-label" pointer-events="none"><text text-anchor="end" transform="translate(-7,304)" font-family="sans-serif" font-size="12px" fill="#000" opacity="1">0.00</text><text text-anchor="end" transform="translate(-7,270.66666666666663)" font-family="sans-serif" font-size="12px" fill="#000" opacity="1">0.05</text><text text-anchor="end" transform="translate(-7,237.33333333333334)" font-family="sans-serif" font-size="12px" fill="#000" opacity="1">0.10</text><text text-anchor="end" transform="translate(-7,204.00000000000003)" font-family="sans-serif" font-size="12px" fill="#000" opacity="1">0.15</text><text text-anchor="end" transform="translate(-7,170.66666666666669)" font-family="sans-serif" font-size="12px" fill="#000" opacity="1">0.20</text><text text-anchor="end" transform="translate(-7,137.33333333333331)" font-family="sans-serif" font-size="12px" fill="#000" opacity="1">0.25</text><text text-anchor="end" transform="translate(-7,104.00000000000001)" font-family="sans-serif" font-size="12px" fill="#000" opacity="1">0.30</text><text text-anchor="end" transform="translate(-7,70.6666666666667)" font-family="sans-serif" font-size="12px" fill="#000" opacity="1">0.35</text><text text-anchor="end" transform="translate(-7,37.333333333333314)" font-family="sans-serif" font-size="12px" fill="#000" opacity="1">0.40</text><text text-anchor="end" transform="translate(-7,4)" font-family="sans-serif" font-size="12px" fill="#000" opacity="1">0.45</text></g><g class="mark-rule role-axis-domain" pointer-events="none"><line transform="translate(0,300)" x2="0" y2="-300" stroke="#888" stroke-width="1" opacity="1"/></g><g class="mark-text role-axis-title" pointer-events="none"><text text-anchor="middle" transform="translate(-40.35546875,150) rotate(-90) translate(0,-3)" font-family="Arial" font-size="14px" font-weight="bold" fill="#000" opacity="1">Fraction of Entities</text></g></g><path class="foreground" aria-hidden="true" d="" pointer-events="none" display="none"/></g></g><g class="mark-rect role-mark layer_0_marks" role="graphics-symbol" aria-roledescription="rect mark container"><path d="M18.57142857142857,7.255575836306938L38.57142857142857,7.255575836306938C41.331003693898566,7.255575836306938,43.57142857142857,9.496000713836938,43.57142857142857,12.255575836306939L43.57142857142857,300C43.57142857142857,300,43.57142857142857,300,43.57142857142857,300L13.57142857142857,300C13.57142857142857,300,13.57142857142857,300,13.57142857142857,300L13.57142857142857,12.255575836306939C13.57142857142857,9.496000713836938,15.81185344895857,7.255575836306938,18.57142857142857,7.255575836306938Z" fill="#4c78a8"/><path d="M75.71428571428571,124.02885347979323L95.71428571428571,124.02885347979323C98.4738608367557,124.02885347979323,100.71428571428571,126.26927835732323,100.71428571428571,129.0288534797932L100.71428571428571,300C100.71428571428571,300,100.71428571428571,300,100.71428571428571,300L70.71428571428571,300C70.71428571428571,300,70.71428571428571,300,70.71428571428571,300L70.71428571428571,129.0288534797932C70.71428571428571,126.26927835732323,72.95471059181571,124.02885347979323,75.71428571428571,124.02885347979323Z" fill="#4c78a8"/><path d="M132.85714285714286,180.1791283661936L152.85714285714286,180.1791283661936C155.61671797961287,180.1791283661936,157.85714285714286,182.41955324372358,157.85714285714286,185.1791283661936L157.85714285714286,300C157.85714285714286,300,157.85714285714286,300,157.85714285714286,300L127.85714285714286,300C127.85714285714286,300,127.85714285714286,300,127.85714285714286,300L127.85714285714286,185.1791283661936C127.85714285714286,182.41955324372358,130.09756773467285,180.1791283661936,132.85714285714286,180.1791283661936Z" fill="#4c78a8"/><path d="M190,232.4705792072967L210,232.4705792072967C212.75957512247,232.4705792072967,215,234.7110040848267,215,237.4705792072967L215,300C215,300,215,300,215,300L185,300C185,300,185,300,185,300L185,237.4705792072967C185,234.7110040848267,187.24042487753,232.4705792072967,190,232.4705792072967Z" fill="#4c78a8"/><path d="M245.36037094199003,293.5649724017343L268.9253433437243,293.5649724017343C270.7011375509825,293.5649724017343,272.14285714285717,295.00669199360897,272.14285714285717,296.78248620086714L272.14285714285717,300C272.14285714285717,300,272.14285714285717,300,272.14285714285717,300L242.14285714285717,300C242.14285714285717,300,242.14285714285717,300,242.14285714285717,300L242.14285714285717,296.78248620086714C242.14285714285717,295.00669199360897,243.58457673473183,293.5649724017343,245.36037094199003,293.5649724017343Z" fill="#4c78a8"/><path d="M300.0805004882258,298.4104275949769L328.49092808320273,298.4104275949769C328.9295825296294,298.4104275949769,329.2857142857143,298.7665593510618,329.2857142857143,299.20521379748845L329.2857142857143,300C329.2857142857143,300,329.2857142857143,300,329.2857142857143,300L299.2857142857143,300C299.2857142857143,300,299.2857142857143,300,299.2857142857143,300L299.2857142857143,299.20521379748845C299.2857142857143,298.7665593510618,299.64184604179917,298.4104275949769,300.0805004882258,298.4104275949769Z" fill="#4c78a8"/><path d="M358.1058443800785,296.6454540969859L384.7512984770644,296.6454540969859C385.67701061917853,296.6454540969859,386.42857142857144,297.3970149063788,386.42857142857144,298.32272704849294L386.42857142857144,300C386.42857142857144,300,386.42857142857144,300,386.42857142857144,300L356.42857142857144,300C356.42857142857144,300,356.42857142857144,300,356.42857142857144,300L356.42857142857144,298.32272704849294C356.42857142857144,297.3970149063788,357.18013223796436,296.6454540969859,358.1058443800785,296.6454540969859Z" fill="#4c78a8"/></g><g class="mark-text role-mark layer_1_marks" role="graphics-object" aria-roledescription="text mark container"><text text-anchor="middle" transform="translate(28.57142857142857,5.255575836306938)" font-family="sans-serif" font-size="11px" fill="black">0.44</text><text text-anchor="middle" transform="translate(85.71428571428571,122.02885347979323)" font-family="sans-serif" font-size="11px" fill="black">0.26</text><text text-anchor="middle" transform="translate(142.85714285714286,178.1791283661936)" font-family="sans-serif" font-size="11px" fill="black">0.18</text><text text-anchor="middle" transform="translate(200,230.4705792072967)" font-family="sans-serif" font-size="11px" fill="black">0.10</text><text text-anchor="middle" transform="translate(257.14285714285717,291.5649724017343)" font-family="sans-serif" font-size="11px" fill="black">0.01</text><text text-anchor="middle" transform="translate(314.2857142857143,296.4104275949769)" font-family="sans-serif" font-size="11px" fill="black">0.00</text><text text-anchor="middle" transform="translate(371.42857142857144,294.6454540969859)" font-family="sans-serif" font-size="11px" fill="black">0.01</text></g><g class="mark-group role-title"><g transform="translate(200,-30)"><path class="background" aria-hidden="true" d="M0,0h0v0h0Z" pointer-events="none"/><g><g class="mark-text role-title-text" role="graphics-symbol" aria-roledescription="title" aria-label="Title text 'Histogram of Entity Coreferences'" pointer-events="none"><text text-anchor="middle" transform="translate(0,16)" font-family="Courier" font-size="20px" font-weight="bold" fill="black" opacity="1">Histogram of Entity Coreferences</text></g></g><path class="foreground" aria-hidden="true" d="" pointer-events="none" display="none"/></g></g></g><path class="foreground" aria-hidden="true" d="" display="none"/></g></g></g></svg>