<svg xmlns="http://www.w3.org/2000/svg" xmlns:xlink="http://www.w3.org/1999/xlink" version="1.1" class="marks" width="389" height="371" viewBox="0 0 389 371"><rect width="389" height="371" fill="white"/><g fill="none" stroke-miterlimit="10" transform="translate(47,34)"><g class="mark-group role-frame root" role="graphics-object" aria-roledescription="group mark container"><g transform="translate(0,0)"><path class="background" aria-hidden="true" d="M0.5,0.5h300v300h-300Z" stroke="#ddd"/><g><g class="mark-group role-axis" role="graphics-symbol" aria-roledescription="axis" aria-label="Y-axis for a linear scale with values from 0.00 to 0.35"><g transform="translate(0.5,0.5)"><path class="background" aria-hidden="true" d="M0,0h0v0h0Z" pointer-events="none"/><g><g class="mark-rule role-axis-grid" pointer-events="none"><line transform="translate(0,300)" x2="300" y2="0" stroke="#ddd" stroke-width="1" opacity="1"/><line transform="translate(0,257)" x2="300" y2="0" stroke="#ddd" stroke-width="1" opacity="1"/><line transform="translate(0,214)" x2="300" y2="0" stroke="#ddd" stroke-width="1" opacity="1"/><line transform="translate(0,171)" x2="300" y2="0" stroke="#ddd" stroke-width="1" opacity="1"/><line transform="translate(0,129)" x2="300" y2="0" stroke="#ddd" stroke-width="1" opacity="1"/><line transform="translate(0,86)" x2="300" y2="0" stroke="#ddd" stroke-width="1" opacity="1"/><line transform="translate(0,43)" x2="300" y2="0" stroke="#ddd" stroke-width="1" opacity="1"/><line transform="translate(0,0)" x2="300" y2="0" stroke="#ddd" stroke-width="1" opacity="1"/></g></g><path class="foreground" aria-hidden="true" d="" pointer-events="none" display="none"/></g></g><g class="mark-group role-axis" role="graphics-symbol" aria-roledescription="axis" aria-label="X-axis titled 'Event Relations' for a discrete scale with 4 values: Caused By, Reaction To, Enabled By, No Relation"><g transform="translate(0.5,300.5)"><path class="background" aria-hidden="true" d="M0,0h0v0h0Z" pointer-events="none"/><g><g class="mark-rule role-axis-tick" pointer-events="none"><line transform="translate(37,0)" x2="0" y2="5" stroke="#888" stroke-width="1" opacity="1"/><line transform="translate(112,0)" x2="0" y2="5" stroke="#888" stroke-width="1" opacity="1"/><line transform="translate(187,0)" x2="0" y2="5" stroke="#888" stroke-width="1" opacity="1"/><line transform="translate(262,0)" x2="0" y2="5" stroke="#888" stroke-width="1" opacity="1"/></g><g class="mark-text role-axis-label" pointer-events="none"><text text-anchor="middle" transform="translate(37,15)" font-family="sans-serif" font-size="10px" fill="#000" opacity="1">Caused By</text><text text-anchor="middle" transform="translate(112,15)" font-family="sans-serif" font-size="10px" fill="#000" opacity="1">Reaction To</text><text text-anchor="middle" transform="translate(187,15)" font-family="sans-serif" font-size="10px" fill="#000" opacity="1">Enabled By</text><text text-anchor="middle" transform="translate(262,15)" font-family="sans-serif" font-size="10px" fill="#000" opacity="1">No Relation</text></g><g class="mark-rule role-axis-domain" pointer-events="none"><line transform="translate(0,0)" x2="300" y2="0" stroke="#888" stroke-width="1" opacity="1"/></g><g class="mark-text role-axis-title" pointer-events="none"><text text-anchor="middle" transform="translate(150,30)" font-family="sans-serif" font-size="11px" font-weight="bold" fill="#000" opacity="1">Event Relations</text></g></g><path class="foreground" aria-hidden="true" d="" pointer-events="none" display="none"/></g></g><g class="mark-group role-axis" role="graphics-symbol" aria-roledescription="axis" aria-label="Y-axis titled 'Fraction of Dataset' for a linear scale with values from 0.00 to 0.35"><g transform="translate(0.5,0.5)"><path class="background" aria-hidden="true" d="M0,0h0v0h0Z" pointer-events="none"/><g><g class="mark-rule role-axis-tick" pointer-events="none"><line transform="translate(0,300)" x2="-5" y2="0" stroke="#888" stroke-width="1" opacity="1"/><line transform="translate(0,257)" x2="-5" y2="0" stroke="#888" stroke-width="1" opacity="1"/><line transform="translate(0,214)" x2="-5" y2="0" stroke="#888" stroke-width="1" opacity="1"/><line transform="translate(0,171)" x2="-5" y2="0" stroke="#888" stroke-width="1" opacity="1"/><line transform="translate(0,129)" x2="-5" y2="0" stroke="#888" stroke-width="1" opacity="1"/><line transform="translate(0,86)" x2="-5" y2="0" stroke="#888" stroke-width="1" opacity="1"/><line transform="translate(0,43)" x2="-5" y2="0" stroke="#888" stroke-width="1" opacity="1"/><line transform="translate(0,0)" x2="-5" y2="0" stroke="#888" stroke-width="1" opacity="1"/></g><g class="mark-text role-axis-label" pointer-events="none"><text text-anchor="end" transform="translate(-7,303)" font-family="sans-serif" font-size="10px" fill="#000" opacity="1">0.00</text><text text-anchor="end" transform="translate(-7,260.1428571428571)" font-family="sans-serif" font-size="10px" fill="#000" opacity="1">0.05</text><text text-anchor="end" transform="translate(-7,217.28571428571425)" font-family="sans-serif" font-size="10px" fill="#000" opacity="1">0.10</text><text text-anchor="end" transform="translate(-7,174.42857142857142)" font-family="sans-serif" font-size="10px" fill="#000" opacity="1">0.15</text><text text-anchor="end" transform="translate(-7,131.57142857142856)" font-family="sans-serif" font-size="10px" fill="#000" opacity="1">0.20</text><text text-anchor="end" transform="translate(-7,88.71428571428571)" font-family="sans-serif" font-size="10px" fill="#000" opacity="1">0.25</text><text text-anchor="end" transform="translate(-7,45.85714285714284)" font-family="sans-serif" font-size="10px" fill="#000" opacity="1">0.30</text><text text-anchor="end" transform="translate(-7,3)" font-family="sans-serif" font-size="10px" fill="#000" opacity="1">0.35</text></g><g class="mark-rule role-axis-domain" pointer-events="none"><line transform="translate(0,300)" x2="0" y2="-300" stroke="#888" stroke-width="1" opacity="1"/></g><g class="mark-text role-axis-title" pointer-events="none"><text text-anchor="middle" transform="translate(-30.462890625,150) rotate(-90) translate(0,-2)" font-family="sans-serif" font-size="11px" font-weight="bold" fill="#000" opacity="1">Fraction of Dataset</text></g></g><path class="foreground" aria-hidden="true" d="" pointer-events="none" display="none"/></g></g><g class="mark-rect role-mark layer_0_marks" role="graphics-symbol" aria-roledescription="rect mark container"><path d="M27.5,154.538055926471L47.5,154.538055926471C50.25957512247,154.538055926471,52.5,156.778480804001,52.5,159.538055926471L52.5,300C52.5,300,52.5,300,52.5,300L22.5,300C22.5,300,22.5,300,22.5,300L22.5,159.538055926471C22.5,156.778480804001,24.74042487753,154.538055926471,27.5,154.538055926471Z" fill="#4c78a8"/><path d="M102.5,93.71874969541614L122.5,93.71874969541614C125.25957512247,93.71874969541614,127.5,95.95917457294614,127.5,98.71874969541614L127.5,300C127.5,300,127.5,300,127.5,300L97.5,300C97.5,300,97.5,300,97.5,300L97.5,98.71874969541614C97.5,95.95917457294614,99.74042487753,93.71874969541614,102.5,93.71874969541614Z" fill="#4c78a8"/><path d="M177.5,10.90361504498093L197.5,10.90361504498093C200.25957512247,10.90361504498093,202.5,13.14403992251093,202.5,15.90361504498093L202.5,300C202.5,300,202.5,300,202.5,300L172.5,300C172.5,300,172.5,300,172.5,300L172.5,15.90361504498093C172.5,13.14403992251093,174.74042487753,10.90361504498093,177.5,10.90361504498093Z" fill="#4c78a8"/><path d="M252.5,83.69672219027477L272.5,83.69672219027477C275.25957512247,83.69672219027477,277.5,85.93714706780477,277.5,88.69672219027477L277.5,300C277.5,300,277.5,300,277.5,300L247.5,300C247.5,300,247.5,300,247.5,300L247.5,88.69672219027477C247.5,85.93714706780477,249.74042487753,83.69672219027477,252.5,83.69672219027477Z" fill="#4c78a8"/></g><g class="mark-text role-mark layer_1_marks" role="graphics-object" aria-roledescription="text mark container"><text text-anchor="middle" transform="translate(37.5,152.538055926471)" font-family="sans-serif" font-size="11px" fill="black">0.17</text><text text-anchor="middle" transform="translate(112.5,91.71874969541614)" font-family="sans-serif" font-size="11px" fill="black">0.24</text><text text-anchor="middle" transform="translate(187.5,8.90361504498093)" font-family="sans-serif" font-size="11px" fill="black">0.34</text><text text-anchor="middle" transform="translate(262.5,81.69672219027477)" font-family="sans-serif" font-size="11px" fill="black">0.25</text></g><g class="mark-group role-title"><g transform="translate(150,-29)"><path class="background" aria-hidden="true" d="M0,0h0v0h0Z" pointer-events="none"/><g><g class="mark-text role-title-text" role="graphics-symbol" aria-roledescription="title" aria-label="Title text 'Distribution of Event Relations'" pointer-events="none"><text text-anchor="middle" transform="translate(0,16)" font-family="Courier" font-size="20px" font-weight="bold" fill="black" opacity="1">Distribution of Event Relations</text></g></g><path class="foreground" aria-hidden="true" d="" pointer-events="none" display="none"/></g></g></g><path class="foreground" aria-hidden="true" d="" display="none"/></g></g></g></svg>